<svg width="212" height="323" viewBox="0 0 212 323" fill="none" xmlns="http://www.w3.org/2000/svg">
<path d="M111.805 -52C111.705 -48.5 111.605 -45.1 111.705 -41.6C111.705 -41.1 112.105 -40.6 112.505 -40.2C113.905 -38.9 113.905 -37.7 112.605 -36.3C112.105 -35.8 111.705 -35 111.705 -34.3C111.605 -24.6 111.605 -14.9 111.705 -5.2C111.705 -4.6 112.005 -3.9 112.205 -3.3C112.205 -3.1 112.505 -3 112.505 -2.9C112.305 -1.1 112.105 0.600002 112.005 2.4C111.905 4.9 111.805 7.4 111.805 9.9C111.805 12.3 111.805 14.7 111.805 17.1C111.805 19.1 111.805 19.1 113.205 20.3C110.805 21.5 112.005 23.6 111.805 25.5C113.005 25.6 114.505 24.4 114.805 26.2C114.905 26.7 113.605 27.4 112.805 27.8C111.005 32.5 112.005 37.6 111.805 42.6C111.605 47.7 111.805 52.7 111.805 57.8C111.805 60.9 111.805 64 111.805 67C111.805 71.7 111.805 76.4 111.805 81.1C111.805 82.2 111.205 83.6 112.905 84.2C112.505 85.1 111.905 86.1 111.905 87C111.805 92.6 111.805 98.2 111.905 103.7C111.905 104.3 112.305 105.1 112.705 105.6C113.805 106.8 113.705 108 112.505 108.9C112.205 109.1 111.905 109.5 111.905 109.8C112.005 111.5 112.205 113.2 112.305 114.8C112.305 115.1 112.405 115.5 112.405 115.8C112.305 120.5 112.105 125.2 112.005 129.9C111.905 134.4 111.905 138.9 111.905 143.4C111.905 152.9 111.805 162.3 111.805 171.8C111.805 172.2 111.905 172.9 112.105 173C114.405 174.6 114.605 177.1 114.905 179.4C115.405 183.4 115.305 187.4 113.305 191.1C112.905 191.9 112.705 192.9 112.405 194C112.605 194.2 112.905 194.4 113.205 194.7C114.505 195.9 114.805 197.6 113.505 198.9C112.705 199.8 112.805 200.4 113.505 201.2C115.605 203.7 118.205 205.6 121.205 207.1C124.305 208.6 127.605 210 130.505 211.8C136.805 215.8 140.105 221.6 140.105 229.2C140.105 249.7 140.105 270.1 140.105 290.6C140.105 298.7 136.005 304.4 129.205 308.3C126.705 309.8 123.905 311 121.305 312.3C116.705 314.6 112.905 317.5 111.305 322.6C111.305 322.7 111.105 322.8 111.005 322.9C110.105 318.1 106.705 315.4 102.805 313.2C99.8049 311.5 96.6049 310.3 93.6049 308.7C86.3049 304.7 82.2049 298.7 82.2049 290.2C82.1049 276.7 82.2049 263.3 82.1049 249.8C82.1049 243.6 82.1049 237.5 82.0049 231.3C81.9049 225.2 83.3049 219.7 87.6049 215.1C91.0049 211.6 95.2049 209.5 99.5049 207.6C103.105 206.1 106.305 204.1 108.805 201.1C109.205 200.6 109.505 199.8 109.305 199.4C107.905 196.1 107.905 196.2 110.205 193.8C107.505 188.4 106.405 182.7 108.205 176.7C108.505 175.5 109.505 174.5 110.105 173.3C110.305 172.9 110.705 172.4 110.705 172C110.705 158.7 110.705 145.3 110.705 131.9C110.405 131.8 110.105 131.8 109.805 131.6C109.505 131.4 109.205 131.1 109.105 130.8C109.105 130.6 109.505 130.4 109.705 130.1C110.005 129.7 110.605 129.3 110.605 128.8C110.705 125.4 110.605 122 110.605 118.5C110.605 117.5 110.305 117 109.205 117.3C108.005 117.6 106.705 117.7 106.105 116.3C105.805 115.6 105.905 114.5 106.305 114C107.105 112.8 108.305 112.9 109.505 113.5C109.705 113.6 110.005 113.6 110.405 113.6C110.405 101.8 110.405 90.1 110.405 78.4C110.205 78.3 110.105 78.2 109.905 78.1C109.405 78.7 109.005 79.4 108.505 79.9C108.205 80.2 107.705 80.3 107.405 80.5C107.305 80.1 107.005 79.5 107.105 79.4C108.005 78.6 107.405 77.8 107.205 77.1C106.805 76 107.105 74.9 108.105 74.5C109.105 74 109.105 73.2 109.605 72.5C111.505 69.4 110.205 66.1 110.605 62.9C110.605 62.8 110.605 62.7 110.605 62.6C110.305 61.5 109.305 59.9 109.705 59.4C110.505 58.3 110.605 57.3 110.605 56.1C110.605 55 110.405 53.9 110.305 52.3C109.005 52.3 107.505 52.4 106.005 52.3C105.505 52.3 104.905 51.8 104.705 51.3C104.605 51 105.105 50.3 105.405 50C105.705 49.8 106.305 49.9 106.705 49.9C107.005 47.9 107.005 47.9 108.805 49C109.205 49.2 109.705 49.3 110.405 49.5C110.505 48.8 110.505 48.2 110.505 47.7C110.505 42.8 110.505 37.8 110.505 32.9C110.505 31.8 110.605 30.8 110.505 29.7C110.405 29.1 109.905 28.5 109.505 28C109.105 27.4 108.305 26.9 108.305 26.4C108.305 25.9 109.205 25.4 109.705 24.9C110.005 24.6 110.505 24.2 110.505 23.9C110.505 17.3 110.505 10.7 110.505 4.1C110.505 3.9 110.305 3.7 110.405 3.9C109.905 4.6 109.305 5.4 108.605 6C108.505 6.1 107.305 5.4 107.405 5.2C107.505 4.4 107.905 3.7 108.405 2.5C107.405 1 108.205 -0.399998 110.105 -1.6C110.405 -1.8 110.505 -2.5 110.505 -3C110.505 -9.7 110.505 -16.3 110.505 -23C110.505 -26.8 110.505 -30.6 110.505 -34.3C110.505 -35.5 110.005 -36.1 108.905 -36.6C108.105 -36.9 107.605 -37.8 107.005 -38.5C107.705 -39 108.205 -39.7 109.005 -39.9C110.005 -40.2 110.505 -40.7 110.505 -41.8C110.405 -45.3 110.405 -48.6 110.405 -52C110.905 -52 111.305 -52 111.805 -52ZM106.905 234.8C107.205 233.4 106.405 232.9 105.205 233C104.305 233.1 103.105 232.5 103.005 234.1C102.905 235.5 103.605 236.2 104.705 236.5C104.805 235.6 104.805 234.9 104.805 234.1C105.505 234.3 106.205 234.6 106.905 234.8C107.605 236.3 106.305 236.7 105.405 237C104.105 237.4 102.405 236.2 102.405 234.8C102.405 232.7 101.205 232.9 99.9049 233.2C99.6049 236.6 100.205 237.8 104.405 239.3C106.805 240.1 110.405 236.7 109.705 234.3C109.605 233.8 109.005 233.3 108.505 233.2C108.105 233.2 107.705 233.8 107.305 234.2C107.105 234.3 107.005 234.6 106.905 234.8ZM90.3049 262.7C90.3049 262.2 90.2049 261.7 90.2049 261.3C89.4049 261.4 88.7049 261.4 88.1049 261.5C88.1049 260.8 88.1049 260.1 88.1049 258.8C87.4049 259.6 86.6049 260 86.4049 260.7C86.2049 261.3 86.4049 262.4 86.9049 262.8C87.4049 263.2 88.4049 263.2 89.2049 263.1C89.5049 263.2 89.9049 262.8 90.3049 262.7C89.1049 264.8 87.3049 263.9 85.4049 263.2C85.6049 265.8 85.1049 268.3 86.0049 270.8C86.7049 269.9 87.0049 269 87.5049 268.2C87.8049 267.7 88.3049 267.1 88.7049 267C91.4049 266.6 92.9049 263.5 93.1049 261.4C93.3049 259.3 91.5049 258 89.9049 256.9C88.5049 255.9 87.0049 256.5 86.0049 257.3C85.4049 257.8 85.4049 259.1 85.2049 260.1C85.3049 260.2 85.5049 260.2 85.6049 260.3C86.9049 259.2 88.3049 258.3 89.8049 259.6C91.0049 260.4 91.1049 261.5 90.3049 262.7ZM100.105 252.9C100.905 250.8 100.905 250.3 99.8049 249.4C99.2049 251 99.3049 251.9 100.105 252.9C99.9049 253.7 99.6049 254.5 99.2049 255.5C102.305 255.1 103.505 254.1 104.105 251.6C104.205 251.2 104.705 250.5 105.005 250.5C107.105 250.3 108.105 248.8 109.005 247.1C110.505 244.1 109.605 241.6 106.505 240.1C104.805 239.3 100.505 240.8 99.9049 242.8C99.4049 244.4 99.6049 246.3 99.5049 248C99.5049 248.2 99.9049 248.5 100.105 248.7C101.605 250 101.605 251.4 100.105 252.9ZM100.205 259.9C101.505 260.7 101.505 262.1 100.705 262.8C98.9049 264.4 99.6049 266.1 99.6049 267.9C99.5049 270 100.705 270.8 102.205 271.6C102.905 272 103.605 272.2 104.805 272.7C103.505 273.2 102.605 273.3 102.005 273.7C101.105 274.4 100.005 275.3 99.6049 276.3C99.2049 277.5 99.4049 278.9 99.4049 280.2C99.4049 280.6 99.4049 281.2 99.6049 281.3C101.405 282.4 101.205 284 100.605 286.2C101.905 285.8 103.605 285.7 103.605 285.3C103.805 283.5 104.805 283.2 106.205 283.1C106.505 283.1 106.905 282.8 107.205 282.5C109.505 280.3 111.205 275.9 106.805 273.3C106.505 273.1 106.205 272.9 105.705 272.6C105.905 272.4 106.105 272.2 106.305 272.1C108.005 270.9 109.905 269.7 109.505 267.3C109.105 264.7 108.105 262.4 105.105 261.7C104.605 261.6 103.905 261 103.905 260.6C103.805 257.7 101.605 257.3 99.7049 256.6C99.5049 256.7 99.3049 256.8 99.1049 256.9C99.6049 258 99.9049 259 100.205 259.9C100.005 260.1 99.5049 260.2 99.5049 260.4C99.4049 261.3 99.5049 262.1 99.5049 263.2C101.005 262.2 101.005 261.7 100.205 259.9ZM114.205 272.8C113.605 273.2 113.105 273.5 112.605 273.8C111.205 274.9 109.705 276.2 110.305 278.2C111.005 280.6 111.505 283.3 115.005 283.4C115.405 283.4 115.905 283.9 116.005 284.3C116.605 286.2 117.205 286.5 119.205 285.9C118.705 282.8 118.905 282.4 120.805 282C119.405 282.7 119.105 283.8 119.605 285.1C119.805 285.6 120.505 285.9 121.005 286.3C121.205 286.2 121.305 286.2 121.505 286.1C120.705 284.3 121.505 283.8 123.105 283.9C123.105 282.5 123.205 281.2 123.105 280C123.105 279.5 122.605 279 122.305 278.5C121.805 278 120.905 277.6 120.805 277C120.405 275.1 119.205 274.2 117.505 273.7C116.905 273.5 116.405 273.2 115.605 272.9C116.305 272.6 116.605 272.3 117.005 272.3C119.105 271.8 120.405 270.6 120.905 268.5C121.005 268 121.305 267.4 121.705 267.3C123.605 266.8 123.405 265.5 123.205 264.1C120.105 264.2 119.305 263.9 119.205 262.2C119.105 261.6 119.205 260.6 119.605 260.3C120.705 259.6 121.905 259.3 123.205 258.7C123.405 256.3 122.905 255.9 120.505 256.9C120.005 257.1 119.405 257.3 118.905 257.5C117.305 258.1 116.305 259.2 116.205 261.1C116.205 261.5 115.605 262 115.205 262.3C114.305 262.8 113.005 262.9 112.305 263.6C109.505 266.2 109.805 269.6 112.905 272C113.005 272 113.505 272.3 114.205 272.8ZM125.105 247.5C124.205 248.4 124.005 252.6 124.905 254.2C125.505 253.4 126.105 252.6 126.605 251.9C126.305 252.2 126.105 252.5 125.805 252.7C127.205 254.1 128.705 255.5 130.105 256.8C130.005 256.2 130.005 255.7 129.905 255.1C128.505 256.6 127.105 258.1 125.805 259.6C126.005 259.8 126.305 260 126.505 260.2C125.905 259.5 125.405 258.7 124.605 257.7C124.605 260.4 124.605 262.7 124.605 264.9C124.805 264.9 124.905 264.9 125.105 265C125.505 263.8 126.005 262.7 126.405 261.6C127.405 263 128.005 264.5 129.105 265.4C130.905 266.8 133.005 267.9 133.405 270.4C133.405 270.5 133.505 270.5 133.505 270.5C134.405 270.9 135.205 271.4 136.105 271.8C136.105 270.9 136.105 270 136.105 269C136.005 268.1 135.705 267.2 135.805 266.4C135.905 264.2 136.305 262.1 136.405 259.9C136.505 258.6 135.805 257.5 134.405 257.1C133.605 256.9 132.905 256.5 131.805 256C133.005 255.6 133.905 255.3 134.605 255C135.105 254.8 136.005 254.4 136.005 254C136.105 251.5 136.105 249 136.105 246.6C136.105 245.5 136.005 244.3 136.105 243.2C136.105 242.3 136.305 241.4 136.505 240.4C133.905 240.5 132.805 241.9 132.305 245.4C129.305 245.9 127.205 247.4 127.005 250.9C126.905 250.8 126.705 250.8 126.605 250.7C126.105 249.7 125.605 248.6 125.105 247.5ZM117.205 256.1C116.405 254.8 115.605 253.4 114.805 252C114.705 251.8 114.505 251.5 114.305 251.4C112.805 250.5 111.305 249.7 109.905 248.8C106.705 250.4 104.205 252.9 102.705 256C103.505 257.5 104.305 258.9 105.105 260.3C105.205 260.5 105.405 260.8 105.605 260.9C107.105 261.8 108.605 262.6 109.905 263.3C111.205 262.5 112.605 261.7 114.005 260.9C114.205 260.8 114.505 260.6 114.605 260.4C115.605 259 116.505 257.5 117.205 256.1ZM122.905 245.3C120.905 245.9 120.905 244.5 120.505 243.5C119.605 241 115.605 239.2 113.505 240.2C111.405 241.2 110.005 243.3 110.205 244.8C110.705 247.9 112.405 249.9 115.005 250.5C115.405 250.6 115.905 251 116.005 251.4C116.305 254.6 118.805 255.3 121.205 256C121.705 256.1 122.905 255.7 122.905 255.4C123.005 254.7 122.705 253.8 122.405 253.1C122.105 252.4 121.605 251.9 121.105 251.3C121.705 251 122.205 250.8 122.905 250.4C123.205 249.3 122.405 248.8 121.505 248.8C120.805 248.8 120.005 249.3 119.605 249.8C119.205 250.3 119.405 251.2 119.305 252C118.205 249.4 119.205 248.5 122.905 248.4C122.905 247.5 122.905 246.5 122.905 245.3ZM93.5049 280C94.8049 279.2 96.2049 278.5 97.4049 277.6C97.7049 277.4 98.0049 276.8 98.1049 276.4C98.2049 274 98.1049 271.5 98.1049 269.1C98.1049 268.7 97.9049 268.2 97.7049 268.1C96.2049 267.2 94.7049 266.3 93.5049 265.6C92.1049 266.4 90.6049 267.2 89.3049 268C89.0049 268.2 88.8049 268.4 88.6049 268.7C87.8049 270.1 87.0049 271.5 86.3049 272.8C87.0049 274.1 87.8049 275.5 88.7049 276.9C88.9049 277.2 89.1049 277.4 89.4049 277.6C90.7049 278.4 92.1049 279.2 93.5049 280ZM93.7049 246.9C94.2049 246.5 94.8049 245.5 95.5049 245.4C98.4049 244.7 98.3049 242.7 98.1049 240.4C98.0049 239.8 98.0049 239.3 98.1049 238.7C98.3049 236.4 98.1049 234.6 95.4049 233.7C93.8049 233.2 89.6049 233.9 88.7049 235.4C87.9049 236.8 87.0049 238.3 86.3049 239.6C87.0049 240.9 87.8049 242.3 88.6049 243.7C88.8049 244 89.0049 244.2 89.3049 244.4C90.7049 245.2 92.1049 246 93.7049 246.9ZM134.005 272.6C133.405 271.9 132.705 271.1 132.105 270.2C131.705 269.6 131.605 268.6 131.105 268.3C129.605 267.3 127.905 266.4 126.305 265.5C124.705 266.5 124.105 268 124.305 269.9C124.505 272 124.505 274.1 124.305 276.2C124.105 278.2 125.105 279.3 126.305 280.1C128.005 279.2 129.405 278.3 130.905 277.5C131.105 277.4 131.305 277.1 131.505 276.9C132.305 275.5 133.105 274.1 134.005 272.6ZM134.005 239.3C132.005 237.7 131.605 234.2 128.305 233.6C128.205 233.6 128.205 233.5 128.205 233.5C127.305 233.4 126.305 233 125.505 233.3C125.005 233.5 124.605 234.6 124.505 235.4C124.405 237.9 124.605 240.4 124.305 242.9C124.105 244.9 125.105 246 126.305 246.8C127.905 245.9 129.305 245.1 130.705 244.3C131.005 244.1 131.205 243.9 131.405 243.6C132.305 242.3 133.105 240.9 134.005 239.3ZM136.305 273.6C133.705 273.9 132.905 275 132.205 278.6C128.605 278.4 128.005 281.5 126.605 284.1C126.005 282.7 125.605 281.6 125.205 280.4C125.005 280.4 124.805 280.4 124.605 280.4C124.505 281.6 124.405 282.9 124.505 284.1C124.505 284.7 124.805 285.3 125.005 285.9C125.605 285.7 126.205 285.5 126.405 285.4C127.705 285.6 128.605 285.8 129.705 286C129.605 285.4 129.605 285.1 129.505 284.8C129.505 284.5 129.405 284.2 129.305 283.6C129.605 284 129.705 284.2 129.805 284.3C129.905 284.4 130.005 284.4 130.105 284.3C132.405 283.5 132.405 283.5 132.105 285.7C133.105 285.8 134.205 285.9 135.205 286C136.305 286.1 136.405 285.5 136.505 284.6C136.805 281.2 135.005 277.7 136.505 274.3C136.505 274.2 136.305 274 136.305 273.6ZM97.8049 231.4C97.8049 231.2 97.8049 231 97.8049 230.8C97.3049 230.8 96.7049 230.7 96.2049 230.7C92.7049 230.7 89.1049 230.8 85.6049 230.7C83.9049 230.6 83.4049 231.1 83.4049 232.9C83.5049 243 83.4049 253.1 83.4049 263.2C83.4049 271.1 83.4049 278.9 83.4049 286.8C83.4049 287.7 83.3049 288.6 84.7049 288.6C88.7049 288.5 92.7049 288.6 96.7049 288.6C97.2049 288.6 97.6049 288.4 98.1049 288.2C98.1049 288 98.1049 287.8 98.0049 287.6C93.5049 287.6 88.9049 287.6 84.3049 287.6C84.3049 285.6 84.3049 283.9 84.3049 282.2C84.3049 266 84.2049 249.8 84.1049 233.7C84.1049 232 84.7049 231.6 86.3049 231.6C89.6049 231.7 92.9049 231.6 96.2049 231.6C96.7049 231.5 97.2049 231.4 97.8049 231.4ZM124.505 287.5C124.505 287.7 124.505 288 124.405 288.2C125.005 288.3 125.505 288.4 126.105 288.5C129.505 288.5 132.905 288.4 136.305 288.6C138.105 288.7 138.505 288.1 138.505 286.4C138.405 268.5 138.505 250.5 138.505 232.6C138.505 232 138.405 231.4 138.405 230.9C133.705 230.9 129.205 230.9 124.705 230.9C124.705 231.1 124.705 231.2 124.705 231.4C125.205 231.5 125.705 231.6 126.205 231.6C129.305 231.7 132.505 231.8 135.605 231.7C137.205 231.7 137.605 232.2 137.605 233.7C137.605 249.7 137.605 265.7 137.605 281.7C137.605 283.6 137.605 285.4 137.605 287.5C133.105 287.5 128.805 287.5 124.505 287.5ZM85.5049 252.1C85.4049 255.1 86.9049 256.5 89.3049 255.9C91.1049 255.4 93.405 252.7 93.3049 251.2C93.1049 248.4 91.1049 245.9 88.8049 245.4C88.3049 245.3 87.9049 244.8 87.6049 244.3C87.1049 243.4 86.7049 242.3 86.3049 241.4C86.1049 241.4 85.9049 241.5 85.7049 241.5C85.7049 244.1 85.7049 246.6 85.7049 249C86.7049 248.8 87.8049 248.6 88.8049 248.4C88.8049 248.5 88.9049 248.7 88.9049 248.8C86.4049 248.8 85.8049 249.7 86.5049 252.4C86.2049 252.4 85.9049 252.2 85.5049 252.1ZM108.605 182.5C109.105 184.8 109.505 187.1 110.105 189.2C110.205 189.6 110.805 190.1 111.105 190.1C111.505 190.1 112.005 189.6 112.205 189.2C112.605 188 113.005 186.7 113.205 185.4C113.705 182.1 113.505 178.9 112.105 175.9C111.905 175.5 111.405 175.2 111.105 174.8C110.805 175.1 110.205 175.4 110.105 175.9C109.505 178.1 109.005 180.3 108.605 182.5ZM86.4049 274.4C86.2049 274.5 86.0049 274.6 85.8049 274.7C85.8049 277.3 85.8049 279.9 85.8049 282.4C86.2049 282.2 86.8049 282 87.3049 281.7C86.3049 282.7 85.8049 283.7 86.5049 285C86.8049 285.5 87.4049 285.8 87.7049 286C88.1049 285 88.3049 284.4 88.6049 283.8C89.4049 284.4 90.2049 285 91.1049 285.6C91.0049 285.7 90.905 285.9 90.8049 286C92.0049 286.1 93.6049 286.3 93.3049 284.5C93.1049 282.9 92.5049 280.9 91.3049 279.9C89.3049 278.4 86.7049 277.6 86.4049 274.4ZM112.505 233.2C111.205 232.9 110.405 233.1 110.205 234.5C109.905 236.7 113.505 239.7 115.705 239.3C119.105 238.6 120.305 236.2 121.105 233.2C120.005 233.2 119.005 233.2 118.005 233.2C117.705 236 116.905 237.1 115.205 237C113.405 237 112.705 236.1 112.505 233.2ZM98.4049 255.9C98.0049 254.7 97.9049 253.6 97.4049 253.2C96.1049 252.3 96.6049 251.7 97.3049 251C97.905 250.3 98.5049 246.6 97.905 246.1C97.6049 245.8 96.7049 245.8 96.5049 246C95.6049 247.1 94.7049 248.3 94.1049 249.6C93.0049 252.2 94.8049 255.1 98.4049 255.9ZM98.4049 256.6C96.3049 256.8 94.405 258.4 93.8049 260.2C93.405 261.5 94.6049 265 95.9049 265.9C96.4049 266.3 97.2049 266.3 97.8049 266.5C97.905 265.7 98.0049 265 98.0049 264.2C98.0049 263.9 97.5049 263.6 97.2049 263.2C98.6049 262.7 98.3049 262.1 97.4049 261.4C96.6049 260.7 96.2049 260 97.3049 259.1C97.905 258.7 98.0049 257.6 98.4049 256.6ZM99.6049 287.5C99.6049 287.7 99.5049 287.9 99.5049 288.1C100.005 288.2 100.505 288.5 101.005 288.5C102.905 288.5 104.905 288.5 106.805 288.5C111.605 288.5 116.505 288.5 121.305 288.5C121.905 288.5 122.405 288.3 123.005 288.1C123.005 287.9 122.905 287.7 122.905 287.5C115.205 287.5 107.405 287.5 99.6049 287.5ZM109.705 281.9C109.005 283.9 106.105 283.6 104.805 286.1C108.205 286.1 111.105 286.1 114.105 286.1C114.405 286.1 114.605 285.8 114.905 285.6C114.705 285.3 114.505 284.8 114.205 284.6C112.805 283.7 111.405 282.9 109.705 281.9ZM122.805 231.2C122.805 231.1 122.805 230.9 122.805 230.8C115.105 230.8 107.505 230.8 99.8049 230.8C99.8049 230.9 99.8049 231.1 99.8049 231.2C107.505 231.2 115.105 231.2 122.805 231.2ZM122.905 268.1C122.805 268 122.605 268 122.505 267.9C121.405 269.6 120.305 271.2 119.305 272.8C120.405 274.5 121.505 276.2 122.505 277.8C122.605 277.7 122.805 277.6 122.905 277.6C122.905 274.4 122.905 271.2 122.905 268.1ZM122.805 234.8C122.705 234.8 122.605 234.8 122.505 234.7C121.405 236.3 120.305 238 119.305 239.5C120.405 241.2 121.505 242.9 122.505 244.5C122.605 244.4 122.705 244.3 122.805 244.3C122.805 241.2 122.805 238 122.805 234.8ZM96.7049 282.9C96.7049 282.8 96.6049 282.8 96.6049 282.7C97.0049 282.4 97.6049 282.1 97.7049 281.7C97.9049 281 97.905 280.2 97.905 279.5C97.3049 279.5 96.6049 279.4 96.2049 279.6C95.0049 280.2 93.4049 283.5 93.7049 284.8C93.8049 285.3 94.405 285.9 94.8049 286C95.3049 286.1 96.0049 285.8 96.5049 285.4C97.0049 285 97.4049 284.4 97.7049 283.8C97.9049 283.4 98.0049 283 98.3049 282.2C97.4049 282.6 97.0049 282.7 96.7049 282.9ZM135.405 232.9C133.905 233 132.405 233.1 131.205 233.1C131.705 233.9 132.205 234.5 132.505 235.2C133.205 237.2 134.405 238.4 136.605 238.6C136.205 236.7 135.805 234.9 135.405 232.9ZM126.505 258.6C127.405 257.7 128.605 256.9 128.505 256.3C128.405 255.5 127.405 254.4 126.605 254.3C126.105 254.2 124.705 255.4 124.705 256C124.705 256.8 125.705 257.6 126.505 258.6ZM91.3049 255.8C91.3049 256 91.3049 256.3 91.3049 256.5C92.1049 257 92.9049 258 93.7049 258C94.3049 258 95.4049 256.9 95.4049 256.2C95.4049 255.6 94.3049 254.3 93.8049 254.3C92.905 254.4 92.1049 255.3 91.3049 255.8ZM112.405 272.8C111.505 272 110.805 270.9 110.105 270.9C109.405 270.9 108.305 272 108.205 272.7C108.205 273.4 109.305 274.5 109.905 274.6C110.605 274.6 111.405 273.6 112.405 272.8ZM121.705 259.3C120.105 259.2 119.505 260 119.405 261.4C119.305 262.7 120.105 263.3 121.205 263.4C122.305 263.5 122.805 262.9 122.805 261.7C120.805 261.6 120.705 261.3 121.705 259.3ZM110.005 241.8C110.805 241 111.505 240.4 112.005 239.9C110.305 237.3 109.705 237.3 108.005 239.7C108.605 240.3 109.205 240.9 110.005 241.8ZM113.205 233.9C114.205 234.1 115.105 234 115.405 234.4C115.705 234.8 115.405 235.7 115.305 236.5C116.605 236.2 117.205 235.4 117.005 234.2C116.905 233.8 116.405 233.2 116.005 233.2C115.105 233.1 113.805 232.5 113.205 233.9ZM86.3049 237C86.8049 235.8 87.3049 234.5 87.9049 233.2C85.4049 232.9 84.9049 234 86.3049 237ZM99.6049 282.2C99.6049 283.6 99.6049 284.6 99.6049 285.8C101.005 284.8 101.105 283.7 99.6049 282.2Z" fill="white" fill-opacity="0.3"/>
<path d="M31.9068 -10.9C31.8068 -10.6 31.9068 -10.2 31.7068 -10.1C30.6068 -9.2 30.4068 -8.2 31.1068 -7C31.2068 -6.8 31.1068 -6.2 30.9068 -6C29.1068 -4.4 29.7068 -2.3 29.7068 -0.4C29.7068 9.3 29.7068 19.1 29.7068 28.8C29.7068 29.9 29.7068 30.8 31.1068 31.1C31.5068 31.2 32.0068 32.2 32.0068 32.7C32.0068 33.2 31.3068 34 30.8068 34.1C29.8068 34.3 29.7068 34.9 29.8068 35.7C29.8068 38.9 29.8068 42.1 29.8068 45.3C29.8068 58.5 29.8068 71.8 29.8068 85C29.8068 88 29.8068 90.9 29.8068 93.9C29.8068 94.4 29.9068 95 30.2068 95.3C32.5068 97.4 33.0068 100.2 33.1068 103.1C33.3068 106.6 33.1068 110 31.4068 113.2C30.9068 114.1 30.8068 115.1 30.4068 116.1C32.7068 118.4 32.7068 118.7 31.2068 121.6C30.9068 122.2 31.5068 123.4 32.0068 124C34.5068 126.8 37.8068 128.5 41.1068 130.1C44.6068 131.8 48.0068 133.6 51.1068 135.9C56.5068 140.1 58.2068 146.1 58.2068 152.8C58.2068 170.9 58.2068 189.1 58.1068 207.2C58.1068 210.8 57.9068 214.4 57.2068 217.9C55.9068 224 51.6068 227.9 46.4068 230.9C44.4068 232.1 42.2068 233 40.1068 233.9C35.3068 236.1 31.3068 239.1 29.2068 244.1C28.0068 242.4 27.2068 240.6 25.8068 239.3C23.7068 237.4 21.3068 235.6 18.8068 234.3C14.6068 232.2 10.3068 230.5 6.70682 227.3C2.10682 223.1 0.106821 217.9 0.106821 211.8C0.106821 200.9 0.106821 189.9 0.106821 179C0.106821 170.3 0.206823 161.6 0.00682289 152.8C-0.193177 143.3 4.00682 136.7 12.2068 132.3C15.5068 130.6 18.9068 129.1 22.1068 127.2C24.0068 126.1 25.5068 124.4 27.1068 122.8C27.4068 122.5 27.6068 121.7 27.4068 121.3C26.0068 118.1 25.9068 118 28.4068 115.7C25.8068 110.8 24.7068 105.6 26.0068 100.1C26.4068 98.4 27.6068 96.8 28.3068 95.1C28.7068 94.3 28.8068 93.3 28.9068 92.4C28.9068 82.7 28.9068 72.9 28.9068 63.2C28.9068 54.3 28.9068 45.3 28.9068 36.4C28.9068 35.3 28.6068 34.8 27.5068 34.3C26.8068 34 25.9068 32.8 25.9068 32.1C25.9068 31.3 26.8068 30.2 27.6068 30C28.7068 29.6 28.8068 29.1 28.8068 28.1C28.8068 21.3 28.8068 14.4 28.7068 7.6C28.7068 6.9 28.2068 6.2 27.9068 5.4C29.7068 3.1 28.1068 0.3 28.8068 -2.4C27.3068 -2.6 26.1068 -2.9 27.5068 -4.5C27.7068 -4.7 27.4068 -5.4 27.2068 -5.9C26.7068 -7 27.0068 -7.9 27.8068 -8.8C28.3068 -9.4 28.5068 -10.3 28.9068 -11C29.8068 -10.9 30.8068 -10.9 31.9068 -10.9ZM23.0068 158.8C22.9068 158.5 22.8068 158.3 22.8068 158C22.8068 157.5 22.6068 156.9 22.8068 156.6C23.0068 156.3 23.7068 156.4 24.1068 156.4C24.3068 156.4 24.6068 156.5 24.9068 156.5C24.4068 155.1 24.4068 155 23.0068 155.1C22.3068 155.2 21.2068 155.6 21.2068 156C21.1068 156.7 21.5068 157.5 21.9068 158.2C22.0068 158.6 22.6068 158.6 23.0068 158.8C21.4068 159.3 20.5068 158.6 20.3068 156.5C20.2068 155.2 19.5068 155.2 18.6068 155.3C17.5068 155.4 17.8068 156.1 17.8068 156.8C17.8068 158.9 19.1068 160 20.7068 160.9C21.4068 161.3 22.1068 161.5 22.8068 161.9C22.6068 162.1 22.6068 162.2 22.5068 162.3C22.3068 162.4 22.1068 162.5 21.9068 162.5C18.7068 163 17.5068 165 17.6068 168.1C17.6068 168.5 17.5068 168.9 17.6068 169.3C17.8068 170 18.0068 170.7 18.5068 171.3C19.4068 172.3 19.5068 172.8 19.0068 174.1C18.8068 173.4 18.6068 172.6 18.3068 171.8C18.2068 171.8 18.0068 171.9 17.9068 171.9C17.9068 173.9 17.9068 175.9 17.9068 178C20.9068 177.4 21.7068 176.6 22.3068 173.8C22.4068 173.4 23.0068 173 23.4068 172.8C26.2068 172 27.7068 170.3 27.9068 167.3C28.1068 164.9 26.4068 163.6 24.6068 162.5C24.4068 162.4 24.2068 162.2 23.9068 162C24.6068 161.6 25.2068 161.3 25.5068 160.8C26.3068 159.7 27.4068 158.6 27.8068 157.3C28.3068 155.7 27.4068 155.1 25.7068 155.5C25.0068 158.9 24.9068 159.1 23.0068 158.8ZM39.1068 175.6C39.3068 175.4 39.7068 175 39.7068 174.9C38.1068 172.8 39.8068 173 41.3068 172.9C41.1068 172.2 40.9068 171.6 40.8068 171.1C41.6068 169.2 41.4068 168.4 39.8068 167.6C39.4068 167.4 38.9068 166.9 38.8068 166.5C38.4068 164.2 36.9068 163.1 34.9068 162.6C34.4068 162.5 33.9068 162.2 33.4068 162C33.3068 161.9 33.3068 161.7 33.2068 161.6C37.4068 161.5 38.3068 158.2 39.6068 155.5C38.5068 155.5 37.3068 155.5 36.1068 155.5C35.7068 158.2 35.2068 159.2 33.9068 159.2C33.1068 159.2 32.1068 159.2 31.7068 158.7C31.2068 158 31.2068 156.9 30.9068 156.1C30.8068 155.8 30.3068 155.3 30.0068 155.4C29.5068 155.5 28.7068 155.9 28.7068 156.2C28.7068 157.2 28.7068 158.3 29.2068 159.1C29.9068 160.4 30.9068 161.4 31.8068 162.6C31.8068 162.5 31.4068 162.8 31.0068 163.1C29.6068 164.1 28.1068 165.4 28.4068 167.2C28.8068 169.5 29.5068 172 32.4068 172.6C33.6068 172.9 34.5068 173.3 34.3068 174.8C34.2068 175.3 34.8068 176 35.2068 176.3C36.3068 177 37.4068 177.7 38.6068 178.1C39.3068 178.4 40.4068 178.4 40.9068 178C41.3068 177.7 41.2068 176.6 41.3068 175.7C40.3068 175.6 39.7068 175.6 39.1068 175.6ZM28.2068 189.5C27.3068 186.4 25.6068 184.2 22.2068 184C22.4068 181.2 21.1068 179.8 17.2068 179C17.7068 180.1 17.8068 181.1 18.4068 181.8C19.3068 182.9 19.8068 184.3 18.7068 185.2C17.1068 186.6 17.4068 188.2 17.6068 189.9C17.7068 191 17.9068 192.3 18.6068 193C21.5068 195.9 25.5068 195.3 27.5068 191.7C27.7068 191.4 27.8068 191.1 27.9068 190.8C28.1068 190.9 28.2068 191 28.3068 191C29.3068 193 30.6068 194.8 33.1068 194.7C36.0068 194.5 38.3068 193.1 38.9068 189.9C39.0068 189.6 39.3068 189.1 39.6068 189.1C41.6068 188.7 41.0068 187.3 41.0068 186C39.5068 186 37.8068 186.7 37.1068 184.8C36.6068 183.5 37.0068 182.4 37.9068 181.7C37.9068 182.8 37.7068 183.9 38.0068 185C38.1068 185.3 39.5068 185.5 40.3068 185.4C40.7068 185.4 41.0068 184.6 41.2068 184.2C40.3068 183.9 39.7068 183.7 39.1068 183.5C39.4068 182.9 39.7068 182.4 40.0068 181.9C40.1068 181.7 40.6068 181.6 40.7068 181.4C40.9068 180.8 41.1068 180.1 41.0068 179.5C41.0068 179.2 40.4068 178.7 40.0068 178.6C37.9068 178.1 34.3068 180.5 34.0068 182.7C33.8068 183.9 33.2068 184.4 32.2068 184.6C30.4068 184.9 29.5068 186.1 28.9068 187.6C28.6068 188.3 28.4068 188.9 28.2068 189.5ZM15.8068 178.7C13.5068 179.2 12.6068 181.1 11.6068 182.5C10.2068 181 8.80682 179.6 7.40682 178.2C7.60682 178.5 7.80682 178.8 8.00682 179.1C9.40682 177.7 10.7068 176.2 12.0068 174.9C12.6068 175.9 13.7068 177.6 15.9068 178.1C16.4068 176.2 16.4068 176.3 15.2068 175.2C14.9068 174.9 14.6068 174.2 14.7068 174.1C15.8068 173.2 16.1068 171.9 16.0068 170.6C16.0068 169.7 15.8068 168.9 15.8068 168C15.0068 168.3 14.1068 168.6 13.5068 169.1C13.0068 169.5 12.8068 170.2 12.5068 170.8C12.2068 171.4 12.0068 172.1 11.6068 173.1C11.2068 172.2 10.9068 171.6 10.6068 171.1C10.1068 170.2 9.70682 168.7 9.00682 168.6C6.30682 168 5.40682 166 4.30682 164C4.30682 163.9 4.10682 164 3.70682 163.9C3.70682 166.5 3.70682 169 3.70682 171.3C4.80682 171.1 5.90682 170.9 7.10682 170.6C7.10682 170.8 7.20682 170.9 7.20682 171.1C4.20682 171.1 3.50682 172.1 4.70682 174.8C4.30682 174.7 4.00682 174.5 3.60682 174.4C3.10682 176.5 3.70682 177.9 6.50682 178.2C5.30682 178.7 4.80682 178.9 4.30682 179.2C3.50682 179.6 3.10682 182 3.80682 182.3C4.20682 182.1 4.50682 181.8 4.50682 181.8C4.50682 182.7 4.20682 183.8 4.60682 184.7C4.80682 185.2 6.20682 185.5 6.90682 185.3C7.50682 185.1 8.00682 184.2 8.50682 183.6C8.40682 183.5 8.20682 183.3 8.10682 183.2C7.80682 183.4 7.50682 183.7 7.20682 183.8C6.90682 183.9 6.40682 183.9 6.30682 183.7C6.10682 183.4 5.90682 182.9 6.00682 182.7C6.30682 182.2 6.80682 181.7 7.40682 181.6C7.70682 181.5 8.40682 182.1 8.60682 182.5C9.40682 184.2 8.40682 186 6.50682 186C5.60682 186 4.70682 185.7 3.60682 185.5C3.80682 188 3.20682 190.5 4.30682 193C5.00682 192.1 5.30682 191.1 5.80682 190.1C6.00682 189.6 6.40682 189 6.80682 188.9C9.20682 188.8 10.2068 187.3 10.8068 185.3C11.0068 184.8 11.3068 184.3 11.6068 183.5C12.0068 184.5 12.3068 185.1 12.6068 185.8C13.1068 186.7 13.6068 187.6 14.3068 188.3C14.6068 188.6 15.4068 188.7 15.8068 188.5C16.1068 188.4 16.3068 187.6 16.2068 187.2C15.9068 186.3 15.4068 185.5 15.1068 184.9C15.3068 184.9 15.7068 185 16.2068 185C16.0068 184.5 15.9068 184 15.6068 183.6C15.3068 183.2 14.9068 182.8 14.5068 182.3C15.4068 181.5 17.0068 180.7 15.8068 178.7ZM49.7068 178.4C50.8068 178 51.6068 177.6 52.4068 177.4C53.7068 177.1 54.4068 176.4 54.4068 175.1C54.3068 172.8 54.9068 170.4 53.8068 168.1C53.5068 167.5 53.9068 166.5 54.0068 165.7C54.2068 164.7 54.4068 163.8 54.6068 162.8C52.3068 162.9 50.9068 164 50.6068 166.3C50.4068 167.5 50.0068 168 48.9068 168.2C46.0068 168.6 45.4068 171 44.9068 173.2C44.5068 175.1 46.0068 176.2 47.2068 177.3C47.7068 177.7 48.3068 178.1 48.8068 178.4C48.6068 178.2 48.4068 178.1 48.2068 177.9C46.8068 179.3 45.4068 180.7 44.0068 182.1C44.2068 182.3 44.4068 182.5 44.6068 182.7C44.1068 181.9 43.5068 181.2 42.8068 180.1C42.1068 182.8 42.3068 186.4 43.2068 187.3C43.6068 186.2 44.1068 185 44.6068 183.7C44.9068 184.3 45.1068 184.6 45.3068 184.9C46.1068 187 47.0068 188.9 49.7068 189C50.0068 189 50.4068 189.8 50.5068 190.2C51.0068 192.7 52.0068 193.8 54.5068 194.1C54.4068 193.1 54.6068 192 54.2068 191.3C53.1068 189.6 53.5068 187.8 54.1068 186.2C55.5068 182.2 54.6068 180.1 50.7068 178.7C50.5068 178.8 50.3068 178.7 49.7068 178.4ZM28.1068 171.2C26.8068 172 25.4068 172.7 24.0068 173.6C23.8068 173.7 23.5068 173.9 23.4068 174.1C22.6068 175.6 21.7068 177.1 21.0068 178.5C21.8068 179.9 22.6068 181.3 23.4068 182.8C23.5068 183 23.6068 183.2 23.8068 183.3C25.3068 184.1 26.8068 184.9 28.2068 185.7C29.5068 184.9 31.0068 184.1 32.4068 183.3C32.6068 183.2 32.8068 183 32.9068 182.8C33.8068 181.3 34.6068 179.8 35.4068 178.4C34.6068 177.1 33.8068 175.7 33.0068 174.3C32.8068 174 32.6068 173.8 32.3068 173.6C30.8068 172.8 29.4068 172 28.1068 171.2ZM11.5068 187.8C10.1068 188.6 8.60682 189.4 7.20682 190.2C7.00682 190.3 6.80682 190.6 6.70682 190.8C5.90682 192.2 5.10682 193.7 4.30682 195C5.10682 196.4 5.90682 197.9 6.70682 199.3C6.80682 199.5 7.00682 199.7 7.10682 199.8C8.60682 200.6 10.1068 201.5 11.5068 202.2C12.7068 201.5 14.1068 200.7 15.4068 199.9C15.8068 199.6 16.1068 199 16.1068 198.6C16.2068 196.2 16.2068 193.8 16.1068 191.4C16.1068 191 15.8068 190.4 15.5068 190.2C14.2068 189.3 12.8068 188.6 11.5068 187.8ZM11.8068 169.2C12.3068 168.8 12.8068 167.9 13.6068 167.7C16.5068 167 16.4068 165 16.2068 162.8C16.1068 162.2 16.1068 161.7 16.2068 161.1C16.4068 158.9 16.4068 156.9 13.6068 156.3C12.8068 156.1 11.9068 155.2 11.4068 155.4C9.80682 156 8.10682 156.7 6.90682 157.8C5.70682 158.9 5.10682 160.7 4.40682 162C5.20682 163.4 5.90682 164.7 6.70682 166.1C6.90682 166.4 7.00682 166.7 7.30682 166.8C8.60682 167.5 10.1068 168.3 11.8068 169.2ZM41.4068 204.2C41.0068 203 40.9068 201.4 40.3068 201.2C38.9068 200.7 38.7068 199.9 38.4068 198.8C37.8068 196.7 34.3068 194.8 32.2068 195.3C30.4068 195.8 28.2068 198.2 28.1068 199.7C28.0068 202.1 30.0068 204.9 32.0068 205.5C32.9068 205.8 33.8068 206.1 34.1068 207.3C34.2068 207.8 35.2068 208.3 35.8068 208.3C37.0068 208.5 38.3068 208.3 39.4068 208.3C39.3068 207.5 39.0068 206.8 39.2068 206.3C39.3068 206 40.2068 206.1 40.9068 205.9C41.3068 204.8 40.6068 204.2 39.6068 204.2C38.9068 204.2 38.1068 204.5 37.7068 205C37.3068 205.5 37.3068 206.4 37.1068 207.1C36.6068 204.4 37.3068 203.8 41.4068 204.2ZM44.4068 202.4C46.0068 201.5 47.4068 200.7 48.8068 199.9C49.0068 199.8 49.3068 199.6 49.4068 199.4C50.3068 197.9 51.2068 196.4 52.0068 195C51.2068 193.6 50.4068 192.3 49.6068 190.9C49.5068 190.7 49.3068 190.4 49.1068 190.3C47.6068 189.4 46.1068 188.6 44.4068 187.7C43.1068 188.5 42.3068 189.8 42.4068 191.7C42.6068 193.8 42.6068 195.9 42.4068 198C42.2068 200 42.8068 201.4 44.4068 202.4ZM51.9068 161.8C51.1068 160.4 50.2068 159 49.4068 157.6C49.3068 157.4 49.0068 157.2 48.8068 157.1C47.8068 156.5 46.7068 156 45.7068 155.4C44.2068 154.6 42.6068 155.6 42.6068 157.3C42.6068 160 42.6068 162.8 42.4068 165.5C42.3068 167.5 43.3068 168.5 44.4068 169.2C46.0068 168.3 47.3068 167.5 48.7068 166.7C48.9068 166.6 49.2068 166.4 49.4068 166.2C50.3068 164.7 51.1068 163.2 51.9068 161.8ZM22.4068 206.1C24.7068 205.7 26.6068 204.7 27.3068 202.2C28.2068 199.3 27.6068 197.4 25.0068 195.8C23.4068 194.9 20.0068 195.5 18.6068 197.1C18.2068 197.6 17.8068 198.2 17.7068 198.9C17.5068 200.1 17.4068 201.4 17.4068 202.6C17.4068 203.2 17.8068 203.9 18.2068 204.3C19.1068 205.2 19.3068 206.1 18.8068 207.4C18.5068 206.4 18.3068 205.6 18.1068 204.8C17.1068 207.3 17.3068 207.9 18.9068 208.3C20.9068 208.8 21.9068 208.1 22.4068 206.1ZM13.9068 208.5C16.0068 206.1 16.6068 203.8 15.8068 201.2C12.8068 201.5 12.3068 203.9 11.5068 206.5C11.0068 205.5 10.8068 204.9 10.6068 204.4C9.90682 202.5 9.00682 201 6.70682 200.9C6.30682 200.9 5.90682 200.1 5.60682 199.6C5.10682 198.8 4.80682 197.9 4.30682 197C4.10682 197 3.90682 197.1 3.70682 197.1C3.30682 199.6 3.50682 202.2 3.40682 204.9C5.90682 203.6 6.60682 203.6 7.50682 204.5C6.80682 204.6 5.60682 204.5 4.70682 205C4.30682 205.2 4.10682 206.6 4.40682 207.3C4.60682 207.9 5.50682 208.2 6.20682 208.7C6.10682 207.7 6.00682 207 6.10682 206.4C6.10682 206.3 6.90682 206 7.00682 206.2C7.60682 206.8 8.20682 207.6 9.00682 208.6C9.60682 208.4 10.6068 208.1 11.3068 207.9C12.4068 208.1 13.3068 208.4 13.9068 208.5ZM16.1068 210.5C16.1068 210.3 16.1068 210.2 16.1068 210C15.5068 209.9 15.0068 209.7 14.4068 209.7C10.9068 209.7 7.40682 209.6 4.00682 209.7C2.70682 209.7 2.20682 209.4 2.20682 208C2.30682 198.7 2.20682 189.4 2.20682 180.1C2.20682 172.1 2.10682 164.1 2.10682 156.2C2.10682 153.7 2.10682 153.7 4.50682 153.7C7.60682 153.7 10.7068 153.7 13.7068 153.7C14.4068 153.7 15.1068 153.6 15.7068 153.6C15.7068 153.4 15.7068 153.2 15.7068 153.1C15.1068 153 14.6068 152.9 14.0068 152.9C11.2068 152.9 8.30682 152.9 5.50682 152.9C1.40682 152.9 1.40682 152.9 1.30682 156.9C1.30682 157 1.30682 157.1 1.30682 157.2C1.30682 174.4 1.30682 191.6 1.20682 208.8C1.20682 210.2 1.50682 210.7 3.00682 210.7C6.80682 210.6 10.5068 210.7 14.3068 210.6C15.0068 210.7 15.6068 210.6 16.1068 210.5ZM52.7068 208.5C53.0068 208.4 54.3068 208.2 54.3068 207.9C54.3068 205.9 54.1068 203.9 54.0068 201.9C53.9068 200.9 54.0068 199.9 54.1068 198.9C54.2068 197.9 54.4068 196.9 54.6068 195.8C52.1068 196.1 50.9068 197.3 50.6068 199.7C50.5068 200.6 50.2068 200.9 49.3068 201.1C48.4068 201.3 47.4068 201.8 46.8068 202.4C45.9068 203.5 45.3068 204.8 44.5068 206.2C44.0068 204.9 43.6068 203.8 43.1068 202.7C42.9068 202.7 42.7068 202.7 42.5068 202.7C42.4068 203.9 42.3068 205.2 42.4068 206.4C42.4068 207 42.7068 207.6 42.9068 208.2C43.5068 208 44.1068 207.8 44.5068 207.6C45.6068 207.9 46.6068 208.1 47.9068 208.4C47.2068 206.5 47.0068 204.9 48.6068 204.1C49.4068 203.7 51.1068 203.6 51.4068 204.1C52.1068 205.3 52.2068 206.7 52.7068 208.5ZM29.3068 96.6C28.7068 97.2 28.4068 97.4 28.3068 97.7C26.4068 102.3 26.5068 106.9 28.1068 111.5C28.2068 111.9 28.9068 112.3 29.2068 112.3C29.6068 112.3 30.0068 111.7 30.2068 111.3C31.8068 107.5 31.7068 103.6 30.8068 99.7C30.5068 98.8 29.9068 97.9 29.3068 96.6ZM42.7068 153.2C42.7068 153.3 42.7068 153.5 42.7068 153.6C43.2068 153.7 43.7068 153.7 44.2068 153.7C47.3068 153.7 50.5068 153.9 53.6068 153.8C55.4068 153.7 55.8068 154.4 55.8068 156C55.7068 165.2 55.7068 174.5 55.8068 183.7C55.8068 184.4 56.0068 185.1 56.1068 185.7C56.3068 185.7 56.5068 185.6 56.7068 185.6C56.7068 184 56.7068 182.4 56.7068 180.9C56.7068 172 56.7068 163.1 56.7068 154.2C56.7068 153.4 56.7068 152.6 55.5068 152.6C51.6068 152.7 47.6068 152.7 43.7068 152.8C43.3068 152.9 43.0068 153.1 42.7068 153.2ZM42.6068 209.9C42.6068 210.1 42.6068 210.2 42.5068 210.4C42.8068 210.5 43.2068 210.7 43.5068 210.7C47.4068 210.7 51.4068 210.7 55.3068 210.8C56.5068 210.8 56.5068 210.2 56.5068 209.3C56.5068 202.8 56.5068 196.3 56.5068 189.8C56.5068 189.4 56.4068 188.9 56.3068 188.5C56.1068 188.5 56.0068 188.5 55.8068 188.5C55.7068 189.1 55.6068 189.8 55.6068 190.4C55.6068 196.3 55.6068 202.2 55.6068 208.2C55.6068 209.4 55.2068 209.8 54.0068 209.8C50.8068 209.7 47.6068 209.8 44.4068 209.8C43.9068 209.7 43.2068 209.8 42.6068 209.9ZM28.0068 203.9C27.1068 206.4 23.9068 205.9 22.8068 208.3C26.4068 208.3 29.6068 208.3 33.3068 208.3C32.0068 206 29.1068 206.2 28.0068 203.9ZM17.2068 209.9C18.9068 211 40.1068 210.9 41.0068 209.9C33.2068 209.9 25.4068 209.9 17.2068 209.9ZM40.6068 200C40.7068 199.9 40.9068 199.8 41.0068 199.7C41.0068 196.6 41.0068 193.4 41.0068 190.3C40.9068 190.2 40.7068 190.1 40.6068 190C39.5068 191.7 38.4068 193.3 37.3068 195C38.4068 196.7 39.5068 198.3 40.6068 200ZM41.0068 157.3C40.8068 157.2 40.7068 157.2 40.5068 157.1C39.4068 158.7 38.3068 160.4 37.3068 162C37.9068 162.8 38.6068 163.6 39.2068 164.5C39.8068 165.2 39.3068 166.8 41.0068 166.7C41.0068 163.5 41.0068 160.4 41.0068 157.3ZM54.6068 161.1C54.2068 159.1 53.9068 157.3 53.5068 155.5C53.5068 155.3 53.1068 155.1 52.8068 155.1C51.4068 155.1 50.0068 155.2 49.0068 155.3C49.6068 156.3 50.4068 157.1 50.7068 158.1C51.4068 159.8 52.5068 160.8 54.6068 161.1ZM41.2068 153.6C39.5068 152.7 18.9068 152.7 17.8068 153.6C25.6068 153.6 33.2068 153.6 41.2068 153.6ZM42.1068 178.4C43.2068 179.3 43.9068 180.3 44.7068 180.3C45.4068 180.3 46.7068 179.1 46.6068 178.5C46.5068 177.7 45.5068 176.5 44.7068 176.5C44.0068 176.4 43.2068 177.6 42.1068 178.4ZM9.30682 178.7C10.0068 179.3 10.6068 180 11.4068 180.7C12.2068 179.9 12.9068 179.3 13.6068 178.6C11.5068 175.8 11.0068 175.8 9.30682 178.7ZM43.2068 169.8C42.3068 170.6 42.1068 174.6 42.8068 176.4C45.0068 174.7 45.0068 173.9 43.2068 169.8ZM50.1068 208.4C51.5068 208.5 51.8068 207.3 51.9068 206.2C51.9068 205.1 51.2068 204.4 50.1068 204.4C48.7068 204.5 47.9068 205.2 47.8068 206.6C48.6068 206.5 49.3068 206.3 50.0068 206.2C50.0068 206.9 50.0068 207.6 50.1068 208.4ZM26.1068 161.7C26.8068 162.6 27.3068 163.3 27.8068 164C30.5068 162.1 30.5068 161.5 27.9068 159.9C27.3068 160.5 26.7068 161.1 26.1068 161.7ZM30.1068 194.9C29.5068 194.3 28.9068 193.5 28.1068 192.7C27.2068 193.6 26.6068 194.3 25.8068 195.1C26.6068 195.9 27.3068 196.5 28.1068 197.3C28.8068 196.5 29.3068 195.9 30.1068 194.9ZM33.4068 158.6C34.9068 157.9 35.4068 157.3 35.1068 156.2C34.7068 154.7 33.5068 155.2 32.6068 155.3C32.1068 155.3 31.6068 156 31.2068 156.3C31.3068 156.4 31.4068 156.6 31.5068 156.7C33.5068 156 33.7068 156.3 33.4068 158.6ZM4.20682 159.6C5.00682 158 5.70682 156.6 6.50682 155.1C5.60682 155.3 4.20682 155.2 3.90682 155.8C3.40682 156.8 3.20682 158.2 4.20682 159.6ZM17.6068 182.1C17.6068 183.3 17.6068 184.2 17.6068 185.3C19.1068 184.4 19.1068 183.3 17.6068 182.1Z" fill="white" fill-opacity="0.3"/>
<path d="M181.377 -8C181.377 0.4 181.377 8.9 181.277 17.3C181.277 18.4 181.477 19.1 182.777 19.3C183.677 19.4 184.477 19.9 185.277 20.4C186.977 21.4 188.777 22.4 190.177 23.3C188.477 24.5 186.677 26.5 184.477 27.3C181.577 28.4 180.877 30 181.277 32.8C181.477 34.5 181.377 36.2 181.277 37.9C181.277 38.9 181.677 39.2 182.577 39.5C183.877 39.9 185.177 40.6 186.477 41.3C187.777 42 189.077 42.9 189.977 43.5C188.877 44.4 187.577 45.6 186.177 46.8C185.577 47.3 184.977 47.8 184.277 47.9C181.577 48.3 181.277 50 181.277 52.4C181.177 55.8 181.877 59.1 182.777 62.3C183.177 63.6 183.277 65 183.577 66.3C183.677 66.9 183.977 67.5 184.277 68C185.177 69.6 186.377 71.1 187.177 72.8C187.777 74 188.477 74.7 189.677 75.1C192.977 76.2 193.377 76.8 192.777 80.2C192.377 82.6 191.777 84.9 191.177 87.2C190.877 88.3 191.077 88.9 192.177 89.5C198.677 92.8 204.477 97 208.377 103.4C213.277 111.5 212.677 123.2 207.077 130.9C203.877 135.2 199.977 138.4 195.177 140.5C193.777 141.1 193.477 142 193.977 143.2C194.577 144.6 195.077 146.1 196.077 147.2C199.977 151.6 198.377 157.7 193.877 159.5C193.477 159.7 193.077 160 192.677 160.1C190.177 160.9 188.677 162.4 188.177 165.1C187.777 167.1 186.077 168.3 184.177 169C182.977 169.4 182.777 169.9 183.377 171.1C184.977 174.1 184.777 177.2 183.277 180.1C182.377 181.8 181.177 183.4 180.077 185.1C175.977 180.7 173.577 175.6 176.377 170.8C176.977 169.8 176.577 169.3 175.577 169C173.177 168.2 171.577 166.6 171.177 164C170.877 162.5 170.077 161.6 168.777 161C167.377 160.4 165.977 159.9 164.777 159C160.877 156.4 160.377 151.2 163.377 147.3C164.477 146 165.177 144.3 165.777 142.7C166.177 141.7 165.777 141 164.577 140.5C152.677 135.5 147.277 125.3 148.077 112.9C148.477 107 151.377 102.2 155.477 98.1C159.077 94.5 163.077 91.4 167.777 89.3C168.677 88.9 168.777 88.2 168.577 87.3C167.977 84.8 167.377 82.2 166.977 79.6C166.477 77 166.977 75.9 169.477 75.2C171.477 74.6 172.577 73.5 172.977 71.5C173.077 71.1 173.177 70.7 173.477 70.4C176.177 68 176.177 64.4 177.177 61.3C178.377 57.7 178.377 54.2 178.277 50.5C178.277 49.4 177.977 48.7 176.777 48.4C174.377 47.8 172.277 46.5 170.777 44.4C170.377 43.9 169.477 43.8 168.477 43.4C171.477 41.9 174.377 40.6 177.177 39.2C177.677 39 178.177 38.4 178.277 38C178.377 35.2 178.377 32.4 178.177 29.6C178.177 29.1 177.477 28.5 176.977 28.3C174.577 27.4 172.177 26.6 170.777 24.1C170.477 23.6 169.377 23.5 168.477 23.2C171.677 21.7 174.677 20.4 177.677 19C178.077 18.8 178.377 18 178.377 17.5C178.377 10.6 178.377 3.7 178.377 -3.2C178.377 -4.8 178.377 -6.4 178.377 -8C179.277 -8 180.377 -8 181.377 -8ZM188.677 112.7C188.477 112.7 188.277 112.6 188.077 112.6C188.177 111.5 188.277 110.4 188.377 109.5C187.377 108.9 186.377 108.3 185.077 107.5C185.977 106.9 186.477 106.6 187.077 106.2C185.877 104.9 184.577 104 182.777 103.9C182.877 104.6 182.877 105.2 182.977 106.2C181.577 105.5 180.577 104.9 179.577 104.4C178.677 104.9 177.677 105.5 176.377 106.2C176.377 105.1 176.377 104.6 176.377 103.6C174.777 104.5 173.477 105.2 171.877 106.1C172.877 106.7 173.377 107 174.477 107.6C172.977 108.4 171.877 108.9 170.777 109.4C170.977 110.4 171.177 111.5 171.477 112.6C171.277 112.7 171.177 112.7 170.977 112.8C170.377 112.4 169.777 111.9 168.777 111.2C168.377 113.1 168.177 114.7 169.077 116.5C169.777 116 170.477 115.6 171.077 115.2C172.677 116.8 170.977 118.2 170.877 119.6C173.977 120 173.977 120 174.277 121C173.577 121.2 172.977 121.5 172.277 121.7C173.077 123.7 174.677 124.6 176.277 124.2C176.177 123.5 176.177 122.7 176.077 121.9C176.177 121.8 176.377 121.6 176.477 121.5C177.677 122.3 178.877 123.1 179.977 123.9C180.877 123.2 181.677 122.5 182.877 121.5C182.977 122.7 182.977 123.4 183.077 124.7C184.677 123.6 185.877 122.8 187.377 121.8C186.177 121.3 185.677 121 184.677 120.6C185.477 120.1 185.977 119.7 186.577 119.6C187.077 119.5 187.777 119.7 188.477 119.7C188.377 118.1 187.077 116.7 188.577 115.4C189.177 115.7 189.677 116 190.477 116.4C190.477 114.6 190.477 113 190.477 111.1C189.677 112 189.177 112.3 188.677 112.7ZM194.677 117.9C194.677 118 194.677 118 194.777 118.1C194.977 118.6 195.077 119.3 195.477 119.7C195.777 120 196.577 120.1 196.877 119.9C198.277 118.9 199.777 120 201.177 119.6C201.677 119.4 202.477 119.8 202.877 119.5C203.277 119.2 203.277 118.4 203.377 117.9C203.477 117.9 203.477 117.9 203.577 118C203.977 117.1 204.377 116.1 204.777 115.1C205.977 115.7 206.177 114.8 205.977 113.8C205.877 113.3 205.277 112.9 204.877 112.4C204.777 112.5 204.577 112.6 204.477 112.7C204.477 112.2 204.477 111.7 204.477 111.2C203.077 110.9 202.477 110.2 203.477 108.9C202.377 108 201.477 107.2 200.877 108.5C199.777 108.6 198.977 108.7 198.177 108.8C197.877 108.8 197.577 108.7 197.277 108.6C196.877 108.5 196.277 108.1 196.077 108.3C195.677 108.6 195.477 109.1 195.277 109.6C194.577 110.7 194.077 112 193.177 112.9C192.277 113.8 192.077 114.6 193.077 115.4C193.477 115.7 193.677 116.1 193.877 116.5C194.177 116.8 194.377 117.4 194.677 117.9ZM165.077 118.2C166.277 117.3 165.677 115.1 167.377 114.5C167.477 114.5 167.477 113.3 167.277 113.3C166.077 113 165.877 111.9 165.177 111.1C164.777 110.5 164.377 109.9 164.077 109.3C164.177 109.2 164.377 109.1 164.477 109C163.777 108.4 163.277 108.1 162.177 108.7C161.277 109.2 159.777 108.8 158.577 108.5C157.677 108.2 156.577 108.6 156.477 109.6C156.477 110 156.477 110.5 156.277 110.8C155.877 111.5 155.277 112.1 154.877 112.7C154.377 113.2 153.777 113.6 153.677 114.1C153.477 114.8 153.477 115.6 154.777 115.5C154.977 115.5 155.177 115.9 155.277 116.2C155.677 116.9 155.977 117.6 156.277 118.3C156.477 118.9 156.577 119.8 156.977 120C157.577 120.3 158.377 120 159.077 119.9V119.8C160.077 119.8 161.077 119.8 161.777 119.8C162.677 119.9 163.477 120.3 163.977 120.1C164.477 119.7 164.677 118.8 165.077 118.2ZM179.477 67.3C178.777 68.2 178.277 69.1 179.177 70C179.377 70.2 180.077 70 180.277 69.8C180.977 68.7 180.577 67.9 179.477 67.3ZM179.877 179.2C180.677 178.4 181.277 177.6 180.477 176.6C180.277 176.4 179.577 176.3 179.377 176.5C178.477 177.4 178.977 178.3 179.877 179.2ZM182.377 177.3C183.277 176.3 183.177 175.4 182.377 174.7C182.077 174.4 181.477 174.5 180.977 174.4C181.077 174.8 181.177 175.2 181.377 175.6C181.677 176 181.977 176.5 182.377 177.3ZM176.677 176.7C176.877 176.7 177.077 176.8 177.277 176.8C177.577 176.4 177.877 176 178.077 175.6C178.277 175.2 178.377 174.6 178.477 174.2C177.877 174.5 177.177 174.6 176.877 175.1C176.577 175.4 176.777 176.1 176.677 176.7ZM182.677 69.4C182.477 69.4 182.277 69.4 182.077 69.4C181.577 70.2 181.077 71 180.677 71.9C180.777 72.1 180.877 72.2 180.977 72.4C181.577 72.1 182.377 71.9 182.677 71.4C182.877 70.8 182.677 70 182.677 69.4ZM176.977 143.8C176.977 143.9 176.977 144.1 176.977 144.2C177.577 144.4 178.277 144.7 179.077 145C179.077 144.2 179.077 143.6 179.077 142.8C178.277 143.2 177.677 143.5 176.977 143.8ZM176.977 69.3C176.277 71.4 176.677 72 178.577 71.9C177.977 71 177.577 70.3 176.977 69.3ZM189.377 142.9C189.477 143.9 189.477 144.4 189.577 145.2C190.477 144.8 191.177 144.5 191.877 144.2C191.877 144 191.877 143.9 191.877 143.7C191.177 143.5 190.477 143.2 189.377 142.9ZM173.477 140.6C173.577 140.4 173.577 140.2 173.677 140C172.977 139.8 172.277 139.6 171.677 139.5C171.577 140 171.477 140.5 171.377 141.4C172.377 141 172.877 140.8 173.477 140.6ZM186.077 139.6C186.077 139.9 186.077 140.2 185.977 140.6C186.677 140.7 187.377 140.7 188.077 140.8C188.077 140.4 188.077 140 188.077 139.7C187.477 139.6 186.777 139.6 186.077 139.6ZM173.577 144.5C173.577 144.2 173.577 143.9 173.577 143.7C172.877 143.6 172.277 143.5 171.577 143.5C171.577 143.9 171.577 144.3 171.577 144.7C172.277 144.6 172.977 144.5 173.577 144.5ZM188.177 142.9C187.377 143.3 186.777 143.5 186.177 143.8C186.177 144 186.177 144.1 186.177 144.3C186.777 144.5 187.377 144.8 188.177 145.1C188.177 144.2 188.177 143.7 188.177 142.9ZM182.777 140.6C182.777 140.3 182.777 140 182.777 139.8C182.077 139.8 181.377 139.7 180.677 139.7C180.677 140.1 180.677 140.4 180.677 140.8C181.377 140.7 182.077 140.6 182.777 140.6ZM176.977 139.8C176.977 140.1 176.977 140.3 176.977 140.6C177.677 140.7 178.277 140.8 178.977 140.9C178.977 140.5 178.977 140.2 178.977 139.8C178.377 139.7 177.677 139.7 176.977 139.8ZM191.577 140.5C191.577 140.3 191.577 140.1 191.577 139.9C190.977 139.7 190.377 139.5 189.677 139.2C189.677 139.9 189.677 140.4 189.677 141.1C190.477 140.9 190.977 140.7 191.577 140.5ZM182.677 144.5C182.677 144.2 182.677 143.9 182.677 143.6C181.977 143.5 181.377 143.5 180.677 143.4C180.677 143.8 180.677 144.5 180.677 144.5C181.377 144.5 181.977 144.5 182.677 144.5ZM167.977 139.9C167.977 140.1 167.977 140.3 167.977 140.5C168.577 140.7 169.277 140.9 170.077 141.2C169.977 140.4 169.977 139.9 169.877 139.1C169.177 139.4 168.577 139.7 167.977 139.9ZM170.077 142.7C169.177 143.2 168.677 143.5 167.677 144.1C168.777 144.5 169.377 144.6 170.077 144.9C170.077 144.2 170.077 143.7 170.077 142.7Z" fill="white" fill-opacity="0.3"/>
<path d="M179.877 118.9C177.277 118.9 175.177 116.9 175.177 114.3C175.177 111.5 177.177 109.5 180.077 109.5C182.477 109.5 184.577 111.6 184.577 114.1C184.577 116.8 182.577 118.9 179.877 118.9Z" fill="white" fill-opacity="0.3"/>
<path d="M199.477 116.4C197.977 116.4 196.777 115.3 196.777 113.9C196.777 112.6 197.877 111.5 199.277 111.5C200.677 111.5 201.577 112.5 201.577 114.1C201.577 115.4 200.677 116.4 199.477 116.4Z" fill="white" fill-opacity="0.3"/>
<path d="M160.677 111.4C162.077 111.4 162.977 112.5 162.977 114.1C162.977 115.3 161.877 116.3 160.477 116.4C159.177 116.4 158.177 115.3 158.177 114C158.177 112.6 159.277 111.4 160.677 111.4Z" fill="white" fill-opacity="0.3"/>
</svg>
