<svg width="180" height="211" viewBox="0 0 180 211" fill="none" xmlns="http://www.w3.org/2000/svg">
<path d="M133.991 108.283C130.101 107.521 127.32 107.071 127.32 107.071L133.991 109.903L143.205 113.815L144.974 114.112C142.124 114.309 138.861 114.903 135.23 116.155C134.832 116.292 134.416 116.448 133.991 116.615C133.524 116.798 133.039 117.001 132.543 117.216C130.576 118.07 128.393 119.165 126.076 120.433C120.119 123.692 113.314 128.055 107.203 132.183C100.981 136.386 95.481 140.342 92.35 142.631L91.736 134.103L90.521 117.216L90.391 115.409C90.845 115.264 91.483 115.063 92.27 114.818C93.837 114.33 96 113.668 98.501 112.935C101.129 112.165 104.127 111.317 107.203 110.508C114.34 108.63 121.867 106.972 126.076 107.006C126.527 107.01 126.951 107.027 127.321 107.072C127.321 107.072 126.937 106.845 126.076 106.583C124.191 106.011 120.02 105.276 112.578 106.411C110.801 106.682 108.99 107.05 107.203 107.477C104.129 108.211 101.13 109.117 98.501 109.996C94.582 111.307 91.489 112.557 90.224 113.085L90.223 113.067H89.598H88.973L88.972 113.085C87.594 112.51 84.05 111.078 79.629 109.644C76.954 108.777 73.959 107.909 70.927 107.23C69.489 106.908 68.042 106.627 66.618 106.41C57.091 104.958 52.924 106.568 52.054 106.98C51.934 107.037 51.875 107.071 51.875 107.071C51.93 107.064 51.996 107.063 52.054 107.057C52.47 107.015 52.929 106.995 53.439 107.001C57.486 107.048 64.298 108.515 70.927 110.229C73.961 111.013 76.956 111.848 79.629 112.623C83.882 113.856 87.321 114.936 88.805 115.408L88.675 117.215L87.46 134.102L86.85 142.576C83.541 140.092 77.586 135.694 70.927 131.114C64.725 126.848 57.917 122.429 52.054 119.244C50.67 118.492 49.342 117.811 48.085 117.216C46.904 116.656 45.789 116.174 44.755 115.784C44.489 115.684 44.221 115.582 43.966 115.494C41.156 114.525 38.568 113.98 36.218 113.719L44.756 110.094L51.877 107.071C51.877 107.071 48.88 107.556 44.756 108.372C36.246 110.055 22.938 113.146 21.271 116.288L52.055 130.94L70.267 139.608L89.599 148.809L108.931 139.608L126.077 131.447L157.927 116.288C156.228 113.089 142.473 109.945 133.991 108.283Z" fill="#FFC107"/>
<path d="M89.372 37.268C89.372 37.268 131.282 43.075 140.638 54.291C140.638 54.291 142.31 36.025 122.806 24.687C99.077 10.893 89.372 0 89.372 0C89.372 0 79.667 10.893 55.938 24.687C36.435 36.025 38.106 54.291 38.106 54.291C47.139 43.462 89.372 37.268 89.372 37.268Z" fill="#FFC107"/>
<path d="M129.607 100.082C130.547 100.242 132.088 100.514 133.99 100.874V60.488C133.99 51.624 89.371 44.438 89.371 44.438C89.371 44.438 44.752 51.624 44.752 60.488V100.959C46.863 100.555 48.572 100.254 49.585 100.081C50.244 99.828 51.069 99.568 52.051 99.334V70.626C52.051 70.613 52.053 70.6 52.053 70.586C52.043 70.6 52.027 70.612 52.017 70.626C52.017 70.626 51.708 66.693 55.311 64.252C59.694 61.282 61.487 58.936 61.487 58.936C61.487 58.936 63.28 61.281 67.663 64.252C71.266 66.693 70.957 70.626 70.957 70.626C70.947 70.612 70.932 70.6 70.921 70.586C70.921 70.6 70.923 70.613 70.923 70.626V99.79C73.907 100.389 76.875 101.175 79.625 102.003V65.12C79.625 65.107 79.627 65.094 79.627 65.08C79.617 65.094 79.601 65.106 79.591 65.12C79.591 65.12 79.282 61.187 82.885 58.746C87.268 55.776 89.061 53.431 89.061 53.431C89.061 53.431 90.854 55.776 95.237 58.746C98.84 61.187 98.531 65.12 98.531 65.12C98.521 65.106 98.506 65.094 98.495 65.08C98.495 65.094 98.497 65.107 98.497 65.12V102.33C101.217 101.483 104.187 100.664 107.199 100.015V70.625C107.199 70.612 107.201 70.599 107.201 70.585C107.191 70.599 107.175 70.611 107.165 70.625C107.165 70.625 106.856 66.692 110.459 64.251C114.842 61.281 116.635 58.935 116.635 58.935C116.635 58.935 118.428 61.28 122.811 64.251C126.414 66.692 126.105 70.625 126.105 70.625C126.095 70.611 126.08 70.599 126.069 70.585C126.069 70.599 126.071 70.612 126.071 70.625V99.106C127.549 99.391 128.723 99.743 129.607 100.082Z" fill="#FFC107"/>
<path d="M155.101 65.708C155.101 65.708 163.961 66.936 165.939 69.307C165.939 69.307 166.292 63.909 162.169 61.512C157.153 58.596 155.101 56.293 155.101 56.293C155.101 56.293 153.049 58.596 148.033 61.512C143.91 63.909 144.263 69.307 144.263 69.307C146.173 67.018 155.101 65.708 155.101 65.708Z" fill="#FFC107"/>
<path d="M145.668 75.026V103.395C153.703 105.368 159.41 107.365 162.743 110.427H164.533V75.027C164.533 73.153 155.101 71.634 155.101 71.634C155.101 71.634 145.668 73.152 145.668 75.026Z" fill="#FFC107"/>
<path d="M24.092 65.708C24.092 65.708 33.02 67.017 34.929 69.307C34.929 69.307 35.282 63.909 31.159 61.512C26.143 58.596 24.091 56.293 24.091 56.293C24.091 56.293 22.039 58.596 17.023 61.512C12.9 63.909 13.253 69.307 13.253 69.307C15.233 66.936 24.092 65.708 24.092 65.708Z" fill="#FFC107"/>
<path d="M14.66 75.026V110.426H16.451C19.783 107.364 25.49 105.367 33.525 103.395V75.026C33.525 73.152 24.093 71.633 24.093 71.633C24.093 71.633 14.66 73.152 14.66 75.026Z" fill="#FFC107"/>
<path d="M126.927 140.651L89.597 156.325L52.275 140.655L0 118.706C1.16 126.788 6.806 133.512 14.566 136.05L89.596 160.598L164.626 136.05C172.386 133.511 178.033 126.788 179.192 118.706L126.927 140.651Z" fill="#FFC107"/>
<path d="M25.6306 202.598V178.917H34.7362C37.3601 178.917 39.5503 179.45 41.3069 180.518C43.0858 181.563 44.42 182.986 45.3094 184.787C46.2211 186.566 46.6769 188.545 46.6769 190.724C46.6769 193.126 46.1766 195.216 45.176 196.995C44.1976 198.773 42.8079 200.152 41.0067 201.13C39.2279 202.109 37.1377 202.598 34.7362 202.598H25.6306ZM40.0728 190.724C40.0728 189.501 39.8616 188.434 39.4391 187.522C39.0166 186.588 38.4051 185.865 37.6046 185.354C36.8042 184.843 35.848 184.587 34.7362 184.587H32.1346V196.928H34.7362C35.8702 196.928 36.8264 196.661 37.6046 196.127C38.4051 195.594 39.0166 194.86 39.4391 193.926C39.8616 192.97 40.0728 191.903 40.0728 190.724ZM57.7111 202.932C56.1768 202.932 54.8093 202.698 53.6085 202.231C52.4078 201.742 51.3961 201.086 50.5733 200.263C49.7728 199.441 49.1613 198.495 48.7389 197.428C48.3164 196.361 48.1051 195.238 48.1051 194.059C48.1051 192.369 48.472 190.824 49.2058 189.423C49.9396 188 51.018 186.866 52.4411 186.021C53.8642 185.154 55.6209 184.72 57.7111 184.72C59.8012 184.72 61.5579 185.143 62.981 185.988C64.4041 186.833 65.4825 187.945 66.2163 189.323C66.9501 190.702 67.317 192.203 67.317 193.826C67.317 194.159 67.2947 194.504 67.2503 194.86C67.228 195.193 67.1947 195.494 67.1502 195.76H54.8426C54.8871 196.383 55.0539 196.895 55.3429 197.295C55.6542 197.673 56.0322 197.951 56.477 198.129C56.9439 198.306 57.422 198.395 57.9112 198.395C58.6005 198.395 59.2453 198.24 59.8457 197.928C60.4683 197.617 60.8797 197.184 61.0798 196.628L66.4498 198.162C65.9828 199.096 65.3269 199.919 64.4819 200.63C63.6592 201.342 62.6808 201.909 61.5468 202.331C60.4127 202.731 59.1342 202.932 57.7111 202.932ZM54.7092 191.958H60.5128C60.4461 191.38 60.2793 190.891 60.0125 190.491C59.7679 190.09 59.4343 189.779 59.0119 189.557C58.6116 189.334 58.1447 189.223 57.611 189.223C57.0773 189.223 56.5993 189.334 56.1768 189.557C55.7765 189.779 55.443 190.09 55.1762 190.491C54.9316 190.891 54.7759 191.38 54.7092 191.958ZM78.0361 202.932C76.5018 202.932 75.1343 202.698 73.9336 202.231C72.7328 201.742 71.7211 201.086 70.8984 200.263C70.0979 199.441 69.4864 198.495 69.0639 197.428C68.6414 196.361 68.4302 195.238 68.4302 194.059C68.4302 192.369 68.7971 190.824 69.5308 189.423C70.2646 188 71.3431 186.866 72.7662 186.021C74.1893 185.154 75.9459 184.72 78.0361 184.72C80.1263 184.72 81.8829 185.143 83.306 185.988C84.7291 186.833 85.8075 187.945 86.5413 189.323C87.2751 190.702 87.642 192.203 87.642 193.826C87.642 194.159 87.6198 194.504 87.5753 194.86C87.5531 195.193 87.5197 195.494 87.4752 195.76H75.1677C75.2121 196.383 75.3789 196.895 75.668 197.295C75.9793 197.673 76.3573 197.951 76.802 198.129C77.2689 198.306 77.747 198.395 78.2362 198.395C78.9255 198.395 79.5704 198.24 80.1707 197.928C80.7933 197.617 81.2047 197.184 81.4048 196.628L86.7748 198.162C86.3079 199.096 85.6519 199.919 84.8069 200.63C83.9842 201.342 83.0058 201.909 81.8718 202.331C80.7378 202.731 79.4592 202.932 78.0361 202.932ZM75.0342 191.958H80.8378C80.7711 191.38 80.6043 190.891 80.3375 190.491C80.0929 190.09 79.7594 189.779 79.3369 189.557C78.9366 189.334 78.4697 189.223 77.936 189.223C77.4024 189.223 76.9243 189.334 76.5018 189.557C76.1016 189.779 75.768 190.09 75.5012 190.491C75.2566 190.891 75.1009 191.38 75.0342 191.958ZM107.367 202.598H101.029V192.725C101.029 191.858 100.829 191.235 100.429 190.857C100.051 190.457 99.6063 190.257 99.0949 190.257C98.7391 190.257 98.3611 190.368 97.9609 190.591C97.5606 190.791 97.1937 191.08 96.8602 191.458C96.5267 191.836 96.2598 192.269 96.0597 192.759V202.598H89.7225V185.054H95.426V187.655C95.8485 187.011 96.3821 186.477 97.027 186.054C97.6718 185.61 98.4167 185.276 99.2617 185.054C100.107 184.832 101.029 184.72 102.03 184.72C103.231 184.72 104.187 184.932 104.898 185.354C105.61 185.777 106.144 186.321 106.499 186.988C106.855 187.655 107.089 188.356 107.2 189.09C107.311 189.801 107.367 190.457 107.367 191.058V202.598ZM110.709 202.598V178.917H117.213V187.922L124.418 178.917H131.755L123.15 189.523L132.356 202.598H124.885L119.014 193.893L117.213 195.76V202.598H110.709ZM133.304 202.598V185.054H139.641V202.598H133.304ZM133.304 183.586V178.25H139.641V183.586H133.304ZM155.155 201.631C154.577 201.875 153.955 202.109 153.287 202.331C152.643 202.531 151.976 202.687 151.286 202.798C150.619 202.909 149.963 202.965 149.318 202.965C148.362 202.965 147.484 202.809 146.683 202.498C145.883 202.164 145.238 201.631 144.749 200.897C144.282 200.141 144.048 199.129 144.048 197.862V189.823H141.88V185.054H144.048V179.55H150.386V185.054H153.821V189.823H150.386V195.627C150.386 196.205 150.508 196.617 150.753 196.861C150.997 197.084 151.331 197.195 151.753 197.195C152.064 197.195 152.42 197.139 152.82 197.028C153.221 196.917 153.621 196.783 154.021 196.628L155.155 201.631Z" fill="#FFC107"/>
</svg>
