<svg width="390" height="160" viewBox="0 0 390 160" fill="none" xmlns="http://www.w3.org/2000/svg">
<g clip-path="url(#clip0_22_1758)">
<g clip-path="url(#clip1_22_1758)">
<rect width="390" height="160" rx="10" fill="url(#paint0_linear_22_1758)"/>
<path opacity="0.25" d="M306.3 160C365.044 160 412.666 150.731 412.666 139.297C412.666 127.863 365.044 118.594 306.3 118.594C247.556 118.594 199.934 127.863 199.934 139.297C199.934 150.731 247.556 160 306.3 160Z" fill="#042030"/>
<path d="M389.602 39.3868L306.3 63.1985L222.914 39.3868L183.037 87.8582L306.3 123.117L429.479 87.8582L389.602 39.3868Z" fill="#18392B"/>
<path opacity="0.45" d="M197.568 85.8798L299.795 118.594L264.649 89.4833C264.649 89.4833 206.946 77.8247 197.568 85.8798Z" fill="#18392B"/>
<path opacity="0.45" d="M415.032 85.8798L312.805 118.594L347.951 89.4833C347.866 89.4833 405.569 77.8247 415.032 85.8798Z" fill="#18392B"/>
<path d="M306.3 123.117L183.037 87.8582V92.451L306.3 127.709L429.479 92.451V87.8582L306.3 123.117Z" fill="#3EB489"/>
<path d="M240.656 144.314L254.933 113.012L300.893 126.155L240.656 144.314Z" fill="#18392B"/>
<path opacity="0.45" d="M244.626 135.27L300.893 126.155L254.933 113.012L244.626 135.27Z" fill="#18392B"/>
<path d="M306.3 124.53L240.656 144.314L245.556 148.624L306.3 130.536L366.96 148.624L371.945 144.314L306.3 124.53Z" fill="#3EB489"/>
<path d="M371.945 144.314L357.582 113.012L311.623 126.155L371.945 144.314Z" fill="#18392B"/>
<path opacity="0.45" d="M367.889 135.27L311.623 126.155L357.582 113.012L367.889 135.27Z" fill="#18392B"/>
<path d="M306.3 130.536C308.773 130.536 310.778 128.859 310.778 126.791C310.778 124.722 308.773 123.046 306.3 123.046C303.827 123.046 301.822 124.722 301.822 126.791C301.822 128.859 303.827 130.536 306.3 130.536Z" fill="white" fill-opacity="0.5"/>
<path d="M386.054 39.3868L306.3 72.5961L226.547 39.3868C222.914 43.4143 193.682 84.184 193.682 84.184C194.02 84.184 194.274 84.2546 194.611 84.2546C267.944 90.4019 288.305 109.692 295.064 114.355C301.822 119.089 306.385 118.594 306.385 118.594C306.385 118.594 310.947 119.089 317.706 114.355C324.464 109.692 344.825 90.4019 418.158 84.2546C418.496 84.2546 418.749 84.184 419.087 84.184C418.918 84.184 389.602 43.485 386.054 39.3868Z" fill="#F5B304"/>
<path d="M418.918 84.184C418.58 84.184 418.327 84.2546 417.989 84.2546C344.656 90.4019 324.295 109.692 317.537 114.355C310.778 119.089 306.216 118.594 306.216 118.594C306.216 118.594 301.653 119.089 294.895 114.355C288.136 109.692 267.775 90.4019 194.442 84.2546C194.104 84.2546 193.851 84.184 193.513 84.184C192.922 84.9612 193.513 85.5265 193.513 85.5265C267.606 91.5324 287.291 110.893 294.05 115.627C300.809 120.29 306.131 119.937 306.131 119.937C306.131 119.937 311.454 120.29 318.212 115.627C324.971 110.963 344.656 91.6031 418.749 85.5265C418.918 85.5265 419.51 84.9612 418.918 84.184Z" fill="#3EB489"/>
<path d="M383.012 35.5006C342.206 27.3043 306.215 55.3555 306.215 55.3555C306.215 55.3555 270.225 27.3043 229.419 35.5006C229.419 35.5006 217.845 50.3388 201.877 75.5637C201.877 75.5637 282.222 83.1241 306.215 111.317C330.209 83.1241 410.554 75.5637 410.554 75.5637C394.586 50.3388 383.012 35.5006 383.012 35.5006Z" fill="#F5EFFB"/>
<path d="M410.554 75.5637C410.554 75.5637 330.209 83.1241 306.216 111.317C282.306 83.1241 201.962 75.5637 201.962 75.5637C201.962 75.5637 201.962 77.8247 197.484 82.2762C197.484 82.2762 270.394 86.657 296.922 111.953C303.174 117.888 306.216 117.181 306.216 117.181C306.216 117.181 309.342 117.888 315.509 111.953C341.953 86.657 414.947 82.2762 414.947 82.2762C410.554 77.7541 410.554 75.5637 410.554 75.5637Z" fill="#DFCBF4"/>
<path d="M378.45 38.4682C378.45 38.4682 347.951 31.9677 306.216 59.0297C264.565 32.0384 233.981 38.4682 233.981 38.4682L213.367 71.9602C276.055 75.5637 306.216 102.06 306.216 102.06C306.216 102.06 336.377 75.5637 399.064 71.9602L378.45 38.4682ZM306.3 98.8808C306.3 98.8808 278.082 74.7158 218.267 69.9817L235.586 39.8814C235.586 39.8814 265.578 35.006 306.3 60.5842C347.022 35.006 377.014 39.8814 377.014 39.8814L394.333 69.9817C334.518 74.7158 306.3 98.8808 306.3 98.8808Z" fill="#D0DED8"/>
<path opacity="0.2" d="M313.988 84.2502C325.253 77.3022 360.455 61.9267 384.111 64.0464" stroke="#D0DED8" stroke-width="3" stroke-linecap="round"/>
<path opacity="0.2" d="M313.988 64.753C323.986 58.2063 349.979 45.3792 373.972 46.4444" stroke="#D0DED8" stroke-width="3" stroke-linecap="round"/>
<path opacity="0.2" d="M313.988 74.6451C324.83 67.5948 353.02 53.781 379.041 54.9282" stroke="#D0DED8" stroke-width="3" stroke-linecap="round"/>
<path opacity="0.2" d="M299.626 84.2502C288.361 77.3022 253.159 61.9267 229.503 64.0464" stroke="#D0DED8" stroke-width="3" stroke-linecap="round"/>
<path opacity="0.2" d="M299.626 64.753C289.628 58.2063 263.635 45.3792 239.642 46.4444" stroke="#D0DED8" stroke-width="3" stroke-linecap="round"/>
<path opacity="0.2" d="M299.626 74.6451C288.784 67.5948 260.594 53.781 234.573 54.9282" stroke="#D0DED8" stroke-width="3" stroke-linecap="round"/>
<path d="M306.3 55.3555C306.3 55.3555 307.145 52.8825 308.75 53.5891C308.75 53.5891 307.736 93.6521 309.426 109.268C309.848 113.154 313.904 118.453 315.509 120.432H313.397L312.805 122.057C312.805 122.057 306.553 113.224 306.3 109.762C305.033 94.2174 305.709 59.1004 306.3 55.3555Z" fill="#54DAF5"/>
</g>
<path d="M32.8723 77.606H27.8683L27.0403 80H24.3943L28.9123 67.418H31.8463L36.3643 80H33.7003L32.8723 77.606ZM32.1883 75.59L30.3703 70.334L28.5523 75.59H32.1883ZM40.573 66.68V80H38.053V66.68H40.573ZM50.7308 72.512V74.636H43.0988V72.512H50.7308ZM61.3149 67.436V69.47H56.0769V72.692H60.0909V74.69H56.0769V80H53.5569V67.436H61.3149ZM62.4539 74.978C62.4539 73.97 62.6519 73.076 63.0479 72.296C63.4559 71.516 64.0019 70.916 64.6859 70.496C65.3819 70.076 66.1559 69.866 67.0079 69.866C67.7519 69.866 68.3999 70.016 68.9519 70.316C69.5159 70.616 69.9659 70.994 70.3019 71.45V70.028H72.8399V80H70.3019V78.542C69.9779 79.01 69.5279 79.4 68.9519 79.712C68.3879 80.012 67.7339 80.162 66.9899 80.162C66.1499 80.162 65.3819 79.946 64.6859 79.514C64.0019 79.082 63.4559 78.476 63.0479 77.696C62.6519 76.904 62.4539 75.998 62.4539 74.978ZM70.3019 75.014C70.3019 74.402 70.1819 73.88 69.9419 73.448C69.7019 73.004 69.3779 72.668 68.9699 72.44C68.5619 72.2 68.1239 72.08 67.6559 72.08C67.1879 72.08 66.7559 72.194 66.3599 72.422C65.9639 72.65 65.6399 72.986 65.3879 73.43C65.1479 73.862 65.0279 74.378 65.0279 74.978C65.0279 75.578 65.1479 76.106 65.3879 76.562C65.6399 77.006 65.9639 77.348 66.3599 77.588C66.7679 77.828 67.1999 77.948 67.6559 77.948C68.1239 77.948 68.5619 77.834 68.9699 77.606C69.3779 77.366 69.7019 77.03 69.9419 76.598C70.1819 76.154 70.3019 75.626 70.3019 75.014ZM78.2351 72.098V76.922C78.2351 77.258 78.3131 77.504 78.4691 77.66C78.6371 77.804 78.9131 77.876 79.2971 77.876H80.4671V80H78.8831C76.7591 80 75.6971 78.968 75.6971 76.904V72.098H74.5091V70.028H75.6971V67.562H78.2351V70.028H80.4671V72.098H78.2351ZM83.5576 68.84C83.1136 68.84 82.7416 68.702 82.4416 68.426C82.1536 68.138 82.0096 67.784 82.0096 67.364C82.0096 66.944 82.1536 66.596 82.4416 66.32C82.7416 66.032 83.1136 65.888 83.5576 65.888C84.0016 65.888 84.3676 66.032 84.6556 66.32C84.9556 66.596 85.1056 66.944 85.1056 67.364C85.1056 67.784 84.9556 68.138 84.6556 68.426C84.3676 68.702 84.0016 68.84 83.5576 68.84ZM84.7996 70.028V80H82.2796V70.028H84.7996ZM92.9054 69.884C93.6614 69.884 94.3334 70.052 94.9214 70.388C95.5094 70.712 95.9654 71.198 96.2894 71.846C96.6254 72.482 96.7934 73.25 96.7934 74.15V80H94.2734V74.492C94.2734 73.7 94.0754 73.094 93.6794 72.674C93.2834 72.242 92.7434 72.026 92.0594 72.026C91.3634 72.026 90.8114 72.242 90.4034 72.674C90.0074 73.094 89.8094 73.7 89.8094 74.492V80H87.2894V66.68H89.8094V71.27C90.1334 70.838 90.5654 70.502 91.1054 70.262C91.6454 70.01 92.2454 69.884 92.9054 69.884ZM98.5418 74.978C98.5418 73.97 98.7398 73.076 99.1358 72.296C99.5438 71.516 100.09 70.916 100.774 70.496C101.47 70.076 102.244 69.866 103.096 69.866C103.84 69.866 104.488 70.016 105.04 70.316C105.604 70.616 106.054 70.994 106.39 71.45V70.028H108.928V80H106.39V78.542C106.066 79.01 105.616 79.4 105.04 79.712C104.476 80.012 103.822 80.162 103.078 80.162C102.238 80.162 101.47 79.946 100.774 79.514C100.09 79.082 99.5438 78.476 99.1358 77.696C98.7398 76.904 98.5418 75.998 98.5418 74.978ZM106.39 75.014C106.39 74.402 106.27 73.88 106.03 73.448C105.79 73.004 105.466 72.668 105.058 72.44C104.65 72.2 104.212 72.08 103.744 72.08C103.276 72.08 102.844 72.194 102.448 72.422C102.052 72.65 101.728 72.986 101.476 73.43C101.236 73.862 101.116 74.378 101.116 74.978C101.116 75.578 101.236 76.106 101.476 76.562C101.728 77.006 102.052 77.348 102.448 77.588C102.856 77.828 103.288 77.948 103.744 77.948C104.212 77.948 104.65 77.834 105.058 77.606C105.466 77.366 105.79 77.03 106.03 76.598C106.27 76.154 106.39 75.626 106.39 75.014ZM117.005 69.884C117.761 69.884 118.433 70.052 119.021 70.388C119.609 70.712 120.065 71.198 120.389 71.846C120.725 72.482 120.893 73.25 120.893 74.15V80H118.373V74.492C118.373 73.7 118.175 73.094 117.779 72.674C117.383 72.242 116.843 72.026 116.159 72.026C115.463 72.026 114.911 72.242 114.503 72.674C114.107 73.094 113.909 73.7 113.909 74.492V80H111.389V66.68H113.909V71.27C114.233 70.838 114.665 70.502 115.205 70.262C115.745 70.01 116.345 69.884 117.005 69.884Z" fill="white"/>
<path opacity="0.8" d="M30.7723 103.83H26.5163L25.7323 106H24.3883L27.9163 96.298H29.3863L32.9003 106H31.5563L30.7723 103.83ZM30.4083 102.794L28.6443 97.866L26.8803 102.794H30.4083ZM41.0459 98.328L36.4259 109.612H35.1099L36.6219 105.916L33.5279 98.328H34.9419L37.3499 104.544L39.7299 98.328H41.0459ZM41.8505 102.136C41.8505 101.352 42.0092 100.666 42.3265 100.078C42.6439 99.4807 43.0779 99.0187 43.6285 98.692C44.1885 98.3653 44.8092 98.202 45.4905 98.202C46.1625 98.202 46.7459 98.3467 47.2405 98.636C47.7352 98.9253 48.1039 99.2893 48.3465 99.728V98.328H49.6345V106H48.3465V104.572C48.0945 105.02 47.7165 105.393 47.2125 105.692C46.7179 105.981 46.1392 106.126 45.4765 106.126C44.7952 106.126 44.1792 105.958 43.6285 105.622C43.0779 105.286 42.6439 104.815 42.3265 104.208C42.0092 103.601 41.8505 102.911 41.8505 102.136ZM48.3465 102.15C48.3465 101.571 48.2299 101.067 47.9965 100.638C47.7632 100.209 47.4459 99.882 47.0445 99.658C46.6525 99.4247 46.2185 99.308 45.7425 99.308C45.2665 99.308 44.8325 99.42 44.4405 99.644C44.0485 99.868 43.7359 100.195 43.5025 100.624C43.2692 101.053 43.1525 101.557 43.1525 102.136C43.1525 102.724 43.2692 103.237 43.5025 103.676C43.7359 104.105 44.0485 104.437 44.4405 104.67C44.8325 104.894 45.2665 105.006 45.7425 105.006C46.2185 105.006 46.6525 104.894 47.0445 104.67C47.4459 104.437 47.7632 104.105 47.9965 103.676C48.2299 103.237 48.3465 102.729 48.3465 102.15ZM55.5955 98.188C56.1741 98.188 56.6968 98.314 57.1635 98.566C57.6301 98.8087 57.9941 99.1773 58.2555 99.672C58.5261 100.167 58.6615 100.769 58.6615 101.478V106H57.4015V101.66C57.4015 100.895 57.2101 100.311 56.8275 99.91C56.4448 99.4993 55.9221 99.294 55.2595 99.294C54.5875 99.294 54.0508 99.504 53.6495 99.924C53.2575 100.344 53.0615 100.955 53.0615 101.758V106H51.7875V95.64H53.0615V99.42C53.3135 99.028 53.6588 98.7247 54.0975 98.51C54.5455 98.2953 55.0448 98.188 55.5955 98.188ZM72.147 106H70.873L65.749 98.23V106H64.475V96.228H65.749L70.873 103.984V96.228H72.147V106ZM77.6647 106.126C76.9461 106.126 76.2927 105.963 75.7047 105.636C75.1261 105.309 74.6687 104.847 74.3327 104.25C74.0061 103.643 73.8427 102.943 73.8427 102.15C73.8427 101.366 74.0107 100.675 74.3467 100.078C74.6921 99.4713 75.1587 99.0093 75.7467 98.692C76.3347 98.3653 76.9927 98.202 77.7207 98.202C78.4487 98.202 79.1067 98.3653 79.6947 98.692C80.2827 99.0093 80.7447 99.4667 81.0807 100.064C81.4261 100.661 81.5987 101.357 81.5987 102.15C81.5987 102.943 81.4214 103.643 81.0667 104.25C80.7214 104.847 80.2501 105.309 79.6527 105.636C79.0554 105.963 78.3927 106.126 77.6647 106.126ZM77.6647 105.006C78.1221 105.006 78.5514 104.899 78.9527 104.684C79.3541 104.469 79.6761 104.147 79.9187 103.718C80.1707 103.289 80.2967 102.766 80.2967 102.15C80.2967 101.534 80.1754 101.011 79.9327 100.582C79.6901 100.153 79.3727 99.8353 78.9807 99.63C78.5887 99.4153 78.1641 99.308 77.7067 99.308C77.2401 99.308 76.8107 99.4153 76.4187 99.63C76.0361 99.8353 75.7281 100.153 75.4947 100.582C75.2614 101.011 75.1447 101.534 75.1447 102.15C75.1447 102.775 75.2567 103.303 75.4807 103.732C75.7141 104.161 76.0221 104.483 76.4047 104.698C76.7874 104.903 77.2074 105.006 77.6647 105.006ZM83.6798 106.084C83.4371 106.084 83.2318 106 83.0638 105.832C82.8958 105.664 82.8118 105.459 82.8118 105.216C82.8118 104.973 82.8958 104.768 83.0638 104.6C83.2318 104.432 83.4371 104.348 83.6798 104.348C83.9131 104.348 84.1091 104.432 84.2678 104.6C84.4358 104.768 84.5198 104.973 84.5198 105.216C84.5198 105.459 84.4358 105.664 84.2678 105.832C84.1091 106 83.9131 106.084 83.6798 106.084ZM83.6798 100.092C83.4371 100.092 83.2318 100.008 83.0638 99.84C82.8958 99.672 82.8118 99.4667 82.8118 99.224C82.8118 98.9813 82.8958 98.776 83.0638 98.608C83.2318 98.44 83.4371 98.356 83.6798 98.356C83.9131 98.356 84.1091 98.44 84.2678 98.608C84.4358 98.776 84.5198 98.9813 84.5198 99.224C84.5198 99.4667 84.4358 99.672 84.2678 99.84C84.1091 100.008 83.9131 100.092 83.6798 100.092ZM89.4407 97.04V95.878H92.0727V106H90.7847V97.04H89.4407Z" fill="white"/>
<g clip-path="url(#clip2_22_1758)">
<g clip-path="url(#clip3_22_1758)">
<path d="M42.2699 22.2256H37.4155C36.6041 22.2251 35.8167 22.5009 35.183 23.0077C34.5493 23.5145 34.1071 24.2221 33.9293 25.0138C33.751 24.2223 33.3088 23.515 32.6751 23.0083C32.0415 22.5015 31.2543 22.2255 30.443 22.2256H25.5924C25.1504 22.2258 24.7265 22.4015 24.4139 22.714C24.1014 23.0266 23.9257 23.4505 23.9255 23.8925V32.4275C23.9257 32.8695 24.1014 33.2934 24.4139 33.606C24.7265 33.9185 25.1504 34.0942 25.5924 34.0944H28.7068C32.2555 34.0944 33.3143 34.9413 33.8212 36.6988C33.8455 36.7963 34.0018 36.7963 34.0293 36.6988C34.5399 34.9419 35.5987 34.0944 39.1437 34.0944H42.258C42.7001 34.0942 43.1239 33.9185 43.4365 33.606C43.7491 33.2934 43.9247 32.8695 43.9249 32.4275V23.8963C43.9249 23.4557 43.7509 23.033 43.4407 22.7202C43.1304 22.4074 42.7092 22.2299 42.2687 22.2263L42.2699 22.2256ZM32.3287 31.4406C32.3288 31.4566 32.3258 31.4724 32.3198 31.4872C32.3137 31.502 32.3048 31.5154 32.2935 31.5267C32.2822 31.538 32.2688 31.547 32.254 31.553C32.2392 31.559 32.2234 31.562 32.2074 31.5619H26.6412C26.6252 31.562 26.6094 31.5589 26.5947 31.5528C26.5799 31.5468 26.5665 31.5378 26.5552 31.5266C26.544 31.5153 26.535 31.5019 26.529 31.4871C26.5229 31.4724 26.5198 31.4566 26.5199 31.4406V30.6456C26.5199 30.58 26.5718 30.5244 26.6412 30.5244H32.2105C32.2762 30.5244 32.3318 30.5763 32.3318 30.6456V31.4406H32.3287ZM32.3287 29.3263C32.3287 29.3422 32.3257 29.358 32.3196 29.3728C32.3135 29.3875 32.3046 29.4009 32.2933 29.4122C32.2821 29.4235 32.2687 29.4324 32.2539 29.4384C32.2392 29.4445 32.2234 29.4476 32.2074 29.4475H26.6412C26.6252 29.4476 26.6094 29.4445 26.5947 29.4384C26.5799 29.4324 26.5665 29.4235 26.5552 29.4122C26.544 29.4009 26.535 29.3875 26.529 29.3728C26.5229 29.358 26.5198 29.3422 26.5199 29.3263V28.5313C26.5199 28.465 26.5718 28.41 26.6412 28.41H32.2105C32.2762 28.41 32.3318 28.4619 32.3318 28.5313V29.3263H32.3287ZM32.3287 27.2119C32.3287 27.2278 32.3257 27.2436 32.3196 27.2584C32.3135 27.2731 32.3046 27.2865 32.2933 27.2978C32.2821 27.3091 32.2687 27.318 32.2539 27.3241C32.2392 27.3301 32.2234 27.3332 32.2074 27.3331H26.6412C26.6252 27.3332 26.6094 27.3301 26.5947 27.3241C26.5799 27.318 26.5665 27.3091 26.5552 27.2978C26.544 27.2865 26.535 27.2731 26.529 27.2584C26.5229 27.2436 26.5198 27.2278 26.5199 27.2119V26.4169C26.5199 26.3513 26.5718 26.2956 26.6412 26.2956H32.2105C32.2762 26.2956 32.3318 26.3475 32.3318 26.4169V27.2119H32.3287ZM41.3324 31.4375C41.3325 31.4535 41.3294 31.4693 41.3234 31.484C41.3173 31.4988 41.3084 31.5122 41.2971 31.5234C41.2858 31.5347 41.2724 31.5436 41.2577 31.5497C41.2429 31.5558 41.2271 31.5588 41.2112 31.5588H35.6449C35.629 31.5588 35.6132 31.5558 35.5984 31.5497C35.5837 31.5436 35.5703 31.5347 35.559 31.5234C35.5477 31.5122 35.5388 31.4988 35.5327 31.484C35.5267 31.4693 35.5236 31.4535 35.5237 31.4375V30.6425C35.5237 30.5769 35.5755 30.5213 35.6449 30.5213H41.2143C41.2805 30.5213 41.3355 30.5731 41.3355 30.6425V31.4375H41.3324ZM41.3324 29.3231C41.3326 29.3391 41.3296 29.3549 41.3235 29.3697C41.3175 29.3845 41.3086 29.3979 41.2973 29.4092C41.286 29.4205 41.2725 29.4295 41.2578 29.4355C41.243 29.4415 41.2271 29.4445 41.2112 29.4444H35.6449C35.629 29.4445 35.6132 29.4414 35.5984 29.4353C35.5837 29.4293 35.5703 29.4203 35.559 29.4091C35.5477 29.3978 35.5388 29.3844 35.5327 29.3696C35.5267 29.3549 35.5236 29.3391 35.5237 29.3231V28.5281C35.5237 28.4625 35.5755 28.4069 35.6449 28.4069H41.2143C41.2805 28.4069 41.3355 28.4588 41.3355 28.5281V29.3231H41.3324ZM41.3324 27.2081C41.3325 27.2241 41.3294 27.2399 41.3234 27.2546C41.3173 27.2694 41.3084 27.2828 41.2971 27.2941C41.2858 27.3053 41.2724 27.3143 41.2577 27.3203C41.2429 27.3264 41.2271 27.3295 41.2112 27.3294H35.6449C35.629 27.3295 35.6132 27.3264 35.5984 27.3203C35.5837 27.3143 35.5703 27.3053 35.559 27.2941C35.5477 27.2828 35.5388 27.2694 35.5327 27.2546C35.5267 27.2399 35.5236 27.2241 35.5237 27.2081V26.4163C35.5237 26.3506 35.5755 26.295 35.6449 26.295H41.2143C41.2805 26.295 41.3355 26.3469 41.3355 26.4163V27.2081H41.3324Z" fill="white"/>
</g>
<path d="M58.1843 29.002C58.7069 29.0953 59.1503 29.3707 59.5143 29.828C59.8783 30.2853 60.0603 30.8033 60.0603 31.382C60.0603 31.8767 59.9296 32.3247 59.6683 32.726C59.4163 33.118 59.0476 33.4307 58.5623 33.664C58.0769 33.888 57.5123 34 56.8683 34H52.9763V24.27H56.6863C57.3489 24.27 57.9183 24.382 58.3943 24.606C58.8703 24.83 59.2296 25.1333 59.4723 25.516C59.7149 25.8893 59.8363 26.3093 59.8363 26.776C59.8363 27.336 59.6869 27.8027 59.3883 28.176C59.0896 28.5493 58.6883 28.8247 58.1843 29.002ZM54.5723 28.358H56.5463C57.0689 28.358 57.4749 28.2413 57.7643 28.008C58.0629 27.7653 58.2123 27.42 58.2123 26.972C58.2123 26.5333 58.0629 26.1927 57.7643 25.95C57.4749 25.698 57.0689 25.572 56.5463 25.572H54.5723V28.358ZM56.7283 32.698C57.2696 32.698 57.6943 32.5673 58.0023 32.306C58.3103 32.0447 58.4643 31.6807 58.4643 31.214C58.4643 30.738 58.3009 30.36 57.9743 30.08C57.6476 29.8 57.2136 29.66 56.6723 29.66H54.5723V32.698H56.7283ZM61.2626 30.108C61.2626 29.3333 61.4213 28.6473 61.7386 28.05C62.0653 27.4527 62.504 26.9907 63.0546 26.664C63.6146 26.328 64.2306 26.16 64.9026 26.16C65.5093 26.16 66.0366 26.2813 66.4846 26.524C66.942 26.7573 67.306 27.0513 67.5766 27.406V26.286H69.1866V34H67.5766V32.852C67.306 33.216 66.9373 33.5193 66.4706 33.762C66.004 34.0047 65.472 34.126 64.8746 34.126C64.212 34.126 63.6053 33.958 63.0546 33.622C62.504 33.2767 62.0653 32.8007 61.7386 32.194C61.4213 31.578 61.2626 30.8827 61.2626 30.108ZM67.5766 30.136C67.5766 29.604 67.4646 29.142 67.2406 28.75C67.026 28.358 66.7413 28.0593 66.3866 27.854C66.032 27.6487 65.6493 27.546 65.2386 27.546C64.828 27.546 64.4453 27.6487 64.0906 27.854C63.736 28.05 63.4466 28.344 63.2226 28.736C63.008 29.1187 62.9006 29.576 62.9006 30.108C62.9006 30.64 63.008 31.1067 63.2226 31.508C63.4466 31.9093 63.736 32.2173 64.0906 32.432C64.4546 32.6373 64.8373 32.74 65.2386 32.74C65.6493 32.74 66.032 32.6373 66.3866 32.432C66.7413 32.2267 67.026 31.928 67.2406 31.536C67.4646 31.1347 67.5766 30.668 67.5766 30.136ZM75.1749 26.16C75.7816 26.16 76.3229 26.286 76.7989 26.538C77.2842 26.79 77.6622 27.1633 77.9329 27.658C78.2036 28.1527 78.3389 28.75 78.3389 29.45V34H76.7569V29.688C76.7569 28.9973 76.5842 28.47 76.2389 28.106C75.8936 27.7327 75.4222 27.546 74.8249 27.546C74.2276 27.546 73.7516 27.7327 73.3969 28.106C73.0516 28.47 72.8789 28.9973 72.8789 29.688V34H71.2829V26.286H72.8789V27.168C73.1402 26.8507 73.4716 26.6033 73.8729 26.426C74.2836 26.2487 74.7176 26.16 75.1749 26.16ZM84.2667 26.16C84.8734 26.16 85.4147 26.286 85.8907 26.538C86.376 26.79 86.754 27.1633 87.0247 27.658C87.2954 28.1527 87.4307 28.75 87.4307 29.45V34H85.8487V29.688C85.8487 28.9973 85.676 28.47 85.3307 28.106C84.9854 27.7327 84.514 27.546 83.9167 27.546C83.3194 27.546 82.8434 27.7327 82.4887 28.106C82.1434 28.47 81.9707 28.9973 81.9707 29.688V34H80.3747V26.286H81.9707V27.168C82.232 26.8507 82.5634 26.6033 82.9647 26.426C83.3754 26.2487 83.8094 26.16 84.2667 26.16ZM96.5365 29.954C96.5365 30.2433 96.5178 30.5047 96.4805 30.738H90.5865C90.6332 31.354 90.8618 31.8487 91.2725 32.222C91.6832 32.5953 92.1872 32.782 92.7845 32.782C93.6432 32.782 94.2498 32.4227 94.6045 31.704H96.3265C96.0932 32.4133 95.6685 32.9967 95.0525 33.454C94.4458 33.902 93.6898 34.126 92.7845 34.126C92.0472 34.126 91.3845 33.9627 90.7965 33.636C90.2178 33.3 89.7605 32.8333 89.4245 32.236C89.0978 31.6293 88.9345 30.9293 88.9345 30.136C88.9345 29.3427 89.0932 28.6473 89.4105 28.05C89.7372 27.4433 90.1898 26.9767 90.7685 26.65C91.3565 26.3233 92.0285 26.16 92.7845 26.16C93.5125 26.16 94.1612 26.3187 94.7305 26.636C95.2998 26.9533 95.7432 27.4013 96.0605 27.98C96.3778 28.5493 96.5365 29.2073 96.5365 29.954ZM94.8705 29.45C94.8612 28.862 94.6512 28.3907 94.2405 28.036C93.8298 27.6813 93.3212 27.504 92.7145 27.504C92.1638 27.504 91.6925 27.6813 91.3005 28.036C90.9085 28.3813 90.6752 28.8527 90.6005 29.45H94.8705ZM99.7031 27.406C99.9365 27.014 100.244 26.7107 100.627 26.496C101.019 26.272 101.481 26.16 102.013 26.16V27.812H101.607C100.982 27.812 100.506 27.9707 100.179 28.288C99.8618 28.6053 99.7031 29.156 99.7031 29.94V34H98.1071V26.286H99.7031V27.406ZM113.921 27.168C113.921 27.6627 113.804 28.1293 113.571 28.568C113.338 29.0067 112.964 29.366 112.451 29.646C111.938 29.9167 111.28 30.052 110.477 30.052H108.713V34H107.117V24.27H110.477C111.224 24.27 111.854 24.4007 112.367 24.662C112.89 24.914 113.277 25.2593 113.529 25.698C113.79 26.1367 113.921 26.6267 113.921 27.168ZM110.477 28.75C111.084 28.75 111.536 28.6147 111.835 28.344C112.134 28.064 112.283 27.672 112.283 27.168C112.283 26.104 111.681 25.572 110.477 25.572H108.713V28.75H110.477ZM117.039 23.64V34H115.443V23.64H117.039ZM118.602 30.108C118.602 29.3333 118.761 28.6473 119.078 28.05C119.405 27.4527 119.844 26.9907 120.394 26.664C120.954 26.328 121.57 26.16 122.242 26.16C122.849 26.16 123.376 26.2813 123.824 26.524C124.282 26.7573 124.646 27.0513 124.916 27.406V26.286H126.526V34H124.916V32.852C124.646 33.216 124.277 33.5193 123.81 33.762C123.344 34.0047 122.812 34.126 122.214 34.126C121.552 34.126 120.945 33.958 120.394 33.622C119.844 33.2767 119.405 32.8007 119.078 32.194C118.761 31.578 118.602 30.8827 118.602 30.108ZM124.916 30.136C124.916 29.604 124.804 29.142 124.58 28.75C124.366 28.358 124.081 28.0593 123.726 27.854C123.372 27.6487 122.989 27.546 122.578 27.546C122.168 27.546 121.785 27.6487 121.43 27.854C121.076 28.05 120.786 28.344 120.562 28.736C120.348 29.1187 120.24 29.576 120.24 30.108C120.24 30.64 120.348 31.1067 120.562 31.508C120.786 31.9093 121.076 32.2173 121.43 32.432C121.794 32.6373 122.177 32.74 122.578 32.74C122.989 32.74 123.372 32.6373 123.726 32.432C124.081 32.2267 124.366 31.928 124.58 31.536C124.804 31.1347 124.916 30.668 124.916 30.136ZM128.091 30.136C128.091 29.3427 128.249 28.6473 128.567 28.05C128.893 27.4433 129.341 26.9767 129.911 26.65C130.48 26.3233 131.133 26.16 131.871 26.16C132.804 26.16 133.574 26.384 134.181 26.832C134.797 27.2707 135.212 27.9007 135.427 28.722H133.705C133.565 28.3393 133.341 28.0407 133.033 27.826C132.725 27.6113 132.337 27.504 131.871 27.504C131.217 27.504 130.695 27.7373 130.303 28.204C129.92 28.6613 129.729 29.3053 129.729 30.136C129.729 30.9667 129.92 31.6153 130.303 32.082C130.695 32.5487 131.217 32.782 131.871 32.782C132.795 32.782 133.406 32.376 133.705 31.564H135.427C135.203 32.348 134.783 32.9733 134.167 33.44C133.551 33.8973 132.785 34.126 131.871 34.126C131.133 34.126 130.48 33.9627 129.911 33.636C129.341 33.3 128.893 32.8333 128.567 32.236C128.249 31.6293 128.091 30.9293 128.091 30.136ZM144.087 29.954C144.087 30.2433 144.069 30.5047 144.031 30.738H138.137C138.184 31.354 138.413 31.8487 138.823 32.222C139.234 32.5953 139.738 32.782 140.335 32.782C141.194 32.782 141.801 32.4227 142.155 31.704H143.877C143.644 32.4133 143.219 32.9967 142.603 33.454C141.997 33.902 141.241 34.126 140.335 34.126C139.598 34.126 138.935 33.9627 138.347 33.636C137.769 33.3 137.311 32.8333 136.975 32.236C136.649 31.6293 136.485 30.9293 136.485 30.136C136.485 29.3427 136.644 28.6473 136.961 28.05C137.288 27.4433 137.741 26.9767 138.319 26.65C138.907 26.3233 139.579 26.16 140.335 26.16C141.063 26.16 141.712 26.3187 142.281 26.636C142.851 26.9533 143.294 27.4013 143.611 27.98C143.929 28.5493 144.087 29.2073 144.087 29.954ZM142.421 29.45C142.412 28.862 142.202 28.3907 141.791 28.036C141.381 27.6813 140.872 27.504 140.265 27.504C139.715 27.504 139.243 27.6813 138.851 28.036C138.459 28.3813 138.226 28.8527 138.151 29.45H142.421Z" fill="white"/>
</g>
</g>
<defs>
<linearGradient id="paint0_linear_22_1758" x1="0" y1="0" x2="112.369" y2="273.9" gradientUnits="userSpaceOnUse">
<stop stop-color="#3EB489"/>
<stop offset="1" stop-color="#D0DED8"/>
</linearGradient>
<clipPath id="clip0_22_1758">
<rect width="390" height="160" fill="white"/>
</clipPath>
<clipPath id="clip1_22_1758">
<rect width="390" height="160" rx="10" fill="white"/>
</clipPath>
<clipPath id="clip2_22_1758">
<rect width="137" height="21" fill="white" transform="translate(23.9263 19)"/>
</clipPath>
<clipPath id="clip3_22_1758">
<rect width="20" height="20" fill="white" transform="translate(23.9263 19.5)"/>
</clipPath>
</defs>
</svg>
