<svg width="217" height="216" viewBox="0 0 217 216" fill="none" xmlns="http://www.w3.org/2000/svg">
<path d="M108.295 215.721H108.229C107.205 215.721 106.172 215.707 105.155 215.679C104.438 215.659 103.874 215.063 103.894 214.348C103.914 213.633 104.496 213.069 105.228 213.089C106.22 213.117 107.23 213.131 108.229 213.131H108.295C109.012 213.131 109.594 213.711 109.594 214.426C109.594 215.141 109.012 215.721 108.295 215.721ZM114.5 215.541C113.818 215.541 113.245 215.009 113.205 214.32C113.164 213.606 113.711 212.994 114.427 212.952C115.443 212.894 116.473 212.819 117.486 212.731C118.204 212.671 118.829 213.197 118.891 213.91C118.954 214.622 118.425 215.25 117.71 215.312C116.673 215.402 115.618 215.478 114.577 215.538C114.551 215.54 114.525 215.541 114.5 215.541ZM98.9956 215.329C98.9586 215.329 98.9212 215.327 98.8833 215.324C97.8411 215.234 96.7896 215.13 95.7574 215.011C95.0453 214.929 94.5337 214.287 94.6157 213.576C94.6973 212.866 95.3445 212.357 96.0537 212.437C97.0612 212.553 98.0882 212.656 99.1052 212.742C99.8196 212.804 100.349 213.431 100.288 214.144C100.23 214.819 99.6627 215.329 98.9956 215.329ZM123.762 214.602C123.128 214.602 122.573 214.138 122.479 213.494C122.376 212.786 122.867 212.128 123.576 212.025C124.58 211.879 125.599 211.716 126.604 211.54C127.307 211.417 127.983 211.887 128.107 212.591C128.231 213.296 127.759 213.967 127.053 214.091C126.024 214.272 124.98 214.439 123.95 214.589C123.887 214.598 123.824 214.602 123.762 214.602ZM89.7641 214.134C89.6901 214.134 89.6147 214.127 89.5393 214.114C88.5096 213.935 87.4708 213.739 86.4524 213.531C85.7497 213.388 85.297 212.703 85.4406 212.002C85.5843 211.301 86.2703 210.849 86.9725 210.993C87.9667 211.196 88.9804 211.387 89.9855 211.562C90.6919 211.686 91.1646 212.356 91.0414 213.061C90.9314 213.691 90.3828 214.134 89.7641 214.134ZM132.907 212.861C132.319 212.861 131.786 212.46 131.645 211.864C131.479 211.168 131.911 210.47 132.609 210.305C133.602 210.07 134.603 209.818 135.583 209.557C136.275 209.372 136.987 209.782 137.173 210.473C137.358 211.164 136.947 211.874 136.254 212.059C135.25 212.327 134.225 212.585 133.207 212.825C133.106 212.85 133.006 212.861 132.907 212.861ZM80.6705 212.139C80.5596 212.139 80.4472 212.125 80.3353 212.095C79.3335 211.828 78.316 211.542 77.3114 211.244C76.6244 211.039 76.2332 210.318 76.4376 209.633C76.6419 208.947 77.365 208.556 78.0524 208.761C79.0334 209.053 80.0262 209.332 81.0038 209.592C81.6965 209.777 82.1085 210.486 81.9241 211.177C81.7691 211.756 81.2442 212.139 80.6705 212.139ZM141.865 210.327C141.321 210.327 140.814 209.983 140.633 209.44C140.407 208.761 140.775 208.028 141.456 207.803C142.422 207.483 143.396 207.144 144.352 206.796C145.025 206.551 145.771 206.897 146.017 207.57C146.262 208.242 145.915 208.985 145.242 209.231C144.262 209.587 143.263 209.934 142.274 210.261C142.138 210.306 142 210.327 141.865 210.327ZM71.7874 209.355C71.6405 209.355 71.4906 209.33 71.3441 209.277C70.3585 208.92 69.3675 208.544 68.3975 208.16C67.7314 207.896 67.4052 207.143 67.6697 206.479C67.9343 205.814 68.6896 205.488 69.3552 205.752C70.3016 206.127 71.2688 206.494 72.2307 206.842C72.9045 207.087 73.2525 207.83 73.0078 208.502C72.8158 209.028 72.3175 209.355 71.7874 209.355ZM150.555 207.023C150.052 207.023 149.574 206.731 149.362 206.241C149.077 205.585 149.38 204.822 150.038 204.538C150.972 204.135 151.91 203.714 152.826 203.287C153.476 202.984 154.249 203.264 154.553 203.912C154.856 204.56 154.575 205.331 153.926 205.634C152.988 206.072 152.026 206.503 151.069 206.916C150.901 206.988 150.726 207.023 150.555 207.023ZM63.1661 205.796C62.9826 205.796 62.7958 205.757 62.6185 205.675C61.6717 205.234 60.7182 204.773 59.7837 204.305C59.1432 203.983 58.8848 203.205 59.2067 202.566C59.5287 201.927 60.3081 201.669 60.9501 201.99C61.8613 202.447 62.7915 202.897 63.7156 203.326C64.3656 203.629 64.6468 204.399 64.3438 205.048C64.1233 205.519 63.6549 205.796 63.1661 205.796ZM158.915 202.975C158.453 202.975 158.007 202.728 157.772 202.295C157.431 201.666 157.666 200.88 158.296 200.54C159.19 200.058 160.088 199.557 160.967 199.049C161.588 198.691 162.382 198.903 162.741 199.522C163.1 200.141 162.888 200.933 162.267 201.291C161.367 201.812 160.446 202.325 159.531 202.819C159.335 202.924 159.123 202.975 158.915 202.975ZM54.8961 201.499C54.6756 201.499 54.4523 201.443 54.2475 201.325C53.3409 200.803 52.4316 200.261 51.5459 199.715C50.9357 199.339 50.7466 198.541 51.1235 197.932C51.5 197.323 52.2998 197.134 52.9104 197.51C53.7748 198.043 54.6618 198.571 55.5465 199.082C56.1676 199.44 56.3796 200.232 56.0211 200.851C55.7808 201.267 55.3446 201.499 54.8961 201.499ZM166.894 198.212C166.472 198.212 166.058 198.006 165.809 197.628C165.414 197.031 165.58 196.228 166.179 195.834C167.024 195.278 167.876 194.7 168.711 194.117C169.299 193.706 170.108 193.848 170.519 194.433C170.931 195.019 170.789 195.827 170.202 196.237C169.347 196.836 168.474 197.428 167.607 197.998C167.387 198.142 167.14 198.212 166.894 198.212ZM47.0376 196.5C46.7801 196.5 46.5203 196.424 46.2937 196.265C45.4379 195.667 44.5802 195.049 43.7443 194.427C43.1697 194 43.0507 193.188 43.4788 192.615C43.9074 192.041 44.721 191.922 45.2956 192.35C46.1111 192.956 46.9479 193.56 47.7833 194.144C48.3708 194.554 48.513 195.362 48.1015 195.948C47.8493 196.307 47.4462 196.5 47.0376 196.5ZM174.432 192.772C174.049 192.772 173.67 192.604 173.414 192.281C172.968 191.72 173.063 190.906 173.625 190.462C174.424 189.831 175.223 189.18 176 188.529C176.549 188.069 177.368 188.14 177.83 188.688C178.29 189.236 178.219 190.053 177.67 190.513C176.874 191.18 176.055 191.847 175.238 192.493C174.999 192.681 174.715 192.772 174.432 192.772ZM39.6484 190.84C39.354 190.84 39.0577 190.74 38.8145 190.537C38.0141 189.867 37.2138 189.177 36.4358 188.486C35.9001 188.01 35.8526 187.192 36.3291 186.657C36.8056 186.123 37.6263 186.076 38.1621 186.551C38.9216 187.225 39.7025 187.898 40.4833 188.552C41.0324 189.012 41.1044 189.829 40.6431 190.377C40.3871 190.683 40.0187 190.84 39.6484 190.84ZM181.472 186.699C181.127 186.699 180.782 186.562 180.527 186.292C180.035 185.772 180.059 184.952 180.581 184.461C181.32 183.766 182.06 183.049 182.78 182.33C183.288 181.824 184.11 181.825 184.616 182.33C185.123 182.836 185.123 183.656 184.616 184.162C183.877 184.898 183.119 185.633 182.363 186.345C182.111 186.581 181.791 186.699 181.472 186.699ZM32.7818 184.564C32.4499 184.564 32.1175 184.438 31.8644 184.185C31.1257 183.449 30.3889 182.693 29.6744 181.938C29.1818 181.418 29.2055 180.599 29.7266 180.107C30.2481 179.617 31.0693 179.639 31.5619 180.16C32.2593 180.896 32.9785 181.634 33.6997 182.353C34.207 182.858 34.207 183.678 33.7002 184.184C33.447 184.438 33.1141 184.564 32.7818 184.564ZM187.96 180.038C187.652 180.038 187.344 179.93 187.096 179.71C186.561 179.234 186.513 178.415 186.99 177.881C187.667 177.124 188.342 176.345 188.998 175.566C189.459 175.019 190.278 174.948 190.827 175.408C191.376 175.868 191.447 176.685 190.986 177.233C190.314 178.031 189.622 178.829 188.929 179.604C188.673 179.891 188.317 180.038 187.96 180.038ZM26.4883 177.722C26.1181 177.722 25.7506 177.565 25.4941 177.26C24.8237 176.465 24.1557 175.648 23.5085 174.834C23.0633 174.273 23.1577 173.458 23.7195 173.014C24.2813 172.569 25.0982 172.664 25.5434 173.225C26.1754 174.02 26.8273 174.817 27.4816 175.593C27.9434 176.14 27.8723 176.958 27.3233 177.418C27.0796 177.622 26.7832 177.722 26.4883 177.722ZM193.848 172.837C193.578 172.837 193.305 172.754 193.072 172.58C192.498 172.153 192.379 171.341 192.807 170.768C193.418 169.952 194.023 169.117 194.607 168.286C195.019 167.701 195.828 167.559 196.415 167.97C197.002 168.381 197.144 169.189 196.732 169.774C196.134 170.625 195.514 171.48 194.889 172.316C194.635 172.657 194.243 172.837 193.848 172.837ZM20.8151 170.364C20.4064 170.364 20.0038 170.172 19.7516 169.813C19.1519 168.961 18.5578 168.09 17.9855 167.226C17.5906 166.629 17.7556 165.825 18.3539 165.431C18.9522 165.037 19.7578 165.202 20.1527 165.799C20.7112 166.643 21.2911 167.493 21.8761 168.325C22.2881 168.91 22.1469 169.718 21.5599 170.129C21.3333 170.288 21.073 170.364 20.8151 170.364ZM199.088 165.151C198.855 165.151 198.619 165.088 198.406 164.957C197.797 164.581 197.608 163.783 197.985 163.174C198.521 162.309 199.052 161.424 199.562 160.544C199.921 159.926 200.715 159.713 201.336 160.072C201.956 160.43 202.168 161.223 201.809 161.842C201.287 162.744 200.743 163.65 200.194 164.536C199.948 164.933 199.523 165.151 199.088 165.151ZM15.8055 162.547C15.3575 162.547 14.9218 162.315 14.6809 161.9C14.1584 161.001 13.6426 160.083 13.1481 159.171C12.8067 158.542 13.0414 157.756 13.672 157.416C14.3021 157.075 15.0906 157.309 15.4319 157.938C15.9146 158.828 16.4181 159.724 16.9278 160.601C17.2872 161.22 17.0762 162.013 16.4555 162.371C16.2507 162.49 16.0265 162.547 15.8055 162.547ZM203.639 157.034C203.443 157.034 203.244 156.989 203.056 156.896C202.416 156.574 202.158 155.795 202.481 155.156C202.937 154.251 203.389 153.324 203.822 152.398C204.125 151.749 204.898 151.469 205.548 151.772C206.197 152.075 206.478 152.846 206.175 153.494C205.73 154.443 205.268 155.394 204.8 156.321C204.572 156.773 204.114 157.034 203.639 157.034ZM11.4996 154.327C11.0113 154.327 10.5438 154.051 10.3228 153.581C9.88238 152.642 9.4495 151.684 9.03607 150.731C8.75113 150.074 9.05362 149.312 9.71122 149.028C10.3698 148.743 11.1336 149.045 11.4185 149.701C11.822 150.631 12.2444 151.566 12.6745 152.482C12.9784 153.13 12.6986 153.901 12.0491 154.205C11.8713 154.288 11.684 154.327 11.4996 154.327ZM207.463 148.547C207.304 148.547 207.141 148.517 206.984 148.455C206.317 148.191 205.992 147.437 206.257 146.773C206.634 145.827 207.002 144.862 207.351 143.905C207.596 143.232 208.341 142.886 209.015 143.131C209.688 143.376 210.036 144.119 209.791 144.791C209.433 145.772 209.056 146.761 208.669 147.73C208.467 148.237 207.979 148.547 207.463 148.547ZM7.93233 145.77C7.40274 145.77 6.90539 145.445 6.7129 144.919C6.35399 143.94 6.00599 142.944 5.67743 141.959C5.45128 141.28 5.81966 140.547 6.50002 140.321C7.17943 140.097 7.91526 140.463 8.14142 141.142C8.46144 142.103 8.80139 143.075 9.15129 144.03C9.39736 144.703 9.05126 145.446 8.37753 145.691C8.23103 145.745 8.08025 145.77 7.93233 145.77ZM210.522 139.764C210.399 139.764 210.273 139.747 210.15 139.71C209.463 139.505 209.072 138.783 209.278 138.098C209.568 137.129 209.849 136.138 210.113 135.154C210.298 134.463 211.01 134.053 211.702 134.237C212.395 134.422 212.806 135.132 212.621 135.823C212.351 136.831 212.063 137.846 211.765 138.84C211.597 139.401 211.081 139.764 210.522 139.764ZM5.12414 136.914C4.55093 136.914 4.02655 136.533 3.87104 135.955C3.6008 134.951 3.34145 133.927 3.1006 132.915C2.93514 132.219 3.36657 131.521 4.064 131.356C4.76332 131.19 5.4617 131.621 5.62717 132.317C5.86185 133.304 6.11504 134.302 6.37865 135.283C6.56451 135.974 6.15392 136.684 5.46124 136.87C5.3484 136.9 5.23556 136.914 5.12414 136.914ZM212.794 130.756C212.708 130.756 212.62 130.747 212.532 130.729C211.829 130.585 211.377 129.901 211.521 129.2C211.726 128.206 211.918 127.195 212.094 126.195C212.217 125.49 212.886 125.018 213.596 125.142C214.302 125.265 214.775 125.936 214.651 126.641C214.472 127.666 214.274 128.703 214.064 129.721C213.939 130.334 213.398 130.756 212.794 130.756ZM3.10581 127.847C2.48756 127.847 1.93996 127.405 1.82902 126.776C1.64885 125.757 1.48054 124.716 1.32835 123.682C1.22452 122.974 1.71523 122.316 2.42451 122.212C3.13379 122.11 3.79376 122.598 3.89759 123.306C4.04599 124.316 4.21051 125.332 4.38641 126.326C4.51111 127.031 4.03983 127.702 3.33339 127.827C3.25659 127.841 3.18072 127.847 3.10581 127.847ZM214.266 121.585C214.216 121.585 214.166 121.582 214.115 121.576C213.403 121.494 212.892 120.851 212.974 120.141C213.092 119.134 213.195 118.11 213.282 117.097C213.344 116.385 213.97 115.858 214.687 115.918C215.401 115.98 215.93 116.607 215.869 117.32C215.779 118.357 215.673 119.406 215.554 120.438C215.477 121.098 214.916 121.585 214.266 121.585ZM1.89113 118.639C1.225 118.639 0.658422 118.131 0.599157 117.457C0.508601 116.421 0.431322 115.369 0.370635 114.33C0.328913 113.616 0.875096 113.003 1.59054 112.961C2.30978 112.916 2.9209 113.464 2.96263 114.178C3.02189 115.193 3.09728 116.219 3.18642 117.23C3.249 117.943 2.72035 118.571 2.00633 118.634C1.96745 118.637 1.92906 118.639 1.89113 118.639ZM214.932 112.321C214.92 112.321 214.907 112.321 214.894 112.32C214.177 112.3 213.613 111.704 213.633 110.989C213.662 109.975 213.677 108.945 213.677 107.929L213.677 107.668C213.675 106.952 214.255 106.371 214.971 106.369C215.666 106.363 216.271 106.946 216.273 107.661L216.274 107.925C216.274 108.969 216.259 110.024 216.229 111.062C216.209 111.765 215.632 112.321 214.932 112.321ZM1.48149 109.358C0.764621 109.358 0.18335 108.778 0.18335 108.063V107.936C0.18335 106.937 0.197098 105.928 0.224123 104.931C0.244036 104.216 0.851386 103.662 1.55735 103.672C2.27421 103.691 2.83936 104.286 2.81992 105.001C2.79337 105.975 2.77962 106.96 2.77962 107.929L2.7801 108.063C2.77963 108.778 2.19835 109.358 1.48149 109.358ZM214.781 102.769C214.1 102.769 213.528 102.239 213.486 101.551C213.425 100.534 213.349 99.5074 213.259 98.4994C213.196 97.7868 213.724 97.1581 214.438 97.0946C215.149 97.0301 215.782 97.5574 215.846 98.2704C215.938 99.3031 216.016 100.355 216.079 101.396C216.121 102.11 215.576 102.724 214.86 102.766C214.833 102.768 214.807 102.769 214.781 102.769ZM1.87074 100.079C1.83376 100.079 1.79677 100.077 1.75932 100.074C1.04482 100.013 0.514756 99.3865 0.575443 98.6739C0.663629 97.6403 0.768415 96.5906 0.886944 95.5547C0.968493 94.844 1.61567 94.3357 2.324 94.4149C3.0366 94.496 3.54817 95.1379 3.46662 95.8486C3.35094 96.8599 3.24853 97.8845 3.16224 98.8934C3.10535 99.5685 2.53783 100.079 1.87074 100.079ZM213.823 93.5307C213.19 93.5307 212.636 93.0679 212.54 92.4245C212.392 91.4199 212.226 90.4043 212.048 89.4049C211.922 88.7003 212.393 88.0281 213.099 87.9029C213.805 87.7777 214.479 88.2471 214.604 88.9516C214.786 89.9753 214.956 91.0164 215.108 92.0457C215.213 92.7536 214.723 93.4117 214.014 93.5164C213.95 93.5264 213.886 93.5307 213.823 93.5307ZM3.06266 90.8675C2.9887 90.8675 2.9138 90.8614 2.83889 90.8481C2.13245 90.7258 1.65928 90.0549 1.78208 89.3504C1.95987 88.3277 2.15663 87.2908 2.36477 86.27C2.50843 85.5688 3.19447 85.1179 3.89616 85.2597C4.5988 85.4029 5.05254 86.087 4.90889 86.7873C4.70501 87.7839 4.51347 88.7956 4.33994 89.7937C4.23042 90.4233 3.68234 90.8675 3.06266 90.8675ZM212.061 84.411C211.474 84.411 210.942 84.0109 210.8 83.4158C210.565 82.433 210.31 81.4354 210.044 80.4512C209.858 79.7604 210.267 79.0497 210.96 78.8634C211.652 78.677 212.365 79.0857 212.551 79.7765C212.824 80.785 213.084 81.8072 213.325 82.8151C213.492 83.5111 213.061 84.2095 212.364 84.3755C212.262 84.3996 212.161 84.411 212.061 84.411ZM5.05634 81.7948C4.94587 81.7948 4.83349 81.7806 4.72208 81.7512C4.02939 81.5677 3.61644 80.858 3.80087 80.1667C4.06827 79.1635 4.35463 78.1484 4.65238 77.149C4.85672 76.4634 5.57786 76.0718 6.26675 76.2771C6.95375 76.4809 7.34538 77.2021 7.14103 77.8876C6.8504 78.8629 6.57066 79.8533 6.3099 80.8319C6.15581 81.4118 5.63049 81.7948 5.05634 81.7948ZM209.505 75.4801C208.962 75.4801 208.456 75.1373 208.274 74.5949C207.952 73.6329 207.611 72.6614 207.26 71.7075C207.013 71.0357 207.359 70.2918 208.032 70.0457C208.706 69.7987 209.451 70.1443 209.698 70.8157C210.058 71.7933 210.407 72.789 210.737 73.7747C210.964 74.4531 210.597 75.1866 209.917 75.4132C209.78 75.4587 209.642 75.4801 209.505 75.4801ZM7.84035 72.9321C7.69337 72.9321 7.54403 72.907 7.398 72.8539C6.72381 72.6102 6.37534 71.8673 6.61998 71.195C6.97557 70.2159 7.35154 69.2269 7.73747 68.2545C8.00156 67.5898 8.7554 67.2636 9.42248 67.5272C10.0891 67.7903 10.4153 68.5433 10.1517 69.2084C9.77475 70.1572 9.40826 71.1224 9.0612 72.0778C8.86966 72.6045 8.37088 72.9321 7.84035 72.9321ZM206.178 66.8179C205.676 66.8179 205.198 66.5268 204.986 66.0385C204.581 65.1092 204.158 64.1743 203.727 63.2587C203.422 62.6116 203.701 61.8402 204.35 61.5358C204.998 61.2314 205.772 61.5102 206.077 62.1574C206.519 63.0952 206.953 64.0538 207.368 65.0059C207.653 65.662 207.352 66.4249 206.694 66.7098C206.526 66.7833 206.35 66.8179 206.178 66.8179ZM11.4015 64.3293C11.218 64.3293 11.0316 64.2904 10.8543 64.2079C10.2043 63.9059 9.92268 63.1355 10.2252 62.4869C10.6685 61.5377 11.1293 60.5857 11.5963 59.6583C11.9178 59.0187 12.6982 58.7608 13.3387 59.0818C13.9797 59.4027 14.2381 60.1808 13.9166 60.8203C13.461 61.7254 13.0111 62.6542 12.5792 63.5807C12.3592 64.0524 11.8903 64.3293 11.4015 64.3293ZM202.105 58.4848C201.644 58.4848 201.198 58.2397 200.963 57.8073C200.477 56.9155 199.973 56.0199 199.464 55.1456C199.103 54.5269 199.314 53.7346 199.934 53.3748C200.554 53.0164 201.348 53.2255 201.709 53.8437C202.23 54.7393 202.747 55.6572 203.245 56.5708C203.587 57.1995 203.353 57.9861 202.723 58.327C202.526 58.4341 202.314 58.4848 202.105 58.4848ZM15.7031 56.0763C15.4831 56.0763 15.2598 56.0204 15.0555 55.9028C14.4344 55.5453 14.2215 54.7531 14.5795 54.1334C15.1024 53.2288 15.6453 52.3218 16.1924 51.4366C16.5693 50.8274 17.3692 50.6387 17.9789 51.0142C18.5891 51.3897 18.7787 52.1876 18.4023 52.7964C17.8684 53.6597 17.3388 54.5454 16.8287 55.4273C16.5883 55.844 16.1521 56.0763 15.7031 56.0763ZM197.316 50.5329C196.895 50.5329 196.482 50.3286 196.232 49.9521C195.671 49.1049 195.089 48.2558 194.506 47.4289C194.093 46.8443 194.234 46.0359 194.82 45.6244C195.406 45.2129 196.216 45.3523 196.628 45.9378C197.227 46.7855 197.822 47.655 198.398 48.5231C198.793 49.1196 198.63 49.9237 198.031 50.3182C197.811 50.4632 197.562 50.5329 197.316 50.5329ZM20.7093 48.2335C20.4519 48.2335 20.1925 48.1576 19.9659 47.9993C19.3785 47.5891 19.2358 46.7812 19.6468 46.1957C20.2428 45.3461 20.862 44.4903 21.4869 43.6516C21.915 43.0779 22.7281 42.9584 23.3037 43.3851C23.8788 43.8119 23.9983 44.6231 23.5706 45.1972C22.9604 46.016 22.3559 46.8514 21.7737 47.6811C21.5215 48.0405 21.1185 48.2335 20.7093 48.2335ZM191.85 43.0224C191.468 43.0224 191.089 42.8546 190.833 42.5332C190.201 41.7404 189.548 40.9444 188.891 40.1668C188.429 39.6197 188.499 38.8028 189.047 38.3419C189.596 37.8806 190.415 37.9508 190.876 38.4975C191.549 39.294 192.218 40.1095 192.865 40.9211C193.311 41.4811 193.217 42.2956 192.656 42.7408C192.418 42.9305 192.133 43.0224 191.85 43.0224ZM26.3783 40.8572C26.0839 40.8572 25.7881 40.7576 25.5453 40.5547C24.9958 40.0952 24.9238 39.2783 25.3841 38.7302C26.055 37.9314 26.7463 37.133 27.4375 36.3563C27.914 35.8215 28.7347 35.7737 29.2705 36.2482C29.8062 36.7238 29.8546 37.5421 29.3786 38.0769C28.7034 38.835 28.0288 39.6145 27.374 40.3944C27.1175 40.6997 26.7491 40.8572 26.3783 40.8572ZM185.748 36.0098C185.404 36.0098 185.061 35.8742 184.805 35.6049C184.105 34.8667 183.384 34.1294 182.665 33.4145C182.157 32.9095 182.155 32.0893 182.662 31.5829C183.168 31.0761 183.99 31.0751 184.498 31.5801C185.235 32.3131 185.973 33.0679 186.691 33.8241C187.184 34.3437 187.162 35.163 186.641 35.6551C186.39 35.8922 186.068 36.0098 185.748 36.0098ZM32.6647 34.0024C32.3328 34.0024 32.0014 33.8762 31.7477 33.624C31.24 33.1186 31.2395 32.2984 31.7458 31.792C32.4807 31.0571 33.2384 30.3213 33.9965 29.6059C34.518 29.1147 35.3392 29.1374 35.8318 29.6566C36.3249 30.1767 36.3016 30.996 35.7806 31.4876C35.0405 32.1865 34.3009 32.9043 33.5835 33.6216C33.3303 33.8753 32.9975 34.0024 32.6647 34.0024ZM179.058 29.548C178.752 29.548 178.444 29.4404 178.197 29.2213C177.435 28.5462 176.653 27.8739 175.873 27.2229C175.323 26.764 175.251 25.9471 175.711 25.3985C176.172 24.8505 176.99 24.7779 177.54 25.2369C178.338 25.9035 179.139 26.5924 179.92 27.2841C180.457 27.7592 180.505 28.5775 180.029 29.1128C179.773 29.401 179.417 29.548 179.058 29.548ZM39.5204 27.7189C39.1506 27.7189 38.7832 27.5619 38.5267 27.258C38.0649 26.7109 38.135 25.894 38.6836 25.4332C39.4777 24.7661 40.2956 24.099 41.1144 23.4509C41.6762 23.0057 42.4927 23.1 42.9383 23.66C43.384 24.2199 43.2901 25.0349 42.7283 25.4796C41.9289 26.1126 41.1305 26.7635 40.3558 27.4145C40.1126 27.6188 39.8158 27.7189 39.5204 27.7189ZM171.83 23.6874C171.56 23.6874 171.289 23.6045 171.056 23.4319C170.24 22.8269 169.403 22.2248 168.566 21.6416C167.978 21.232 167.835 20.4241 168.246 19.8381C168.657 19.2516 169.465 19.1084 170.054 19.5181C170.911 20.1155 171.769 20.7328 172.605 21.3529C173.181 21.7796 173.301 22.5908 172.873 23.165C172.618 23.5068 172.226 23.6874 171.83 23.6874ZM46.8925 22.0536C46.4843 22.0536 46.0822 21.8621 45.8295 21.5037C45.417 20.9186 45.5578 20.1107 46.1448 19.6992C46.9954 19.1023 47.8677 18.5091 48.7373 17.9355C49.3361 17.541 50.1411 17.7055 50.5361 18.302C50.9315 18.8989 50.767 19.702 50.1686 20.097C49.3195 20.6564 48.468 21.2358 47.6383 21.818C47.4112 21.9773 47.1504 22.0536 46.8925 22.0536ZM164.115 18.4731C163.883 18.4731 163.648 18.411 163.436 18.2806C162.565 17.7458 161.677 17.2181 160.797 16.7122C160.176 16.3552 159.963 15.563 160.321 14.9433C160.679 14.3236 161.473 14.1108 162.094 14.4678C162.995 14.986 163.905 15.5265 164.797 16.0746C165.408 16.4496 165.598 17.2475 165.222 17.8563C164.977 18.2541 164.551 18.4731 164.115 18.4731ZM54.7258 17.0512C54.2783 17.0512 53.8426 16.8199 53.6017 16.4059C53.2419 15.7872 53.4524 14.9945 54.073 14.6356C54.9743 14.1141 55.8941 13.5992 56.8077 13.1052C57.4378 12.7643 58.2263 12.9975 58.5676 13.6267C58.9095 14.2558 58.6757 15.0419 58.0451 15.3828C57.1538 15.865 56.2558 16.3675 55.3763 16.8768C55.171 16.9948 54.9468 17.0512 54.7258 17.0512ZM155.971 13.9481C155.775 13.9481 155.577 13.904 155.39 13.8106C154.479 13.355 153.548 12.907 152.623 12.4779C151.972 12.1763 151.69 11.4059 151.992 10.7573C152.294 10.1087 153.065 9.82757 153.716 10.1286C154.665 10.5686 155.62 11.028 156.553 11.4946C157.194 11.8151 157.453 12.5936 157.132 13.2332C156.905 13.6859 156.446 13.9481 155.971 13.9481ZM62.9613 12.7505C62.4734 12.7505 62.0055 12.4746 61.785 12.0052C61.4806 11.3576 61.7603 10.5862 62.4094 10.2823C63.3519 9.84132 64.313 9.40892 65.265 8.99644C65.9231 8.71244 66.6874 9.01256 66.9728 9.66922C67.2582 10.3254 66.9562 11.0882 66.2986 11.3732C65.3693 11.7752 64.432 12.1977 63.5117 12.6282C63.333 12.7112 63.1457 12.7505 62.9613 12.7505ZM147.457 10.15C147.298 10.15 147.137 10.121 146.98 10.0589C146.032 9.68486 145.064 9.31978 144.104 8.9732C143.429 8.72951 143.081 7.98705 143.324 7.31475C143.568 6.64197 144.313 6.29491 144.986 6.53719C145.971 6.89278 146.963 7.26734 147.935 7.65043C148.601 7.91356 148.928 8.66598 148.664 9.33116C148.463 9.83989 147.974 10.15 147.457 10.15ZM71.5357 9.18704C71.0061 9.18704 70.5087 8.86179 70.3163 8.33647C70.0697 7.66464 70.4158 6.92076 71.0891 6.67516C72.0662 6.31815 73.0638 5.97062 74.0552 5.64063C74.7365 5.41448 75.4709 5.78098 75.6975 6.45944C75.9246 7.13791 75.5567 7.87136 74.8768 8.09799C73.9091 8.41992 72.9353 8.75939 71.9814 9.10739C71.8339 9.16144 71.6836 9.18704 71.5357 9.18704ZM138.648 7.11467C138.526 7.11467 138.402 7.09712 138.279 7.06109C137.303 6.77235 136.31 6.49405 135.326 6.23376C134.633 6.05028 134.22 5.34099 134.404 4.64973C134.588 3.95799 135.3 3.5474 135.992 3.72946C137 3.99639 138.018 4.28135 139.017 4.5772C139.705 4.78059 140.096 5.50125 139.893 6.1873C139.725 6.75055 139.209 7.11467 138.648 7.11467ZM80.4097 6.38073C79.837 6.38073 79.3131 6.00002 79.1566 5.42207C78.9703 4.73128 79.3804 4.02058 80.0726 3.83472C81.0825 3.56353 82.1076 3.30419 83.1193 3.06428C83.8163 2.89739 84.5166 3.32884 84.6825 4.02485C84.8484 4.72085 84.417 5.41923 83.7196 5.5847C82.7325 5.81844 81.733 6.07161 80.7478 6.33617C80.635 6.36651 80.5212 6.38073 80.4097 6.38073ZM129.616 4.8664C129.53 4.8664 129.443 4.85787 129.356 4.83985C128.359 4.63788 127.345 4.44729 126.342 4.27423C125.636 4.15238 125.162 3.48197 125.285 2.77696C125.407 2.07195 126.08 1.60068 126.785 1.72158C127.813 1.8989 128.852 2.09423 129.873 2.30142C130.576 2.44366 131.03 3.12782 130.887 3.82856C130.762 4.44302 130.221 4.8664 129.616 4.8664ZM89.4962 4.36242C88.8784 4.36242 88.3308 3.92101 88.2194 3.29281C88.0942 2.58827 88.5655 1.91645 89.2715 1.79176C90.2946 1.61112 91.3382 1.44233 92.3732 1.29013C93.0839 1.18678 93.7424 1.67559 93.8467 2.38297C93.951 3.09035 93.4608 3.74891 92.7515 3.85322C91.7416 4.00162 90.7227 4.16613 89.7243 4.3425C89.6479 4.35625 89.5716 4.36242 89.4962 4.36242ZM120.421 3.41513C120.373 3.41513 120.323 3.41275 120.273 3.40659C119.259 3.29185 118.232 3.1904 117.221 3.10506C116.507 3.04484 115.976 2.41854 116.037 1.70546C116.098 0.992865 116.724 0.464222 117.44 0.523961C118.476 0.611198 119.528 0.71503 120.567 0.832612C121.279 0.913212 121.791 1.5547 121.71 2.26587C121.635 2.92727 121.073 3.41513 120.421 3.41513ZM98.7254 3.14441C98.0597 3.14441 97.4932 2.6371 97.4334 1.96291C97.3704 1.25031 97.898 0.621631 98.6125 0.559048C99.6532 0.467543 100.708 0.389777 101.746 0.328616C102.46 0.2831 103.076 0.831185 103.118 1.54521C103.16 2.25923 102.614 2.87226 101.899 2.91446C100.885 2.9742 99.8562 3.04958 98.8406 3.13919C98.8022 3.14298 98.7638 3.14441 98.7254 3.14441ZM111.134 2.76701C111.122 2.76701 111.11 2.76702 111.098 2.76654C110.146 2.74094 109.181 2.7286 108.229 2.7286H108.034C108.032 2.7286 108.03 2.7286 108.029 2.7286C107.314 2.7286 106.734 2.15161 106.731 1.43806C106.728 0.72262 107.307 0.140876 108.025 0.138031H108.233C109.204 0.138031 110.193 0.151307 111.168 0.176909C111.885 0.195874 112.45 0.790881 112.431 1.50585C112.412 2.20944 111.835 2.76701 111.134 2.76701Z" fill="#14294C"/>
</svg>
