<svg width="329" height="328" viewBox="0 0 329 328" fill="none" xmlns="http://www.w3.org/2000/svg">
<path d="M158.916 0.453484L158.105 0.481812L158.301 6.1081L159.112 6.07978L158.916 0.453484Z" fill="#14294C"/>
<path d="M170.159 321.75L169.348 321.778L169.545 327.405L170.357 327.376L170.159 321.75Z" fill="#14294C"/>
<path d="M153.203 0.757859L152.393 0.814514L152.786 6.42973L153.596 6.37307L153.203 0.757859Z" fill="#14294C"/>
<path d="M175.696 321.455L174.886 321.511L175.279 327.127L176.089 327.07L175.696 321.455Z" fill="#14294C"/>
<path d="M147.488 1.23721L146.681 1.32211L147.269 6.91941L148.077 6.83451L147.488 1.23721Z" fill="#14294C"/>
<path d="M181.16 320.958L180.353 321.043L180.943 326.642L181.749 326.557L181.16 320.958Z" fill="#14294C"/>
<path d="M141.806 1.89674L141.002 2.00989L141.787 7.58251L142.59 7.46936L141.806 1.89674Z" fill="#14294C"/>
<path d="M186.649 320.254L185.845 320.367L186.631 325.943L187.434 325.83L186.649 320.254Z" fill="#14294C"/>
<path d="M130.917 9.53844L129.745 4.03204L130.539 3.8642L131.712 9.37012L130.917 9.53844Z" fill="#14294C"/>
<path d="M197.521 318.303L196.727 318.473L197.9 323.978L198.694 323.809L197.521 318.303Z" fill="#14294C"/>
<path d="M125.537 10.792L124.173 5.33159L124.96 5.13577L126.324 10.5962L125.537 10.792Z" fill="#14294C"/>
<path d="M203.493 322.724L202.128 317.263L202.915 317.067L204.28 322.528L203.493 322.724Z" fill="#14294C"/>
<path d="M120.203 12.2333L118.649 6.82171L119.429 6.59888L120.983 12.01L120.203 12.2333Z" fill="#14294C"/>
<path d="M209.025 321.261L207.469 315.848L208.249 315.625L209.805 321.038L209.025 321.261Z" fill="#14294C"/>
<path d="M114.923 13.8581L113.181 8.50533L113.953 8.25546L115.695 13.6083L114.923 13.8581Z" fill="#14294C"/>
<path d="M214.501 319.605L212.756 314.251L213.528 314L215.273 319.354L214.501 319.605Z" fill="#14294C"/>
<path d="M104.551 17.6549L102.438 12.4353L103.191 12.1319L105.304 17.3515L104.551 17.6549Z" fill="#14294C"/>
<path d="M225.264 315.727L223.151 310.507L223.903 310.204L226.016 315.424L225.264 315.727Z" fill="#14294C"/>
<path d="M99.4702 19.8216L97.1759 14.6803L97.9179 14.3507L100.212 19.4925L99.4702 19.8216Z" fill="#14294C"/>
<path d="M230.537 313.509L228.241 308.366L228.983 308.037L231.278 313.179L230.537 313.509Z" fill="#14294C"/>
<path d="M94.4682 22.1642L91.9957 17.1054L92.7254 16.7507L95.1979 21.8096L94.4682 22.1642Z" fill="#14294C"/>
<path d="M235.729 311.109L233.255 306.049L233.985 305.694L236.459 310.754L235.729 311.109Z" fill="#14294C"/>
<path d="M89.5512 24.6799L86.9037 19.7102L87.6205 19.3299L90.268 24.2996L89.5512 24.6799Z" fill="#14294C"/>
<path d="M240.833 308.53L238.184 303.559L238.901 303.179L241.55 308.15L240.833 308.53Z" fill="#14294C"/>
<path d="M79.998 30.2157L77.0082 25.4408L77.6966 25.0117L80.6869 29.7861L79.998 30.2157Z" fill="#14294C"/>
<path d="M250.758 302.846L247.768 298.072L248.456 297.643L251.447 302.417L250.758 302.846Z" fill="#14294C"/>
<path d="M75.3714 33.2297L72.2175 28.5634L72.8903 28.1111L76.0441 32.7769L75.3714 33.2297Z" fill="#14294C"/>
<path d="M255.565 299.749L252.41 295.082L253.082 294.629L256.238 299.296L255.565 299.749Z" fill="#14294C"/>
<path d="M70.8529 36.4024L67.5378 31.849L68.1945 31.3735L71.5095 35.9269L70.8529 36.4024Z" fill="#14294C"/>
<path d="M260.26 296.486L256.943 291.932L257.6 291.456L260.917 296.011L260.26 296.486Z" fill="#14294C"/>
<path d="M66.4488 39.7312L62.9763 35.2963L63.6154 34.798L67.0879 39.2329L66.4488 39.7312Z" fill="#14294C"/>
<path d="M264.839 293.062L261.365 288.626L262.005 288.128L265.478 292.563L264.839 293.062Z" fill="#14294C"/>
<path d="M58.0039 46.8387L54.2285 42.6551L54.8321 42.1132L58.607 46.2968L58.0039 46.8387Z" fill="#14294C"/>
<path d="M273.623 285.746L269.847 281.562L270.451 281.02L274.227 285.204L273.623 285.746Z" fill="#14294C"/>
<path d="M53.9722 50.6089L50.0541 46.5594L50.6377 45.9971L54.5563 50.0461L53.9722 50.6089Z" fill="#14294C"/>
<path d="M277.818 281.863L273.898 277.813L274.482 277.25L278.402 281.3L277.818 281.863Z" fill="#14294C"/>
<path d="M50.075 54.517L46.0179 50.6065L46.5817 50.0238L50.6387 53.9343L50.075 54.517Z" fill="#14294C"/>
<path d="M281.874 277.836L277.814 273.925L278.379 273.343L282.438 277.253L281.874 277.836Z" fill="#14294C"/>
<path d="M46.3165 58.5579L42.1257 54.7906L42.6686 54.1894L46.8593 57.9567L46.3165 58.5579Z" fill="#14294C"/>
<path d="M285.786 273.669L281.594 269.903L282.137 269.301L286.329 273.068L285.786 273.669Z" fill="#14294C"/>
<path d="M39.2374 67.019L34.7916 63.5532L35.2913 62.9156L39.7367 66.3814L39.2374 67.019Z" fill="#14294C"/>
<path d="M293.165 264.943L288.718 261.477L289.217 260.839L293.665 264.305L293.165 264.943Z" fill="#14294C"/>
<path d="M35.9234 71.4302L31.3595 68.1213L31.836 67.4666L36.4003 70.775L35.9234 71.4302Z" fill="#14294C"/>
<path d="M296.619 260.392L292.054 257.083L292.531 256.429L297.096 259.737L296.619 260.392Z" fill="#14294C"/>
<path d="M32.765 75.9543L28.0887 72.8066L28.5429 72.1353L33.2192 75.2834L32.765 75.9543Z" fill="#14294C"/>
<path d="M299.914 255.724L295.235 252.577L295.689 251.905L300.368 255.052L299.914 255.724Z" fill="#14294C"/>
<path d="M29.7673 80.5859L24.9844 77.6023L25.4144 76.9158L30.1973 79.8994L29.7673 80.5859Z" fill="#14294C"/>
<path d="M303.042 250.944L298.257 247.96L298.687 247.274L303.472 250.258L303.042 250.944Z" fill="#14294C"/>
<path d="M24.2684 90.1455L19.2874 87.5028L19.6685 86.7878L24.6496 89.4301L24.2684 90.1455Z" fill="#14294C"/>
<path d="M308.788 241.07L303.806 238.428L304.187 237.713L309.17 240.355L308.788 241.07Z" fill="#14294C"/>
<path d="M21.7724 95.0631L16.7021 92.5953L17.0582 91.8676L22.1284 94.3358L21.7724 95.0631Z" fill="#14294C"/>
<path d="M311.399 235.991L306.327 233.523L306.683 232.795L311.755 235.263L311.399 235.991Z" fill="#14294C"/>
<path d="M19.4502 100.065L14.297 97.7751L14.6275 97.0354L19.7802 99.3254L19.4502 100.065Z" fill="#14294C"/>
<path d="M313.83 230.822L308.675 228.533L309.005 227.793L314.16 230.082L313.83 230.822Z" fill="#14294C"/>
<path d="M17.3038 105.146L12.0739 103.036L12.3782 102.285L17.6082 104.395L17.3038 105.146Z" fill="#14294C"/>
<path d="M316.078 225.573L310.847 223.464L311.151 222.713L316.382 224.823L316.078 225.573Z" fill="#14294C"/>
<path d="M13.5525 115.513L8.18689 113.772L8.43769 113.002L13.8033 114.743L13.5525 115.513Z" fill="#14294C"/>
<path d="M320.019 214.855L314.653 213.116L314.904 212.346L320.27 214.085L320.019 214.855Z" fill="#14294C"/>
<path d="M11.9504 120.788L6.52747 119.237L6.75125 118.458L12.1737 120.01L11.9504 120.788Z" fill="#14294C"/>
<path d="M316.512 207.067L316.289 207.846L321.713 209.398L321.935 208.62L316.512 207.067Z" fill="#14294C"/>
<path d="M5.25733 123.972L5.06177 124.758L10.5349 126.12L10.7305 125.335L5.25733 123.972Z" fill="#14294C"/>
<path d="M323.201 203.889L317.725 202.528L317.921 201.742L323.397 203.103L323.201 203.889Z" fill="#14294C"/>
<path d="M3.95604 129.524L3.78784 130.317L9.30546 131.488L9.47365 130.696L3.95604 129.524Z" fill="#14294C"/>
<path d="M324.501 198.33L318.981 197.159L319.15 196.366L324.67 197.538L324.501 198.33Z" fill="#14294C"/>
<path d="M1.93914 140.769L1.82666 141.57L7.41394 142.354L7.52642 141.552L1.93914 140.769Z" fill="#14294C"/>
<path d="M321.041 185.51L320.928 186.312L326.516 187.095L326.628 186.293L321.041 185.51Z" fill="#14294C"/>
<path d="M1.22073 146.426L1.13611 147.232L6.7466 147.821L6.83122 147.016L1.22073 146.426Z" fill="#14294C"/>
<path d="M321.686 180.037L321.601 180.842L327.212 181.432L327.296 180.626L321.686 180.037Z" fill="#14294C"/>
<path d="M0.72612 152.117L0.669678 152.925L6.2972 153.318L6.35364 152.51L0.72612 152.117Z" fill="#14294C"/>
<path d="M322.189 174.545L322.133 175.353L327.761 175.745L327.818 174.937L322.189 174.545Z" fill="#14294C"/>
<path d="M0.402122 157.802L0.373779 158.612L6.01145 158.809L6.03979 158L0.402122 157.802Z" fill="#14294C"/>
<path d="M322.431 169.024L322.403 169.833L328.041 170.029L328.069 169.22L322.431 169.024Z" fill="#14294C"/>
<path d="M6.0158 169.037L0.376709 169.234L0.404971 170.043L6.04406 169.846L6.0158 169.037Z" fill="#14294C"/>
<path d="M328.059 157.816L322.42 158.013L322.448 158.823L328.088 158.626L328.059 157.816Z" fill="#14294C"/>
<path d="M6.2846 174.553L0.656616 174.946L0.713057 175.754L6.34104 175.36L6.2846 174.553Z" fill="#14294C"/>
<path d="M327.749 152.135L322.119 152.528L322.176 153.336L327.805 152.943L327.749 152.135Z" fill="#14294C"/>
<path d="M6.74064 180.035L1.13062 180.626L1.21532 181.431L6.82534 180.841L6.74064 180.035Z" fill="#14294C"/>
<path d="M327.255 146.428L321.643 147.021L321.728 147.826L327.34 147.233L327.255 146.428Z" fill="#14294C"/>
<path d="M7.40657 185.502L1.8208 186.289L1.93377 187.09L7.51953 186.304L7.40657 185.502Z" fill="#14294C"/>
<path d="M326.503 140.767L320.916 141.554L321.029 142.356L326.616 141.569L326.503 140.767Z" fill="#14294C"/>
<path d="M3.95541 198.329L3.78662 197.537L9.30535 196.366L9.47461 197.159L3.95541 198.329Z" fill="#14294C"/>
<path d="M319.152 131.49L318.983 130.697L324.502 129.527L324.671 130.319L319.152 131.49Z" fill="#14294C"/>
<path d="M10.5302 201.75L5.05676 203.118L5.25306 203.904L10.7265 202.536L10.5302 201.75Z" fill="#14294C"/>
<path d="M317.921 126.115L317.725 125.329L323.201 123.969L323.397 124.754L317.921 126.115Z" fill="#14294C"/>
<path d="M6.75125 209.399L6.52747 208.62L11.9509 207.069L12.1747 207.848L6.75125 209.399Z" fill="#14294C"/>
<path d="M316.507 120.788L316.283 120.01L321.707 118.457L321.93 119.235L316.507 120.788Z" fill="#14294C"/>
<path d="M8.4382 214.854L8.18787 214.084L13.553 212.346L13.8038 213.116L8.4382 214.854Z" fill="#14294C"/>
<path d="M314.904 115.511L314.653 114.741L320.018 113.002L320.269 113.772L314.904 115.511Z" fill="#14294C"/>
<path d="M12.3782 225.573L12.0739 224.822L17.3057 222.713L17.6101 223.464L12.3782 225.573Z" fill="#14294C"/>
<path d="M311.151 105.143L310.847 104.392L316.079 102.284L316.383 103.034L311.151 105.143Z" fill="#14294C"/>
<path d="M14.6275 230.822L14.297 230.082L19.4516 227.792L19.7816 228.532L14.6275 230.822Z" fill="#14294C"/>
<path d="M309.005 100.064L308.675 99.324L313.83 97.035L314.16 97.7751L309.005 100.064Z" fill="#14294C"/>
<path d="M17.0582 235.99L16.7026 235.262L21.7738 232.795L22.1294 233.523L17.0582 235.99Z" fill="#14294C"/>
<path d="M306.685 95.0621L306.328 94.3344L311.4 91.8661L311.756 92.5939L306.685 95.0621Z" fill="#14294C"/>
<path d="M19.6697 241.069L19.2885 240.355L24.2695 237.713L24.6507 238.428L19.6697 241.069Z" fill="#14294C"/>
<path d="M304.188 90.1441L303.807 89.4292L308.787 86.7864L309.168 87.5014L304.188 90.1441Z" fill="#14294C"/>
<path d="M25.4144 250.942L24.9844 250.255L29.7696 247.272L30.1997 247.959L25.4144 250.942Z" fill="#14294C"/>
<path d="M298.687 80.5836L298.257 79.8966L303.043 76.913L303.473 77.6L298.687 80.5836Z" fill="#14294C"/>
<path d="M28.5431 255.722L28.0894 255.051L32.7665 251.904L33.2203 252.575L28.5431 255.722Z" fill="#14294C"/>
<path d="M295.689 75.9533L295.235 75.2819L299.914 72.1343L300.368 72.8052L295.689 75.9533Z" fill="#14294C"/>
<path d="M31.8368 260.391L31.3599 259.736L35.9242 256.427L36.4012 257.082L31.8368 260.391Z" fill="#14294C"/>
<path d="M292.532 71.4302L292.055 70.775L296.62 67.4652L297.098 68.1204L292.532 71.4302Z" fill="#14294C"/>
<path d="M35.2925 264.941L34.7927 264.302L39.239 260.838L39.7382 261.476L35.2925 264.941Z" fill="#14294C"/>
<path d="M289.219 67.0176L288.719 66.3799L293.164 62.9156L293.663 63.5532L289.219 67.0176Z" fill="#14294C"/>
<path d="M42.6686 273.668L42.1257 273.066L46.3188 269.299L46.8622 269.901L42.6686 273.668Z" fill="#14294C"/>
<path d="M282.138 58.5556L281.595 57.9539L285.787 54.1866L286.33 54.7887L282.138 58.5556Z" fill="#14294C"/>
<path d="M46.582 277.834L46.0183 277.251L50.0772 273.342L50.641 273.924L46.582 277.834Z" fill="#14294C"/>
<path d="M278.378 54.5142L277.815 53.932L281.876 50.0215L282.439 50.6037L278.378 54.5142Z" fill="#14294C"/>
<path d="M50.6386 281.86L50.0544 281.297L53.9735 277.249L54.5576 277.811L50.6386 281.86Z" fill="#14294C"/>
<path d="M274.483 50.6074L273.9 50.0447L277.82 45.9948L278.403 46.5575L274.483 50.6074Z" fill="#14294C"/>
<path d="M54.8335 285.743L54.23 285.201L58.0054 281.019L58.6085 281.561L54.8335 285.743Z" fill="#14294C"/>
<path d="M270.452 46.8363L269.849 46.2944L273.624 42.1132L274.227 42.6551L270.452 46.8363Z" fill="#14294C"/>
<path d="M63.6166 293.059L62.9771 292.561L66.4514 288.125L67.0905 288.624L63.6166 293.059Z" fill="#14294C"/>
<path d="M262.006 39.7288L261.366 39.2301L264.84 34.7942L265.48 35.293L262.006 39.7288Z" fill="#14294C"/>
<path d="M68.1955 296.484L67.5388 296.008L70.8557 291.454L71.5124 291.931L68.1955 296.484Z" fill="#14294C"/>
<path d="M257.6 36.4015L256.943 35.925L260.261 31.3706L260.918 31.8471L257.6 36.4015Z" fill="#14294C"/>
<path d="M72.8909 299.746L72.2181 299.294L75.3734 294.628L76.0462 295.081L72.8909 299.746Z" fill="#14294C"/>
<path d="M253.084 33.2282L252.411 32.7754L255.566 28.1072L256.239 28.56L253.084 33.2282Z" fill="#14294C"/>
<path d="M77.6977 302.844L77.0093 302.415L79.9995 297.642L80.688 298.071L77.6977 302.844Z" fill="#14294C"/>
<path d="M248.456 30.2128L247.768 29.7837L250.758 25.0117L251.447 25.4408L248.456 30.2128Z" fill="#14294C"/>
<path d="M87.6212 308.527L86.9043 308.147L89.5537 303.176L90.2705 303.556L87.6212 308.527Z" fill="#14294C"/>
<path d="M238.903 24.6775L238.186 24.2972L240.835 19.3261L241.552 19.7064L238.903 24.6775Z" fill="#14294C"/>
<path d="M92.7269 311.107L91.9972 310.751L94.4707 305.693L95.2003 306.048L92.7269 311.107Z" fill="#14294C"/>
<path d="M233.985 22.1632L233.255 21.8081L235.73 16.7469L236.459 17.102L233.985 22.1632Z" fill="#14294C"/>
<path d="M97.9185 313.506L97.1775 313.177L99.4722 308.035L100.214 308.365L97.9185 313.506Z" fill="#14294C"/>
<path d="M228.985 19.8192L228.244 19.4902L230.538 14.347L231.28 14.6765L228.985 19.8192Z" fill="#14294C"/>
<path d="M103.192 315.724L102.44 315.421L104.553 310.203L105.306 310.506L103.192 315.724Z" fill="#14294C"/>
<path d="M223.903 17.652L223.151 17.3486L225.265 12.1319L226.017 12.4353L223.903 17.652Z" fill="#14294C"/>
<path d="M113.953 319.602L113.181 319.352L114.926 313.998L115.697 314.248L113.953 319.602Z" fill="#14294C"/>
<path d="M213.53 13.8558L212.758 13.6054L214.502 8.25122L215.274 8.50155L213.53 13.8558Z" fill="#14294C"/>
<path d="M119.431 321.258L118.65 321.035L120.206 315.624L120.986 315.847L119.431 321.258Z" fill="#14294C"/>
<path d="M208.25 12.2319L207.47 12.0086L209.026 6.59653L209.806 6.81936L208.25 12.2319Z" fill="#14294C"/>
<path d="M124.961 322.722L124.174 322.526L125.539 317.064L126.326 317.26L124.961 322.722Z" fill="#14294C"/>
<path d="M202.918 10.7906L202.13 10.5948L203.495 5.13199L204.283 5.3278L202.918 10.7906Z" fill="#14294C"/>
<path d="M130.922 318.318L129.753 323.824L130.547 323.993L131.716 318.487L130.922 318.318Z" fill="#14294C"/>
<path d="M197.536 9.53608L196.742 9.36777L197.916 3.86374L198.71 4.03253L197.536 9.53608Z" fill="#14294C"/>
<path d="M141.789 320.255L141.007 325.831L141.81 325.944L142.592 320.368L141.789 320.255Z" fill="#14294C"/>
<path d="M186.636 1.90725L185.854 7.48279L186.658 7.59553L187.44 2.02L186.636 1.90725Z" fill="#14294C"/>
<path d="M147.298 320.941L146.712 326.541L147.519 326.626L148.105 321.026L147.298 320.941Z" fill="#14294C"/>
<path d="M180.968 1.21446L180.381 6.81516L181.188 6.89968L181.775 1.29899L180.968 1.21446Z" fill="#14294C"/>
<path d="M152.774 321.417L152.384 327.032L153.193 327.088L153.584 321.473L152.774 321.417Z" fill="#14294C"/>
<path d="M175.247 0.731814L174.856 6.34845L175.666 6.40478L176.056 0.788145L175.247 0.731814Z" fill="#14294C"/>
<path d="M158.311 321.76L158.115 327.384L158.926 327.413L159.122 321.789L158.311 321.76Z" fill="#14294C"/>
<path d="M169.552 0.45409L169.353 6.07898L170.165 6.10763L170.363 0.482743L169.552 0.45409Z" fill="#14294C"/>
</svg>
