<svg width="353" height="352" viewBox="0 0 353 352" fill="none" xmlns="http://www.w3.org/2000/svg">
<path d="M177.444 0.219238H175.009V18.9919H177.444V0.219238Z" fill="#14294C"/>
<path d="M177.444 332.866H175.009V351.64H177.444V332.866Z" fill="#14294C"/>
<path d="M147.857 9.98107L145.99 10.3112L147.973 21.5281L149.841 21.1979L147.857 9.98107Z" fill="#14294C"/>
<path d="M204.463 330.299L202.595 330.629L204.577 341.845L206.445 341.515L204.463 330.299Z" fill="#14294C"/>
<path d="M121.534 28.7811L117.629 18.0774L119.411 17.4302L123.316 28.1339L121.534 28.7811Z" fill="#14294C"/>
<path d="M233.043 334.43L229.137 323.726L230.919 323.079L234.824 333.782L233.043 334.43Z" fill="#14294C"/>
<path d="M96.7532 40.4917L91.0443 30.6272L92.6867 29.6814L98.3955 39.5454L96.7532 40.4917Z" fill="#14294C"/>
<path d="M259.768 322.178L254.059 312.314L255.702 311.368L261.41 321.233L259.768 322.178Z" fill="#14294C"/>
<path d="M74.3866 56.3173L67.0472 47.5912L68.5004 46.3751L75.8398 55.1007L74.3866 56.3173Z" fill="#14294C"/>
<path d="M283.954 305.485L276.615 296.759L278.068 295.543L285.407 304.269L283.954 305.485Z" fill="#14294C"/>
<path d="M55.1148 75.7779L46.3683 68.4557L47.5872 67.0063L56.3342 74.3281L55.1148 75.7779Z" fill="#14294C"/>
<path d="M304.868 284.853L296.121 277.532L297.34 276.082L306.087 283.404L304.868 284.853Z" fill="#14294C"/>
<path d="M39.5228 98.2801L29.6346 92.5845L30.5829 90.9464L40.4711 96.6415L39.5228 98.2801Z" fill="#14294C"/>
<path d="M321.873 260.912L311.985 255.217L312.933 253.579L322.821 259.274L321.873 260.912Z" fill="#14294C"/>
<path d="M28.0848 123.142L17.3555 119.247L18.0036 117.469L28.7329 121.364L28.0848 123.142Z" fill="#14294C"/>
<path d="M334.452 234.389L323.723 230.493L324.372 228.716L335.101 232.611L334.452 234.389Z" fill="#14294C"/>
<path d="M10.2314 145.771L9.90381 147.635L21.1477 149.611L21.4752 147.747L10.2314 145.771Z" fill="#14294C"/>
<path d="M331.308 202.238L330.98 204.102L342.224 206.079L342.552 204.215L331.308 202.238Z" fill="#14294C"/>
<path d="M18.9225 174.714H0.105225V177.143H18.9225V174.714Z" fill="#14294C"/>
<path d="M352.352 174.715H333.535V177.144H352.352V174.715Z" fill="#14294C"/>
<path d="M21.1631 202.254L9.91992 204.241L10.2492 206.104L21.4924 204.118L21.1631 202.254Z" fill="#14294C"/>
<path d="M342.253 145.759L331.011 147.745L331.34 149.608L342.583 147.622L342.253 145.759Z" fill="#14294C"/>
<path d="M18.0044 234.389L17.3558 232.611L28.0846 228.715L28.7332 230.492L18.0044 234.389Z" fill="#14294C"/>
<path d="M324.372 123.142L323.723 121.364L334.452 117.468L335.101 119.246L324.372 123.142Z" fill="#14294C"/>
<path d="M30.584 260.911L29.6357 259.272L39.5235 253.577L40.4717 255.216L30.584 260.911Z" fill="#14294C"/>
<path d="M312.933 98.2786L311.985 96.64L321.873 90.9449L322.821 92.5835L312.933 98.2786Z" fill="#14294C"/>
<path d="M47.5883 284.851L46.3694 283.402L55.1154 276.08L56.3349 277.529L47.5883 284.851Z" fill="#14294C"/>
<path d="M297.342 75.7751L296.123 74.3257L304.869 67.0039L306.088 68.4533L297.342 75.7751Z" fill="#14294C"/>
<path d="M68.5019 305.482L67.0487 304.266L74.3876 295.539L75.8407 296.755L68.5019 305.482Z" fill="#14294C"/>
<path d="M278.069 56.3145L276.616 55.0984L283.955 46.3722L285.408 47.5888L278.069 56.3145Z" fill="#14294C"/>
<path d="M92.6881 322.176L91.0463 321.23L96.7542 311.365L98.3965 312.311L92.6881 322.176Z" fill="#14294C"/>
<path d="M255.703 40.4875L254.06 39.5416L259.769 29.6786L261.411 30.6249L255.703 40.4875Z" fill="#14294C"/>
<path d="M119.413 334.427L117.631 333.78L121.535 323.075L123.318 323.722L119.413 334.427Z" fill="#14294C"/>
<path d="M230.921 28.7772L229.139 28.1301L233.043 17.4278L234.825 18.075L230.921 28.7772Z" fill="#14294C"/>
<path d="M147.984 330.321L146.01 341.541L147.878 341.87L149.851 330.649L147.984 330.321Z" fill="#14294C"/>
<path d="M204.594 9.99006L202.621 21.2097L204.489 21.5381L206.462 10.3185L204.594 9.99006Z" fill="#14294C"/>
</svg>
