<svg width="37" height="167" viewBox="0 0 37 167" fill="none" xmlns="http://www.w3.org/2000/svg">
<path d="M9.99314 149.253C9.99314 144.503 13.8529 140.651 18.6145 140.651V0.0802612L1.21771 144.143C0.914752 145.444 0.749268 146.797 0.749268 148.189C0.749268 158.033 8.74765 166.012 18.6145 166.012V157.853C13.8529 157.853 9.99314 154.004 9.99314 149.253Z" fill="#892121"/>
<path d="M36.4792 148.189C36.4792 146.798 36.3142 145.445 36.0113 144.145L18.614 0.078186V0.0800887V140.651C23.3756 140.651 27.2349 144.502 27.2349 149.253C27.2349 154.003 23.3756 157.853 18.614 157.853V166.012C28.4809 166.012 36.4792 158.033 36.4792 148.189Z" fill="#682121"/>
</svg>
