<svg width="21" height="21" viewBox="0 0 21 21" fill="none" xmlns="http://www.w3.org/2000/svg">
<path d="M20.621 10.8786C20.621 16.3912 16.1406 20.8616 10.6143 20.8616C5.08749 20.8616 0.607544 16.3912 0.607544 10.8786C0.607544 5.36509 5.08796 0.895569 10.6143 0.895569C16.1406 0.896043 20.621 5.36509 20.621 10.8786Z" fill="#CFD1D2"/>
<path d="M20.0564 10.8786C20.0564 16.0816 15.8292 20.2984 10.6144 20.2984C5.39959 20.2984 1.17236 16.0816 1.17236 10.8786C1.17236 5.67658 5.40006 1.45789 10.6144 1.45789C15.8288 1.45836 20.0564 5.67658 20.0564 10.8786Z" fill="#919395"/>
<path d="M10.6142 16.203C13.5616 16.203 15.9509 13.8192 15.9509 10.8787C15.9509 7.9381 13.5616 5.55432 10.6142 5.55432C7.66689 5.55432 5.27759 7.9381 5.27759 10.8787C5.27759 13.8192 7.66689 16.203 10.6142 16.203Z" fill="#CFD1D2"/>
<path d="M10.6143 15.5046C13.1752 15.5046 15.2512 13.4335 15.2512 10.8787C15.2512 8.32381 13.1752 6.25269 10.6143 6.25269C8.05343 6.25269 5.97742 8.32381 5.97742 10.8787C5.97742 13.4335 8.05343 15.5046 10.6143 15.5046Z" fill="#A5A6A9"/>
<path d="M14.5143 10.8786C14.5143 13.0273 12.7677 14.7688 10.6142 14.7688C8.46029 14.7688 6.71411 13.0273 6.71411 10.8786C6.71411 8.72994 8.46029 6.98804 10.6142 6.98804C12.7677 6.98804 14.5143 8.73042 14.5143 10.8786Z" fill="#1A1A1A"/>
<path d="M13.3535 10.8786C13.3535 12.3882 12.1275 13.6114 10.6141 13.6114C9.10116 13.6114 7.87415 12.3882 7.87415 10.8786C7.87415 9.36953 9.10068 8.14581 10.6141 8.14581C12.127 8.14629 13.3535 9.37 13.3535 10.8786Z" fill="#14294C"/>
</svg>
