<svg width="37" height="167" viewBox="0 0 37 167" fill="none" xmlns="http://www.w3.org/2000/svg">
<path d="M27.2355 16.9231C27.2355 21.6724 23.3762 25.5231 18.6146 25.5231V166.095L36.0114 22.0327C36.3139 20.7312 36.4794 19.3786 36.4794 17.9856C36.4794 8.14202 28.481 0.162598 18.6146 0.162598V8.32122C23.3762 8.32122 27.2355 12.1725 27.2355 16.9231Z" fill="#3A6477"/>
<path d="M0.749268 17.9857C0.749268 19.3786 0.914271 20.7303 1.21676 22.0304L18.6136 166.097L18.614 166.095V25.5232C13.8525 25.5232 9.99268 21.6724 9.99268 16.9232C9.99268 12.172 13.8525 8.32079 18.614 8.32079V0.16217H18.6136C8.74764 0.162645 0.749268 8.14205 0.749268 17.9857Z" fill="#4C819E"/>
</svg>
