<svg width="167" height="37" viewBox="0 0 167 37" fill="none" xmlns="http://www.w3.org/2000/svg">
<path d="M149.913 27.2235C145.152 27.2235 141.292 23.3737 141.292 18.623H0.388916L144.791 35.9795C146.094 36.281 147.451 36.4465 148.847 36.4465C158.714 36.4465 166.712 28.4657 166.712 18.6226H158.534C158.534 23.3732 154.674 27.2235 149.913 27.2235Z" fill="#2E4160"/>
<path d="M148.847 0.800476C147.451 0.800476 146.096 0.964981 144.792 1.26652L0.387207 18.623H0.388632H141.291C141.291 13.8733 145.151 10.0225 149.912 10.0225C154.673 10.0225 158.533 13.8733 158.533 18.623H166.711C166.712 8.77988 158.714 0.800476 148.847 0.800476Z" fill="#3EB489"/>
</svg>
