<svg width="168" height="37" viewBox="0 0 168 37" fill="none" xmlns="http://www.w3.org/2000/svg">
<path d="M17.5811 10.0225C22.3427 10.0225 26.2025 13.8733 26.2025 18.623H167.106L22.7035 1.26748C21.3992 0.965936 20.0432 0.800476 18.6469 0.800476C8.78056 0.800476 0.782212 8.77988 0.781738 18.623H8.96027C8.96027 13.8733 12.8201 10.0225 17.5811 10.0225Z" fill="#3EB489"/>
<path d="M18.6467 36.4466C20.042 36.4466 21.3976 36.2811 22.7009 35.9795L167.106 18.623H167.105H26.2018C26.2018 23.3732 22.342 27.2235 17.5804 27.2235C12.8193 27.2235 8.95954 23.3737 8.95954 18.623H0.781006C0.781954 28.4672 8.78032 36.4466 18.6467 36.4466Z" fill="#2E4160"/>
</svg>
