<svg width="355" height="354" viewBox="0 0 355 354" fill="none" xmlns="http://www.w3.org/2000/svg">
<path d="M177.228 353.585C153.324 353.585 130.135 348.914 108.304 339.703C87.2185 330.805 68.2818 318.068 52.02 301.844C35.7582 285.621 22.9907 266.729 14.0726 245.693C4.83865 223.913 0.156738 200.778 0.156738 176.93C0.156738 153.082 4.83865 129.946 14.0726 108.167C22.9912 87.1308 35.7582 68.2386 52.02 52.0153C68.2818 35.7919 87.2185 23.0543 108.304 14.1565C130.135 4.94441 153.325 0.273407 177.228 0.273407C201.132 0.273407 224.322 4.94441 246.153 14.1565C267.239 23.0538 286.175 35.7914 302.437 52.0153C318.699 68.2386 331.466 87.1308 340.385 108.167C349.618 129.946 354.3 153.082 354.3 176.93C354.3 200.778 349.618 223.913 340.385 245.693C331.466 266.729 318.699 285.621 302.437 301.844C286.176 318.068 267.239 330.805 246.153 339.703C224.322 348.914 201.132 353.585 177.228 353.585ZM177.228 2.16561C153.579 2.16561 130.638 6.78636 109.043 15.8994C88.1828 24.7014 69.449 37.3029 53.3608 53.3532C37.2726 69.4035 24.6421 88.0937 15.8192 108.904C6.68487 130.449 2.05321 153.336 2.05321 176.93C2.05321 200.523 6.68487 223.41 15.8192 244.956C24.6421 265.766 37.2726 284.456 53.3608 300.507C69.449 316.557 88.1828 329.158 109.043 337.96C130.639 347.073 153.579 351.694 177.228 351.694C200.877 351.694 223.818 347.073 245.414 337.96C266.274 329.158 285.008 316.557 301.096 300.507C317.185 284.456 329.815 265.766 338.638 244.956C347.773 223.411 352.404 200.523 352.404 176.93C352.404 153.337 347.773 130.449 338.638 108.904C329.815 88.0933 317.185 69.4035 301.096 53.3532C285.008 37.3025 266.274 24.7014 245.414 15.8994C223.818 6.78588 200.877 2.16561 177.228 2.16561Z" fill="#14294C"/>
</svg>
