<svg width="300" height="36" viewBox="0 0 300 36" fill="none" xmlns="http://www.w3.org/2000/svg">
<path d="M151.13 36.004C152.525 36.004 153.881 35.8385 155.184 35.537L299.589 18.181L299.588 18.1805L155.186 0.823997C153.882 0.522458 152.526 0.356506 151.13 0.356506C150.809 0.356506 150.49 0.36694 150.172 0.383534C149.855 0.36694 149.536 0.356506 149.214 0.356506C147.82 0.356506 146.464 0.521984 145.16 0.823997L0.754395 18.1805H0.75582L145.158 35.537C146.462 35.8385 147.818 36.004 149.214 36.004C149.535 36.004 149.855 35.994 150.172 35.977C150.49 35.994 150.809 36.004 151.13 36.004ZM141.659 18.18C141.659 13.4659 145.461 9.64352 150.173 9.58473C154.884 9.64352 158.686 13.4663 158.686 18.18C158.686 22.8946 154.884 26.7179 150.173 26.7762C145.461 26.7184 141.659 22.8946 141.659 18.18Z" fill="#1A1A1A"/>
</svg>
