<svg width="12" height="19" viewBox="0 0 12 19" fill="none" xmlns="http://www.w3.org/2000/svg">
<path d="M1.06757 15.4849C2.09261 16.114 3.59129 16.6393 5.1682 16.6393C7.50798 16.6393 8.87488 15.4066 8.87488 13.623C8.87488 11.9712 7.92854 11.0267 5.53661 10.1084C2.64497 9.08617 0.857536 7.59082 0.857536 5.0998C0.857536 2.34613 3.1447 0.300781 6.58821 0.300781C8.40171 0.300781 9.71644 0.72037 10.5049 1.16651L9.87385 3.02791C9.29542 2.7131 8.11248 2.18872 6.50901 2.18872C4.09054 2.18872 3.17077 3.63098 3.17077 4.83714C3.17077 6.48944 4.24844 7.30303 6.69346 8.247C9.69036 9.40005 11.2151 10.8423 11.2151 13.4391C11.2151 16.1667 9.19062 18.5268 5.01127 18.5268C3.30255 18.5268 1.43645 18.028 0.490112 17.3989L1.06757 15.4849Z" fill="#14294C"/>
</svg>
