<svg width="318" height="318" viewBox="0 0 318 318" fill="none" xmlns="http://www.w3.org/2000/svg">
<path d="M159.227 317.285C116.829 317.285 76.9681 300.813 46.9882 270.904C17.0084 240.994 0.497681 201.228 0.497681 158.929C0.497681 116.631 17.0084 76.8641 46.9882 46.9544C76.9681 17.0447 116.829 0.572906 159.227 0.572906C201.625 0.572906 241.485 17.0447 271.464 46.9544C301.444 76.8641 317.955 116.631 317.955 158.929C317.955 201.228 301.444 240.994 271.464 270.904C241.485 300.813 201.625 317.285 159.227 317.285ZM159.227 3.41145C117.589 3.41145 78.4426 19.5879 48.9999 48.9618C19.5572 78.3353 3.34286 117.389 3.34286 158.93C3.34286 200.47 19.5577 239.524 48.9999 268.897C78.4426 298.271 117.588 314.447 159.227 314.447C200.865 314.447 240.011 298.271 269.453 268.897C298.895 239.524 315.11 200.47 315.11 158.93C315.11 117.389 298.895 78.3353 269.453 48.9618C240.01 19.5879 200.865 3.41145 159.227 3.41145Z" fill="#14294C"/>
</svg>
