<svg width="19" height="14" viewBox="0 0 19 14" fill="none" xmlns="http://www.w3.org/2000/svg">
<path d="M2.77563 0.707153L4.4578 7.15896C4.82619 8.57563 5.16756 9.88656 5.40414 11.1975H5.48285C5.77206 9.91264 6.1926 8.5486 6.61315 7.18503L8.68978 0.707153H10.6351L12.6065 7.05371C13.0796 8.57516 13.4475 9.91264 13.7368 11.1975H13.8159C14.0265 9.91264 14.3678 8.57563 14.7884 7.07979L16.6023 0.707153H18.8895L14.7884 13.4007H12.6856L10.7408 7.34243C10.2937 5.92671 9.9258 4.66698 9.61051 3.17303H9.55789C9.2426 4.694 8.84814 6.00448 8.40152 7.36899L6.35095 13.4007H4.24777L0.40979 0.707153H2.77563Z" fill="#14294C"/>
</svg>
