<svg width="27" height="26" viewBox="0 0 27 26" fill="none" xmlns="http://www.w3.org/2000/svg">
<path d="M9.5822 3.43511L1.81881 10.2285C1.15307 10.8111 1.59944 11.8457 2.51651 11.8457C3.07679 11.8457 3.53099 12.2652 3.53099 12.7828V17.1075C3.53099 20.828 3.53099 22.6883 4.78235 23.8441C6.03372 25 8.04776 25 12.0759 25H14.9241C18.9523 25 20.9663 25 22.2176 23.8441C23.4691 22.6883 23.4691 20.828 23.4691 17.1075V12.7828C23.4691 12.2652 23.9232 11.8457 24.4835 11.8457C25.4005 11.8457 25.8469 10.8111 25.1812 10.2285L17.4177 3.43511C15.5625 1.81171 14.6349 1 13.5 1C12.3651 1 11.4375 1.81171 9.5822 3.43511Z" fill="#3EB489" stroke="#3EB489" stroke-width="1.5" stroke-linecap="round" stroke-linejoin="round"/>
</svg>
