<svg width="430" height="218" viewBox="0 0 430 218" fill="none" xmlns="http://www.w3.org/2000/svg">
<path opacity="0.1" fill-rule="evenodd" clip-rule="evenodd" d="M582.119 111.859C578.347 108.847 574.246 106.111 572.499 104.139C571.216 102.691 572.317 102.444 572.743 101.967C573.467 101.158 573.041 98.8409 571.426 98.5809C571.15 93.6107 570.879 88.7548 570.698 86.2139C570.507 83.5283 570.437 83.3302 570.23 83.4281C570.022 83.3309 569.953 83.5283 569.762 86.2139C569.581 88.7548 569.31 93.6101 569.034 98.5809C567.419 98.8415 566.993 101.158 567.717 101.967C568.143 102.443 569.244 102.691 567.962 104.139C565.3 107.144 557.177 111.918 553.078 116.744C550.357 119.948 549.616 123.007 549.55 125.649C549.483 128.29 550.093 130.515 550.656 131.931C551.683 134.518 552.198 134.01 552.247 136.487C551.092 136.487 549.937 136.487 548.782 136.487C548.782 138.446 548.782 140.406 548.782 142.365C549.394 142.365 550.007 142.365 550.619 142.365C550.619 149.126 550.619 155.886 550.619 162.647C548.694 162.647 546.768 162.647 544.843 162.647C544.843 147.768 544.843 132.89 544.843 118.012C545.361 118.012 545.88 118.012 546.397 118.012C546.397 117.222 546.397 116.433 546.397 115.644C545.879 115.644 545.361 115.644 544.843 115.644C544.843 105.882 544.843 96.1195 544.843 86.3579C545.361 86.3579 545.88 86.3579 546.397 86.3579C546.397 85.5686 546.397 84.7794 546.397 83.9901C545.878 83.9901 545.357 83.9901 544.836 83.9901C544.836 74.5803 544.836 65.171 544.836 55.7612C545.157 55.7612 545.476 55.7612 545.796 55.7612C545.796 55.102 545.796 54.4428 545.796 53.7842C545.992 53.7842 546.188 53.7842 546.385 53.7842C546.385 53.3394 546.385 52.8946 546.385 52.4499C545.854 52.4499 545.324 52.4499 544.793 52.4499C544.793 47.3467 544.793 42.2423 544.793 37.1385C545.322 37.1385 545.851 37.1385 546.381 37.1385C546.381 35.8801 546.381 34.6218 546.381 33.3629C545.832 33.3629 545.282 33.3629 544.733 33.3629C544.733 32.7535 544.733 32.144 544.733 31.5352C544.398 31.5352 544.063 31.5352 543.728 31.5352C546.487 28.0525 548.118 24.2647 546.677 19.9836C545.561 16.671 543.015 15.6502 540.449 14.6216C538.543 13.8572 536.625 13.0887 535.331 11.3406C535.331 10.9463 535.331 10.5525 535.331 10.1588C534.928 10.1588 534.525 10.1588 534.122 10.1588C534.122 9.84713 534.122 9.53603 534.122 9.22433C533.931 9.22433 533.74 9.22433 533.549 9.22433C533.377 8.65866 533.23 8.36521 533.216 7.73149C533.497 7.47994 533.554 7.08743 533.384 6.77756C533.815 6.52723 533.84 6.04114 533.416 5.77197C533.546 5.46635 533.47 5.07631 533.19 4.86243C533.16 3.37747 533.132 1.8919 533.102 0.406937C533.092 -0.135038 532.449 -0.136253 532.437 0.406937C532.408 1.8919 532.379 3.37747 532.349 4.86243C532.069 5.07509 531.993 5.46574 532.124 5.77197C531.7 6.04114 531.724 6.52662 532.155 6.77756C531.986 7.08743 532.042 7.47934 532.324 7.73149C532.309 8.36521 532.162 8.65866 531.99 9.22433C531.799 9.22433 531.608 9.22433 531.417 9.22433C531.417 9.53542 531.417 9.84713 531.417 10.1588C531.014 10.1588 530.611 10.1588 530.208 10.1588C530.208 10.5525 530.208 10.9469 530.208 11.3406C528.915 13.0887 526.997 13.8572 525.09 14.6216C522.506 15.6575 519.942 16.6856 518.839 20.0559C517.462 24.2666 519.17 28.1133 521.874 31.5352C521.526 31.5352 521.179 31.5352 520.83 31.5352C520.83 32.144 520.83 32.7535 520.83 33.3629C520.281 33.3629 519.731 33.3629 519.182 33.3629C519.182 34.6218 519.182 35.8801 519.182 37.1385C519.712 37.1385 520.241 37.1385 520.77 37.1385C520.77 42.2423 520.77 47.3461 520.77 52.4499C520.24 52.4499 519.709 52.4499 519.178 52.4499C519.178 52.8946 519.178 53.3388 519.178 53.7842C519.374 53.7842 519.571 53.7842 519.768 53.7842C519.768 54.4434 519.768 55.1026 519.768 55.7612C520.087 55.7612 520.407 55.7612 520.727 55.7612C520.727 65.171 520.727 74.5809 520.727 83.9901C520.206 83.9901 519.686 83.9901 519.166 83.9901C519.166 84.7794 519.166 85.5686 519.166 86.3579C519.684 86.3579 520.202 86.3579 520.721 86.3579C520.721 96.1195 520.721 105.882 520.721 115.644C520.202 115.644 519.684 115.644 519.166 115.644C519.166 116.433 519.166 117.222 519.166 118.012C519.684 118.012 520.202 118.012 520.721 118.012C520.721 132.89 520.721 147.769 520.721 162.647C518.989 162.647 517.259 162.647 515.528 162.647C515.528 156.528 515.528 150.41 515.528 144.291C514.228 144.291 512.927 144.291 511.628 144.291C511.628 143.209 511.628 142.125 511.628 141.042C510.699 141.042 509.772 141.042 508.843 141.042C509.087 132.788 503.389 124.345 494.599 121.993C494.599 121.376 494.599 120.759 494.599 120.142C493.892 120.142 493.185 120.142 492.478 120.142C492.478 119.593 492.478 119.045 492.478 118.497C492.171 118.497 491.864 118.497 491.558 118.497C491.335 117.737 491.113 116.976 490.891 116.216C490.888 115.938 490.886 115.66 490.884 115.382C491.449 115.047 491.509 114.157 490.997 113.728C491.976 113.451 492.047 112.558 491.11 112.218C491.514 111.737 491.386 110.938 490.845 110.655C490.792 107.984 490.74 105.313 490.687 102.642C490.678 102.12 490.289 102.12 490.279 102.64C490.227 105.312 490.174 107.983 490.122 110.655C489.58 110.938 489.452 111.737 489.856 112.218C488.92 112.558 488.99 113.451 489.969 113.728C489.458 114.157 489.517 115.046 490.083 115.382C490.08 115.66 490.078 115.939 490.076 116.217C489.853 116.977 489.632 117.737 489.409 118.497C489.103 118.497 488.796 118.497 488.489 118.497C488.489 119.045 488.489 119.594 488.489 120.142C487.781 120.142 487.074 120.142 486.366 120.142C486.366 120.759 486.366 121.376 486.366 121.993C477.576 124.345 471.879 132.788 472.123 141.042C471.195 141.042 470.266 141.042 469.339 141.042C469.339 142.125 469.339 143.208 469.339 144.291C468.038 144.291 466.738 144.291 465.438 144.291C465.438 150.41 465.438 156.528 465.438 162.647C464.447 162.647 463.457 162.647 462.467 162.647C462.467 158.337 462.467 154.029 462.467 149.719C462.474 149.719 462.481 149.719 462.487 149.719C462.487 127.973 462.487 106.226 462.487 84.4798C463.1 84.4798 463.712 84.4798 464.325 84.4798C464.325 82.5203 464.325 80.5609 464.325 78.6008C463.17 78.6008 462.015 78.6008 460.86 78.6008C460.909 76.1236 461.423 76.6321 462.451 74.045C463.014 72.6281 463.623 70.4037 463.557 67.7625C463.49 65.1213 462.749 62.062 460.028 58.8576C455.93 54.032 447.807 49.2576 445.145 46.2524C443.863 44.8051 444.963 44.5578 445.39 44.0808C446.113 43.2715 445.687 40.9548 444.072 40.6947C443.797 35.7246 443.526 30.8687 443.344 28.3277C443.153 25.6422 443.084 25.4447 442.877 25.5419C442.669 25.4447 442.6 25.6422 442.409 28.3277C442.228 30.8687 441.957 35.724 441.681 40.6947C440.065 40.9554 439.639 43.2715 440.363 44.0808C440.79 44.5572 441.89 44.8045 440.609 46.2524C437.947 49.2576 429.823 54.032 425.725 58.8576C423.004 62.062 422.262 65.1213 422.197 67.7625C422.13 70.4037 422.739 72.6287 423.302 74.045C424.329 76.6315 424.844 76.123 424.894 78.6008C423.739 78.6008 422.583 78.6008 421.428 78.6008C421.428 80.5603 421.428 82.5197 421.428 84.4798C422.041 84.4798 422.653 84.4798 423.265 84.4798C423.265 100.283 423.265 116.088 423.265 131.892C420.376 131.889 417.486 131.887 414.596 131.885C414.596 130.021 414.596 128.157 414.596 126.293C413.429 126.293 412.264 126.293 411.098 126.293C415.325 118.362 416.373 111.67 414.188 103.686C407.581 79.5571 382.081 75.7748 377.183 58.0938C380.773 56.8512 380.467 52.2469 376.745 51.3829C376.599 47.2592 376.453 43.3293 376.308 40.6492C383.484 42.7624 391.715 39.1271 394.42 31.3554C394.49 31.1555 394.222 31.0151 394.096 31.1822C389.247 37.593 379.88 38.2595 374.197 32.5754C368.789 27.1684 369.095 18.3449 374.813 13.3092C374.971 13.1701 374.81 12.9052 374.603 13.0048C371.964 14.1586 369.728 16.064 368.167 18.4482C364.344 24.286 365.161 32.0055 370.083 36.9282C371.607 38.4521 373.342 39.553 375.171 40.2621C375.019 42.941 374.866 47.0513 374.712 51.3756C371.482 52.0877 370.526 56.1386 373.656 57.8228C373.852 57.9286 374.059 58.019 374.275 58.0938C369.377 75.7748 343.876 79.5571 337.27 103.686C335.085 111.669 336.132 118.362 340.36 126.293C339.194 126.293 338.028 126.293 336.862 126.293C336.862 128.136 336.862 129.98 336.862 131.823C333.29 131.82 329.717 131.818 326.145 131.814C326.145 116.036 326.145 100.258 326.145 84.4798C326.758 84.4798 327.37 84.4798 327.983 84.4798C327.983 82.5203 327.983 80.5609 327.983 78.6008C326.828 78.6008 325.673 78.6008 324.518 78.6008C324.568 76.1236 325.082 76.6321 326.11 74.045C326.672 72.6281 327.281 70.4037 327.216 67.7625C327.149 65.1213 326.407 62.062 323.686 58.8576C319.588 54.032 311.465 49.2576 308.803 46.2524C307.522 44.8051 308.621 44.5578 309.048 44.0808C309.772 43.2715 309.346 40.9548 307.731 40.6947C307.455 35.7246 307.183 30.8687 307.003 28.3277C306.812 25.6422 306.742 25.4447 306.535 25.5419C306.327 25.4447 306.258 25.6422 306.067 28.3277C305.887 30.8687 305.615 35.724 305.339 40.6947C303.723 40.9554 303.298 43.2715 304.021 44.0808C304.448 44.5572 305.548 44.8045 304.267 46.2524C301.605 49.2576 293.481 54.032 289.383 58.8576C286.662 62.062 285.921 65.1213 285.855 67.7625C285.789 70.4037 286.397 72.6287 286.96 74.045C287.987 76.6315 288.502 76.123 288.552 78.6008C287.397 78.6008 286.242 78.6008 285.087 78.6008C285.087 80.5603 285.087 82.5197 285.087 84.4798C285.7 84.4798 286.312 84.4798 286.924 84.4798C286.924 100.248 286.924 116.016 286.924 131.783C284.426 131.782 281.928 131.78 279.431 131.777C279.431 127.189 279.431 122.6 279.431 118.012C279.949 118.012 280.467 118.012 280.985 118.012C280.985 117.222 280.985 116.433 280.985 115.644C280.467 115.644 279.949 115.644 279.431 115.644C279.431 105.882 279.431 96.1195 279.431 86.3579C279.949 86.3579 280.467 86.3579 280.985 86.3579C280.985 85.5686 280.985 84.7794 280.985 83.9901C280.465 83.9901 279.945 83.9901 279.425 83.9901C279.425 74.5803 279.425 65.171 279.425 55.7612C279.745 55.7612 280.064 55.7612 280.384 55.7612C280.384 55.102 280.384 54.4428 280.384 53.7842C280.58 53.7842 280.777 53.7842 280.973 53.7842C280.973 53.3394 280.973 52.8946 280.973 52.4499C280.442 52.4499 279.911 52.4499 279.381 52.4499C279.381 47.3467 279.381 42.2423 279.381 37.1385C279.91 37.1385 280.439 37.1385 280.969 37.1385C280.969 35.8801 280.969 34.6218 280.969 33.3629C280.42 33.3629 279.871 33.3629 279.321 33.3629C279.321 32.7535 279.321 32.144 279.321 31.5352C278.986 31.5352 278.651 31.5352 278.316 31.5352C281.074 28.0525 282.706 24.2647 281.265 19.9836C280.15 16.671 277.603 15.6502 275.037 14.6216C273.131 13.8572 271.213 13.0887 269.92 11.3406C269.92 10.9463 269.92 10.5525 269.92 10.1588C269.517 10.1588 269.114 10.1588 268.711 10.1588C268.711 9.84713 268.711 9.53603 268.711 9.22433C268.519 9.22433 268.329 9.22433 268.138 9.22433C267.966 8.65866 267.819 8.36521 267.804 7.73149C268.086 7.47994 268.142 7.08743 267.973 6.77756C268.403 6.52723 268.428 6.04114 268.005 5.77197C268.135 5.46635 268.06 5.07631 267.779 4.86243C267.75 3.37747 267.721 1.8919 267.691 0.406937C267.68 -0.135038 267.038 -0.136253 267.026 0.406937C266.997 1.8919 266.968 3.37747 266.938 4.86243C266.658 5.07509 266.582 5.46574 266.713 5.77197C266.29 6.04114 266.314 6.52662 266.744 6.77756C266.575 7.08743 266.632 7.47934 266.913 7.73149C266.898 8.36521 266.752 8.65866 266.579 9.22433C266.389 9.22433 266.197 9.22433 266.006 9.22433C266.006 9.53542 266.006 9.84713 266.006 10.1588C265.603 10.1588 265.2 10.1588 264.797 10.1588C264.797 10.5525 264.797 10.9469 264.797 11.3406C263.504 13.0887 261.586 13.8572 259.679 14.6216C257.095 15.6575 254.53 16.6856 253.428 20.0559C252.051 24.2666 253.759 28.1133 256.463 31.5352C256.115 31.5352 255.768 31.5352 255.419 31.5352C255.419 32.144 255.419 32.7535 255.419 33.3629C254.87 33.3629 254.32 33.3629 253.771 33.3629C253.771 34.6218 253.771 35.8801 253.771 37.1385C254.301 37.1385 254.829 37.1385 255.359 37.1385C255.359 42.2423 255.359 47.3461 255.359 52.4499C254.829 52.4499 254.297 52.4499 253.766 52.4499C253.766 52.8946 253.766 53.3388 253.766 53.7842C253.963 53.7842 254.16 53.7842 254.356 53.7842C254.356 54.4434 254.356 55.1026 254.356 55.7612C254.676 55.7612 254.996 55.7612 255.315 55.7612C255.315 65.171 255.315 74.5809 255.315 83.9901C254.794 83.9901 254.275 83.9901 253.754 83.9901C253.754 84.7794 253.754 85.5686 253.754 86.3579C254.273 86.3579 254.791 86.3579 255.309 86.3579C255.309 96.1195 255.309 105.882 255.309 115.644C254.791 115.644 254.273 115.644 253.754 115.644C253.754 116.433 253.754 117.222 253.754 118.012C254.273 118.012 254.791 118.012 255.309 118.012C255.309 122.594 255.309 127.177 255.309 131.759C253.089 131.757 250.868 131.756 248.649 131.754V146.27C245.216 149.728 243.23 154.749 243.362 159.695C242.602 159.695 241.842 159.695 241.082 159.695C241.082 160.679 241.082 161.663 241.082 162.647C240.247 162.647 239.411 162.647 238.576 162.647C238.576 155.886 238.576 149.126 238.576 142.365C239.188 142.365 239.801 142.365 240.413 142.365C240.413 140.406 240.413 138.446 240.413 136.487C239.258 136.487 238.103 136.487 236.948 136.487C236.997 134.01 237.512 134.518 238.54 131.931C239.102 130.515 239.712 128.29 239.645 125.649C239.579 123.007 238.837 119.948 236.116 116.744C232.018 111.918 223.895 107.144 221.233 104.139C219.951 102.691 221.052 102.444 221.478 101.967C222.202 101.158 221.775 98.8409 220.16 98.5809C219.884 93.6107 219.613 88.7548 219.432 86.2139C219.241 83.5283 219.171 83.3302 218.964 83.4281C218.756 83.3309 218.687 83.5283 218.496 86.2139C218.315 88.7548 218.044 93.6101 217.768 98.5809C216.152 98.8415 215.726 101.158 216.45 101.967C216.877 102.443 217.977 102.691 216.695 104.139C214.033 107.144 205.91 111.918 201.813 116.744C199.091 119.948 198.35 123.007 198.283 125.649C198.217 128.29 198.827 130.515 199.39 131.931C200.417 134.518 200.932 134.01 200.981 136.487C199.826 136.487 198.671 136.487 197.516 136.487C197.516 138.446 197.516 140.406 197.516 142.365C198.128 142.365 198.741 142.365 199.353 142.365C199.353 149.126 199.353 155.886 199.353 162.647C197.428 162.647 195.502 162.647 193.578 162.647C193.578 147.768 193.578 132.89 193.578 118.012C194.096 118.012 194.614 118.012 195.132 118.012C195.132 117.222 195.132 116.433 195.132 115.644C194.614 115.644 194.096 115.644 193.578 115.644C193.578 105.882 193.578 96.1195 193.578 86.3579C194.096 86.3579 194.614 86.3579 195.132 86.3579C195.132 85.5686 195.132 84.7794 195.132 83.9901C194.613 83.9901 194.092 83.9901 193.571 83.9901C193.571 74.5803 193.571 65.171 193.571 55.7612C193.892 55.7612 194.211 55.7612 194.531 55.7612C194.531 55.102 194.531 54.4428 194.531 53.7842C194.727 53.7842 194.924 53.7842 195.12 53.7842C195.12 53.3394 195.12 52.8946 195.12 52.4499C194.589 52.4499 194.059 52.4499 193.528 52.4499C193.528 47.3467 193.528 42.2423 193.528 37.1385C194.057 37.1385 194.586 37.1385 195.116 37.1385C195.116 35.8801 195.116 34.6218 195.116 33.3629C194.567 33.3629 194.017 33.3629 193.467 33.3629C193.467 32.7535 193.467 32.144 193.467 31.5352C193.133 31.5352 192.798 31.5352 192.463 31.5352C195.221 28.0525 196.852 24.2647 195.412 19.9836C194.297 16.671 191.75 15.6502 189.184 14.6216C187.277 13.8572 185.359 13.0887 184.066 11.3406C184.066 10.9463 184.066 10.5525 184.066 10.1588C183.663 10.1588 183.26 10.1588 182.857 10.1588C182.857 9.84713 182.857 9.53603 182.857 9.22433C182.666 9.22433 182.475 9.22433 182.284 9.22433C182.112 8.65866 181.965 8.36521 181.951 7.73149C182.232 7.47994 182.288 7.08743 182.119 6.77756C182.55 6.52723 182.575 6.04114 182.15 5.77197C182.28 5.46635 182.205 5.07631 181.924 4.86243C181.895 3.37747 181.867 1.8919 181.837 0.406937C181.827 -0.135038 181.184 -0.136253 181.173 0.406937C181.143 1.8919 181.115 3.37747 181.085 4.86243C180.805 5.07509 180.729 5.46574 180.859 5.77197C180.436 6.04114 180.46 6.52662 180.891 6.77756C180.722 7.08743 180.779 7.47934 181.06 7.73149C181.045 8.36521 180.898 8.65866 180.726 9.22433C180.535 9.22433 180.344 9.22433 180.153 9.22433C180.153 9.53542 180.153 9.84713 180.153 10.1588C179.75 10.1588 179.347 10.1588 178.944 10.1588C178.944 10.5525 178.944 10.9469 178.944 11.3406C177.651 13.0887 175.733 13.8572 173.826 14.6216C171.242 15.6575 168.677 16.6856 167.575 20.0559C166.197 24.2666 167.905 28.1133 170.61 31.5352C170.262 31.5352 169.914 31.5352 169.566 31.5352C169.566 32.144 169.566 32.7535 169.566 33.3629C169.017 33.3629 168.467 33.3629 167.918 33.3629C167.918 34.6218 167.918 35.8801 167.918 37.1385C168.448 37.1385 168.977 37.1385 169.506 37.1385C169.506 42.2423 169.506 47.3461 169.506 52.4499C168.976 52.4499 168.445 52.4499 167.914 52.4499C167.914 52.8946 167.914 53.3388 167.914 53.7842C168.11 53.7842 168.308 53.7842 168.503 53.7842C168.503 54.4434 168.503 55.1026 168.503 55.7612C168.823 55.7612 169.142 55.7612 169.462 55.7612C169.462 65.171 169.462 74.5809 169.462 83.9901C168.941 83.9901 168.422 83.9901 167.901 83.9901C167.901 84.7794 167.901 85.5686 167.901 86.3579C168.419 86.3579 168.938 86.3579 169.456 86.3579C169.456 96.1195 169.456 105.882 169.456 115.644C168.938 115.644 168.419 115.644 167.901 115.644C167.901 116.433 167.901 117.222 167.901 118.012C168.419 118.012 168.938 118.012 169.456 118.012C169.456 132.89 169.456 147.769 169.456 162.647C167.725 162.647 165.994 162.647 164.263 162.647C164.263 156.528 164.263 150.41 164.263 144.291C162.963 144.291 161.663 144.291 160.363 144.291C160.363 143.209 160.363 142.125 160.363 141.042C159.435 141.042 158.507 141.042 157.578 141.042C157.823 132.788 152.124 124.345 143.335 121.993C143.335 121.376 143.335 120.759 143.335 120.142C142.628 120.142 141.92 120.142 141.213 120.142C141.213 119.593 141.213 119.045 141.213 118.497C140.906 118.497 140.599 118.497 140.293 118.497C140.07 117.737 139.848 116.976 139.626 116.216C139.624 115.938 139.621 115.66 139.619 115.382C140.184 115.047 140.244 114.157 139.732 113.728C140.711 113.451 140.782 112.558 139.845 112.218C140.25 111.737 140.121 110.938 139.58 110.655C139.527 107.984 139.475 105.313 139.423 102.642C139.413 102.12 139.025 102.12 139.014 102.64C138.962 105.312 138.909 107.983 138.857 110.655C138.316 110.938 138.188 111.737 138.591 112.218C137.655 112.558 137.725 113.451 138.704 113.728C138.193 114.157 138.252 115.046 138.818 115.382C138.816 115.66 138.814 115.939 138.811 116.217C138.59 116.977 138.367 117.737 138.145 118.497C137.838 118.497 137.531 118.497 137.224 118.497C137.224 119.045 137.224 119.594 137.224 120.142C136.517 120.142 135.81 120.142 135.102 120.142C135.102 120.759 135.102 121.376 135.102 121.993C126.312 124.345 120.614 132.788 120.858 141.042C119.93 141.042 119.001 141.042 118.074 141.042C118.074 142.125 118.074 143.208 118.074 144.291C116.773 144.291 115.473 144.291 114.173 144.291C114.173 150.41 114.173 156.528 114.173 162.647C113.182 162.647 112.192 162.647 111.202 162.647C111.202 158.337 111.202 154.029 111.202 149.719C111.208 149.719 111.216 149.719 111.222 149.719C111.222 127.973 111.222 106.226 111.222 84.4798C111.835 84.4798 112.448 84.4798 113.06 84.4798C113.06 82.5203 113.06 80.5609 113.06 78.6008C111.905 78.6008 110.75 78.6008 109.595 78.6008C109.644 76.1236 110.159 76.6321 111.186 74.045C111.749 72.6281 112.358 70.4037 112.292 67.7625C112.225 65.1213 111.484 62.062 108.763 58.8576C104.665 54.032 96.5416 49.2576 93.8797 46.2524C92.5983 44.8051 93.6981 44.5578 94.1246 44.0808C94.8482 43.2715 94.4223 40.9548 92.8061 40.6947C92.5308 35.7246 92.2593 30.8687 92.0788 28.3277C91.8874 25.6422 91.8181 25.4447 91.6109 25.5419C91.4038 25.4447 91.3345 25.6422 91.1431 28.3277C90.962 30.8687 90.691 35.724 90.4152 40.6947C88.7996 40.9554 88.3737 43.2715 89.0973 44.0808C89.5238 44.5572 90.6242 44.8045 89.3428 46.2524C86.6809 49.2576 78.5574 54.032 74.4598 58.8576C71.739 62.062 70.9977 65.1213 70.9315 67.7625C70.8652 70.4037 71.474 72.6287 72.0367 74.045C73.0647 76.6315 73.5788 76.123 73.6286 78.6008C72.4735 78.6008 71.3179 78.6008 70.1629 78.6008C70.1629 80.5603 70.1629 82.5197 70.1629 84.4798C70.7759 84.4798 71.3884 84.4798 72.0002 84.4798C72.0002 100.283 72.0002 116.088 72.0002 131.892C69.1105 131.889 66.2202 131.887 63.3298 131.885C63.3298 130.021 63.3298 128.157 63.3298 126.293C62.1639 126.293 60.9979 126.293 59.8319 126.293C64.0596 118.362 65.1077 111.67 62.9222 103.686C56.3158 79.5571 30.815 75.7748 25.9172 58.0938C29.5075 56.8512 29.2013 52.2469 25.4804 51.3829C25.3339 47.2592 25.1875 43.3293 25.0429 40.6492C32.2186 42.7624 40.4503 39.1271 43.1553 31.3554C43.2245 31.1555 42.9572 31.0151 42.8314 31.1822C37.9816 37.593 28.6149 38.2595 22.9315 32.5754C17.5239 27.1684 17.8301 18.3449 23.5482 13.3092C23.7061 13.1701 23.5452 12.9052 23.338 13.0048C20.6992 14.1586 18.4632 16.064 16.9017 18.4482C13.0787 24.286 13.896 32.0055 18.8181 36.9282C20.3419 38.4521 22.0766 39.553 23.9055 40.2621C23.7542 42.941 23.6011 47.0513 23.4473 51.3756C20.2174 52.0877 19.261 56.1386 22.3913 57.8228C22.5876 57.9286 22.7942 58.019 23.0105 58.0938C18.1127 75.7748 -7.38812 79.5571 -13.9945 103.686C-16.18 111.669 -15.1325 118.362 -10.9043 126.293C-12.0702 126.293 -13.2362 126.293 -14.4028 126.293C-14.4028 128.136 -14.4028 129.98 -14.4028 131.823C-17.9749 131.82 -21.5475 131.818 -25.1196 131.814C-25.1196 116.036 -25.1196 100.258 -25.1196 84.4798C-24.5065 84.4798 -23.894 84.4798 -23.2816 84.4798C-23.2816 82.5203 -23.2816 80.5609 -23.2816 78.6008C-24.4366 78.6008 -25.5922 78.6008 -26.7473 78.6008C-26.6974 76.1236 -26.1834 76.6321 -25.1554 74.045C-24.5927 72.6281 -23.984 70.4037 -24.0502 67.7625C-24.1164 65.1213 -24.8577 62.062 -27.5791 58.8576C-31.6767 54.032 -39.8002 49.2576 -42.4621 46.2524C-43.7435 44.8051 -42.6438 44.5578 -42.2166 44.0808C-41.493 43.2715 -41.9189 40.9548 -43.5345 40.6947C-43.8104 35.7246 -44.082 30.8687 -44.2624 28.3277C-44.4538 25.6422 -44.5231 25.4447 -44.7303 25.5419C-44.9375 25.4447 -45.0073 25.6422 -45.1987 28.3277C-45.3792 30.8687 -45.6508 35.724 -45.9266 40.6947C-47.5422 40.9554 -47.9675 43.2715 -47.2439 44.0808C-46.8173 44.5572 -45.717 44.8045 -46.999 46.2524C-49.6609 49.2576 -57.7838 54.032 -61.8827 58.8576C-64.6035 62.062 -65.3447 65.1213 -65.411 67.7625C-65.4772 70.4037 -64.8684 72.6287 -64.3058 74.045C-63.2777 76.6315 -62.7637 76.123 -62.7138 78.6008C-63.8689 78.6008 -65.0239 78.6008 -66.1796 78.6008C-66.1796 80.5603 -66.1796 82.5197 -66.1796 84.4798C-65.5665 84.4798 -64.9541 84.4798 -64.3422 84.4798C-64.3422 100.248 -64.3422 116.016 -64.3422 131.783C-66.8394 131.782 -69.3378 131.78 -71.8357 131.777C-71.8357 127.189 -71.8357 122.6 -71.8357 118.012C-71.3174 118.012 -70.7991 118.012 -70.2808 118.012C-70.2808 117.222 -70.2808 116.433 -70.2808 115.644C-70.7991 115.644 -71.3174 115.644 -71.8357 115.644C-71.8357 105.882 -71.8357 96.1195 -71.8357 86.3579C-71.3174 86.3579 -70.7991 86.3579 -70.2808 86.3579C-70.2808 85.5686 -70.2808 84.7794 -70.2808 83.9901C-70.8009 83.9901 -71.321 83.9901 -71.8418 83.9901C-71.8418 74.5803 -71.8418 65.171 -71.8418 55.7612C-71.5215 55.7612 -71.2026 55.7612 -70.8823 55.7612C-70.8823 55.102 -70.8823 54.4428 -70.8823 53.7842C-70.6861 53.7842 -70.4892 53.7842 -70.293 53.7842C-70.293 53.3394 -70.293 52.8946 -70.293 52.4499C-70.824 52.4499 -71.3545 52.4499 -71.8855 52.4499C-71.8855 47.3467 -71.8855 42.2423 -71.8855 37.1385C-71.3563 37.1385 -70.8271 37.1385 -70.2972 37.1385C-70.2972 35.8801 -70.2972 34.6218 -70.2972 33.3629C-70.8471 33.3629 -71.3964 33.3629 -71.9456 33.3629C-71.9456 32.7535 -71.9456 32.144 -71.9456 31.5352C-72.281 31.5352 -72.6158 31.5352 -72.9506 31.5352C-70.1927 28.0525 -68.5614 24.2647 -70.002 19.9836C-71.1169 16.671 -73.6639 15.6502 -76.2298 14.6216C-78.1364 13.8572 -80.0546 13.0887 -81.3476 11.3406C-81.3476 10.9463 -81.3476 10.5525 -81.3476 10.1588C-81.7504 10.1588 -82.1539 10.1588 -82.5567 10.1588C-82.5567 9.84713 -82.5567 9.53603 -82.5567 9.22433C-82.7475 9.22433 -82.9389 9.22433 -83.1296 9.22433C-83.3022 8.65866 -83.4486 8.36521 -83.4638 7.73149C-83.1825 7.47994 -83.126 7.08743 -83.2949 6.77756C-82.8641 6.52723 -82.8398 6.04114 -83.2633 5.77197C-83.1333 5.46635 -83.2086 5.07631 -83.4893 4.86243C-83.5185 3.37747 -83.5471 1.8919 -83.5768 0.406937C-83.5872 -0.135038 -84.23 -0.136253 -84.2415 0.406937C-84.2707 1.8919 -84.2999 3.37747 -84.329 4.86243C-84.6091 5.07509 -84.6851 5.46574 -84.5545 5.77197C-84.9779 6.04114 -84.9543 6.52662 -84.5235 6.77756C-84.6924 7.08743 -84.6359 7.47934 -84.3545 7.73149C-84.3691 8.36521 -84.5162 8.65866 -84.6887 9.22433C-84.8789 9.22433 -85.0703 9.22433 -85.2611 9.22433C-85.2611 9.53542 -85.2611 9.84713 -85.2611 10.1588C-85.6645 10.1588 -86.0667 10.1588 -86.4702 10.1588C-86.4702 10.5525 -86.4702 10.9469 -86.4702 11.3406C-87.7632 13.0887 -89.6813 13.8572 -91.5886 14.6216C-94.1727 15.6575 -96.7373 16.6856 -97.8395 20.0559C-99.2169 24.2666 -97.509 28.1133 -94.8046 31.5352C-95.1527 31.5352 -95.5003 31.5352 -95.8484 31.5352C-95.8484 32.144 -95.8484 32.7535 -95.8484 33.3629C-96.3977 33.3629 -96.9476 33.3629 -97.4968 33.3629C-97.4968 34.6218 -97.4968 35.8801 -97.4968 37.1385C-96.967 37.1385 -96.4378 37.1385 -95.9086 37.1385C-95.9086 42.2423 -95.9086 47.3461 -95.9086 52.4499C-96.4396 52.4499 -96.97 52.4499 -97.5011 52.4499C-97.5011 52.8946 -97.5011 53.3388 -97.5011 53.7842C-97.3048 53.7842 -97.1074 53.7842 -96.9111 53.7842C-96.9111 54.4434 -96.9111 55.1026 -96.9111 55.7612C-96.5915 55.7612 -96.2719 55.7612 -95.9523 55.7612C-95.9523 65.171 -95.9523 74.5809 -95.9523 83.9901C-96.473 83.9901 -96.9925 83.9901 -97.5132 83.9901C-97.5132 84.7794 -97.5132 85.5686 -97.5132 86.3579C-96.995 86.3579 -96.4767 86.3579 -95.9584 86.3579C-95.9584 96.1195 -95.9584 105.882 -95.9584 115.644C-96.4767 115.644 -96.995 115.644 -97.5132 115.644C-97.5132 116.433 -97.5132 117.222 -97.5132 118.012C-96.995 118.012 -96.4767 118.012 -95.9584 118.012C-95.9584 122.594 -95.9584 127.177 -95.9584 131.759C-98.1786 131.757 -100.399 131.756 -102.619 131.754C-102.619 142.051 -102.619 152.349 -102.619 162.647C-104.81 162.647 -107.002 162.647 -109.194 162.647C-109.194 161.664 -109.194 160.68 -109.194 159.696C-109.954 159.696 -110.713 159.696 -111.473 159.696C-111.273 152.199 -115.937 144.53 -123.131 142.394C-123.131 141.834 -123.131 141.274 -123.131 140.713C-123.711 140.713 -124.289 140.713 -124.869 140.713C-124.869 140.215 -124.869 139.717 -124.869 139.219C-125.119 139.219 -125.371 139.219 -125.622 139.219C-125.803 138.528 -125.986 137.838 -126.168 137.147C-126.17 136.895 -126.171 136.642 -126.173 136.389C-125.709 136.083 -125.663 135.275 -126.081 134.887C-125.279 134.636 -125.221 133.824 -125.988 133.516C-125.661 133.081 -125.758 132.355 -126.205 132.096C-126.248 129.67 -126.291 127.244 -126.334 124.817C-126.342 124.343 -126.66 124.343 -126.668 124.816C-126.711 127.243 -126.754 129.669 -126.797 132.095C-127.243 132.354 -127.342 133.081 -127.014 133.515C-127.781 133.824 -127.723 134.635 -126.922 134.886C-127.34 135.275 -127.293 136.083 -126.83 136.389C-126.832 136.641 -126.833 136.894 -126.835 137.147C-127.017 137.837 -127.198 138.527 -127.381 139.217C-127.632 139.217 -127.883 139.217 -128.134 139.217C-128.134 139.716 -128.134 140.214 -128.134 140.712C-128.713 140.712 -129.292 140.712 -129.87 140.712C-129.87 141.272 -129.87 141.833 -129.87 142.393C-137.065 144.528 -141.729 152.198 -141.529 159.695C-142.288 159.695 -143.048 159.695 -143.808 159.695C-143.808 160.678 -143.808 161.663 -143.808 162.646C-144.872 162.646 -145.937 162.646 -147 162.646V169.68V218H582.114V160.895C581.702 160.695 581.389 160.282 581.389 159.656C581.389 155.607 581.389 151.559 581.389 147.51C581.389 146.975 581.684 146.507 582.114 146.273V111.859H582.119ZM553.545 146.114C554.288 146.114 554.895 146.743 554.895 147.512C554.895 151.56 554.895 155.608 554.895 159.657C554.895 161.499 552.196 161.499 552.196 159.657C552.196 155.608 552.196 151.56 552.196 147.512C552.196 146.742 552.803 146.114 553.545 146.114ZM578.573 146.114C579.315 146.114 579.923 146.743 579.923 147.512C579.923 151.56 579.923 155.608 579.923 159.657C579.923 161.499 577.223 161.499 577.223 159.657C577.223 155.608 577.223 151.56 577.223 147.512C577.222 146.742 577.83 146.114 578.573 146.114ZM574.401 146.114C575.144 146.114 575.751 146.743 575.751 147.512C575.751 151.56 575.751 155.608 575.751 159.657C575.751 161.499 573.051 161.499 573.051 159.657C573.051 155.608 573.051 151.56 573.051 147.512C573.051 146.742 573.659 146.114 574.401 146.114ZM570.23 146.114C570.972 146.114 571.58 146.743 571.58 147.512C571.58 151.56 571.58 155.608 571.58 159.657C571.58 161.499 568.88 161.499 568.88 159.657C568.88 155.608 568.88 151.56 568.88 147.512C568.88 146.742 569.488 146.114 570.23 146.114ZM566.059 146.114C566.801 146.114 567.409 146.743 567.409 147.512C567.409 151.56 567.409 155.608 567.409 159.657C567.409 161.499 564.709 161.499 564.709 159.657C564.709 155.608 564.709 151.56 564.709 147.512C564.709 146.742 565.317 146.114 566.059 146.114ZM561.887 146.114C562.63 146.114 563.238 146.743 563.238 147.512C563.238 151.56 563.238 155.608 563.238 159.657C563.238 161.499 560.538 161.499 560.538 159.657C560.538 155.608 560.538 151.56 560.538 147.512C560.538 146.742 561.146 146.114 561.887 146.114ZM557.716 146.114C558.458 146.114 559.066 146.743 559.066 147.512C559.066 151.56 559.066 155.608 559.066 159.657C559.066 161.499 556.367 161.499 556.367 159.657C556.367 155.608 556.367 151.56 556.367 147.512C556.367 146.742 556.974 146.114 557.716 146.114ZM521.843 39.0299C522.285 39.0299 522.727 39.0299 523.168 39.0299C523.168 43.1713 523.168 47.3126 523.168 51.454C522.726 51.454 522.285 51.454 521.843 51.454C521.843 47.3126 521.843 43.1713 521.843 39.0299ZM542.398 39.0299C542.839 39.0299 543.281 39.0299 543.723 39.0299C543.723 43.1713 543.723 47.3126 543.723 51.454C543.281 51.454 542.839 51.454 542.398 51.454C542.398 47.3126 542.398 43.1713 542.398 39.0299ZM540.114 39.0299C540.555 39.0299 540.996 39.0299 541.438 39.0299C541.438 43.1713 541.438 47.3126 541.438 51.454C540.996 51.454 540.555 51.454 540.114 51.454C540.114 47.3126 540.114 43.1713 540.114 39.0299ZM537.83 39.0299C538.271 39.0299 538.713 39.0299 539.155 39.0299C539.155 43.1713 539.155 47.3126 539.155 51.454C538.713 51.454 538.271 51.454 537.83 51.454C537.83 47.3126 537.83 43.1713 537.83 39.0299ZM535.546 39.0299C535.988 39.0299 536.43 39.0299 536.871 39.0299C536.871 43.1713 536.871 47.3126 536.871 51.454C536.429 51.454 535.987 51.454 535.546 51.454C535.546 47.3126 535.546 43.1713 535.546 39.0299ZM533.262 39.0299C533.704 39.0299 534.146 39.0299 534.587 39.0299C534.587 43.1713 534.587 47.3126 534.587 51.454C534.145 51.454 533.703 51.454 533.262 51.454C533.262 47.3126 533.262 43.1713 533.262 39.0299ZM530.979 39.0299C531.42 39.0299 531.862 39.0299 532.304 39.0299C532.304 43.1713 532.304 47.3126 532.304 51.454C531.862 51.454 531.42 51.454 530.979 51.454C530.979 47.3126 530.979 43.1713 530.979 39.0299ZM528.695 39.0299C529.137 39.0299 529.578 39.0299 530.02 39.0299C530.02 43.1713 530.02 47.3126 530.02 51.454C529.578 51.454 529.137 51.454 528.695 51.454C528.695 47.3126 528.695 43.1713 528.695 39.0299ZM526.411 39.0299C526.853 39.0299 527.295 39.0299 527.736 39.0299C527.736 43.1713 527.736 47.3126 527.736 51.454C527.294 51.454 526.852 51.454 526.411 51.454C526.411 47.3126 526.411 43.1713 526.411 39.0299ZM524.128 39.0299C524.57 39.0299 525.011 39.0299 525.453 39.0299C525.453 43.1713 525.453 47.3126 525.453 51.454C525.011 51.454 524.569 51.454 524.128 51.454C524.128 47.3126 524.128 43.1713 524.128 39.0299ZM532.783 56.062C531.453 56.1124 529.323 58.1904 528.562 59.1322C527.17 60.8529 528.848 61.5152 528.189 61.7351C527.43 62.096 526.672 62.4575 525.914 62.8184C525.914 68.754 525.914 74.6903 525.914 80.6265C530.494 80.6265 535.073 80.6265 539.653 80.6265C539.653 74.6903 539.653 68.754 539.653 62.8184C536.224 60.7897 537.279 62.5347 537.561 60.5625C537.754 59.1997 534.253 56.1185 532.783 56.062ZM532.783 89.8048C531.453 89.8558 529.323 91.9332 528.562 92.8743C527.17 94.5957 528.848 95.2574 528.189 95.4779C527.43 95.8388 526.672 96.2003 525.914 96.5612C525.914 102.497 525.914 108.434 525.914 114.369C530.494 114.369 535.073 114.369 539.653 114.369C539.653 108.434 539.653 102.497 539.653 96.5612C536.224 94.5325 537.279 96.2781 537.561 94.3052C537.754 92.943 534.253 89.8613 532.783 89.8048ZM442.936 87.2638C441.44 87.3288 439.045 89.9925 438.187 91.1998C436.622 93.4066 438.51 94.2542 437.768 94.5367C436.915 94.9997 436.062 95.4627 435.209 95.9257C435.209 103.536 435.209 108.728 435.209 116.338C440.361 116.338 445.512 116.338 450.662 116.338C450.662 108.728 450.662 103.536 450.662 95.9257C446.806 93.3252 447.992 95.563 448.309 93.0342C448.499 91.5091 446.107 89.2525 444.944 88.2822C444.179 87.643 443.544 87.2905 442.936 87.2638ZM429.308 93.8666C424.238 94.1807 425.01 111.052 425.01 116.339C427.875 116.339 430.74 116.339 433.605 116.339C433.605 111.47 434.117 94.1643 429.308 93.8666ZM456.564 93.8666C461.634 94.1807 460.862 111.052 460.862 116.339C457.997 116.339 455.132 116.339 452.266 116.339C452.266 111.47 451.754 94.1643 456.564 93.8666ZM306.594 87.2638C305.098 87.3288 302.703 89.9925 301.846 91.1998C300.28 93.4066 302.169 94.2542 301.427 94.5367C300.574 94.9997 299.721 95.4627 298.868 95.9257C298.868 103.536 298.868 108.728 298.868 116.338C304.019 116.338 309.17 116.338 314.321 116.338C314.321 108.728 314.321 103.536 314.321 95.9257C310.465 93.3252 311.651 95.563 311.968 93.0342C312.159 91.5091 309.767 89.2525 308.604 88.2822C307.837 87.643 307.203 87.2905 306.594 87.2638ZM292.966 93.8666C287.896 94.1807 288.668 111.052 288.668 116.339C291.533 116.339 294.398 116.339 297.264 116.339C297.264 111.47 297.776 94.1643 292.966 93.8666ZM320.223 93.8666C325.293 94.1807 324.52 111.052 324.52 116.339C321.655 116.339 318.79 116.339 315.925 116.339C315.925 111.47 315.413 94.1643 320.223 93.8666ZM256.432 39.0299C256.874 39.0299 257.315 39.0299 257.757 39.0299C257.757 43.1713 257.757 47.3126 257.757 51.454C257.315 51.454 256.873 51.454 256.432 51.454C256.432 47.3126 256.432 43.1713 256.432 39.0299ZM276.986 39.0299C277.428 39.0299 277.87 39.0299 278.311 39.0299C278.311 43.1713 278.311 47.3126 278.311 51.454C277.869 51.454 277.427 51.454 276.986 51.454C276.986 47.3126 276.986 43.1713 276.986 39.0299ZM274.703 39.0299C275.145 39.0299 275.586 39.0299 276.027 39.0299C276.027 43.1713 276.027 47.3126 276.027 51.454C275.585 51.454 275.144 51.454 274.703 51.454C274.703 47.3126 274.703 43.1713 274.703 39.0299ZM272.418 39.0299C272.86 39.0299 273.302 39.0299 273.743 39.0299C273.743 43.1713 273.743 47.3126 273.743 51.454C273.302 51.454 272.86 51.454 272.418 51.454C272.418 47.3126 272.418 43.1713 272.418 39.0299ZM270.135 39.0299C270.577 39.0299 271.018 39.0299 271.46 39.0299C271.46 43.1713 271.46 47.3126 271.46 51.454C271.018 51.454 270.576 51.454 270.135 51.454C270.135 47.3126 270.135 43.1713 270.135 39.0299ZM267.851 39.0299C268.293 39.0299 268.735 39.0299 269.176 39.0299C269.176 43.1713 269.176 47.3126 269.176 51.454C268.734 51.454 268.292 51.454 267.851 51.454C267.851 47.3126 267.851 43.1713 267.851 39.0299ZM265.567 39.0299C266.009 39.0299 266.451 39.0299 266.892 39.0299C266.892 43.1713 266.892 47.3126 266.892 51.454C266.45 51.454 266.008 51.454 265.567 51.454C265.567 47.3126 265.567 43.1713 265.567 39.0299ZM263.284 39.0299C263.726 39.0299 264.167 39.0299 264.608 39.0299C264.608 43.1713 264.608 47.3126 264.608 51.454C264.166 51.454 263.725 51.454 263.284 51.454C263.284 47.3126 263.284 43.1713 263.284 39.0299ZM261 39.0299C261.442 39.0299 261.883 39.0299 262.324 39.0299C262.324 43.1713 262.324 47.3126 262.324 51.454C261.883 51.454 261.441 51.454 261 51.454C261 47.3126 261 43.1713 261 39.0299ZM258.716 39.0299C259.158 39.0299 259.599 39.0299 260.04 39.0299C260.04 43.1713 260.04 47.3126 260.04 51.454C259.599 51.454 259.158 51.454 258.716 51.454C258.716 47.3126 258.716 43.1713 258.716 39.0299ZM267.372 56.062C266.042 56.1124 263.912 58.1904 263.15 59.1322C261.758 60.8529 263.436 61.5152 262.777 61.7351C262.019 62.096 261.26 62.4575 260.502 62.8184C260.502 68.754 260.502 74.6903 260.502 80.6265C265.082 80.6265 269.661 80.6265 274.241 80.6265C274.241 74.6903 274.241 68.754 274.241 62.8184C270.812 60.7897 271.867 62.5347 272.149 60.5625C272.343 59.1997 268.842 56.1185 267.372 56.062ZM267.372 89.8048C266.042 89.8558 263.912 91.9332 263.15 92.8743C261.758 94.5957 263.436 95.2574 262.777 95.4779C262.019 95.8388 261.26 96.2003 260.502 96.5612C260.502 102.497 260.502 108.434 260.502 114.369C265.082 114.369 269.661 114.369 274.241 114.369C274.241 108.434 274.241 102.497 274.241 96.5612C270.812 94.5325 271.867 96.2781 272.149 94.3052C272.343 92.943 268.842 89.8613 267.372 89.8048ZM202.282 146.114C203.024 146.114 203.632 146.743 203.632 147.512C203.632 151.56 203.632 155.608 203.632 159.657C203.632 161.499 200.932 161.499 200.932 159.657C200.932 155.608 200.932 151.56 200.932 147.512C200.932 146.742 201.539 146.114 202.282 146.114ZM235.652 146.114C236.393 146.114 237.001 146.743 237.001 147.512C237.001 151.56 237.001 155.608 237.001 159.657C237.001 161.499 234.302 161.499 234.302 159.657C234.302 155.608 234.302 151.56 234.302 147.512C234.302 146.742 234.909 146.114 235.652 146.114ZM231.48 146.114C232.223 146.114 232.83 146.743 232.83 147.512C232.83 151.56 232.83 155.608 232.83 159.657C232.83 161.499 230.13 161.499 230.13 159.657C230.13 155.608 230.13 151.56 230.13 147.512C230.13 146.742 230.738 146.114 231.48 146.114ZM227.309 146.114C228.051 146.114 228.659 146.743 228.659 147.512C228.659 151.56 228.659 155.608 228.659 159.657C228.659 161.499 225.959 161.499 225.959 159.657C225.959 155.608 225.959 151.56 225.959 147.512C225.959 146.742 226.567 146.114 227.309 146.114ZM223.138 146.114C223.881 146.114 224.487 146.743 224.487 147.512C224.487 151.56 224.487 155.608 224.487 159.657C224.487 161.499 221.788 161.499 221.788 159.657C221.788 155.608 221.788 151.56 221.788 147.512C221.788 146.742 222.395 146.114 223.138 146.114ZM218.966 146.114C219.71 146.114 220.317 146.743 220.317 147.512C220.317 151.56 220.317 155.608 220.317 159.657C220.317 161.499 217.617 161.499 217.617 159.657C217.617 155.608 217.617 151.56 217.617 147.512C217.617 146.742 218.225 146.114 218.966 146.114ZM214.795 146.114C215.537 146.114 216.145 146.743 216.145 147.512C216.145 151.56 216.145 155.608 216.145 159.657C216.145 161.499 213.445 161.499 213.445 159.657C213.445 155.608 213.445 151.56 213.445 147.512C213.445 146.742 214.053 146.114 214.795 146.114ZM210.624 146.114C211.367 146.114 211.974 146.743 211.974 147.512C211.974 151.56 211.974 155.608 211.974 159.657C211.974 161.499 209.275 161.499 209.275 159.657C209.275 155.608 209.275 151.56 209.275 147.512C209.275 146.742 209.882 146.114 210.624 146.114ZM206.453 146.114C207.195 146.114 207.802 146.743 207.802 147.512C207.802 151.56 207.802 155.608 207.802 159.657C207.802 161.499 205.103 161.499 205.103 159.657C205.103 155.608 205.103 151.56 205.103 147.512C205.103 146.742 205.711 146.114 206.453 146.114ZM170.58 39.0299C171.022 39.0299 171.464 39.0299 171.905 39.0299C171.905 43.1713 171.905 47.3126 171.905 51.454C171.463 51.454 171.021 51.454 170.58 51.454C170.58 47.3126 170.58 43.1713 170.58 39.0299ZM191.134 39.0299C191.576 39.0299 192.017 39.0299 192.459 39.0299C192.459 43.1713 192.459 47.3126 192.459 51.454C192.017 51.454 191.576 51.454 191.134 51.454C191.134 47.3126 191.134 43.1713 191.134 39.0299ZM188.85 39.0299C189.292 39.0299 189.733 39.0299 190.174 39.0299C190.174 43.1713 190.174 47.3126 190.174 51.454C189.733 51.454 189.292 51.454 188.85 51.454C188.85 47.3126 188.85 43.1713 188.85 39.0299ZM186.566 39.0299C187.008 39.0299 187.45 39.0299 187.892 39.0299C187.892 43.1713 187.892 47.3126 187.892 51.454C187.45 51.454 187.008 51.454 186.566 51.454C186.566 47.3126 186.566 43.1713 186.566 39.0299ZM184.283 39.0299C184.725 39.0299 185.167 39.0299 185.608 39.0299C185.608 43.1713 185.608 47.3126 185.608 51.454C185.166 51.454 184.724 51.454 184.283 51.454C184.283 47.3126 184.283 43.1713 184.283 39.0299ZM181.999 39.0299C182.44 39.0299 182.882 39.0299 183.323 39.0299C183.323 43.1713 183.323 47.3126 183.323 51.454C182.881 51.454 182.44 51.454 181.999 51.454C181.999 47.3126 181.999 43.1713 181.999 39.0299ZM179.715 39.0299C180.157 39.0299 180.599 39.0299 181.04 39.0299C181.04 43.1713 181.04 47.3126 181.04 51.454C180.598 51.454 180.156 51.454 179.715 51.454C179.715 47.3126 179.715 43.1713 179.715 39.0299ZM177.431 39.0299C177.873 39.0299 178.314 39.0299 178.755 39.0299C178.755 43.1713 178.755 47.3126 178.755 51.454C178.314 51.454 177.872 51.454 177.431 51.454C177.431 47.3126 177.431 43.1713 177.431 39.0299ZM175.147 39.0299C175.589 39.0299 176.031 39.0299 176.472 39.0299C176.472 43.1713 176.472 47.3126 176.472 51.454C176.03 51.454 175.588 51.454 175.147 51.454C175.147 47.3126 175.147 43.1713 175.147 39.0299ZM172.864 39.0299C173.306 39.0299 173.747 39.0299 174.189 39.0299C174.189 43.1713 174.189 47.3126 174.189 51.454C173.747 51.454 173.305 51.454 172.864 51.454C172.864 47.3126 172.864 43.1713 172.864 39.0299ZM181.519 56.062C180.189 56.1124 178.06 58.1904 177.298 59.1322C175.906 60.8529 177.584 61.5152 176.925 61.7351C176.166 62.096 175.407 62.4575 174.65 62.8184C174.65 68.754 174.65 74.6903 174.65 80.6265C179.229 80.6265 183.809 80.6265 188.388 80.6265C188.388 74.6903 188.388 68.754 188.388 62.8184C184.959 60.7897 186.014 62.5347 186.296 60.5625C186.491 59.1997 182.99 56.1185 181.519 56.062ZM181.519 89.8048C180.189 89.8558 178.06 91.9332 177.298 92.8743C175.906 94.5957 177.584 95.2574 176.925 95.4779C176.166 95.8388 175.407 96.2003 174.65 96.5612C174.65 102.497 174.65 108.434 174.65 114.369C179.229 114.369 183.809 114.369 188.388 114.369C188.388 108.434 188.388 102.497 188.388 96.5612C184.959 94.5325 186.014 96.2781 186.296 94.3052C186.491 92.943 182.99 89.8613 181.519 89.8048ZM91.6717 87.2638C90.1758 87.3288 87.7801 89.9925 86.9234 91.1998C85.3576 93.4066 87.246 94.2542 86.5041 94.5367C85.6511 94.9997 84.7986 95.4627 83.9449 95.9257C83.9449 103.536 83.9449 108.728 83.9449 116.338C89.0961 116.338 94.2473 116.338 99.3985 116.338C99.3985 108.728 99.3985 103.536 99.3985 95.9257C95.5415 93.3252 96.7281 95.563 97.0447 93.0342C97.2354 91.5091 94.8434 89.2525 93.6804 88.2822C92.9155 87.643 92.2805 87.2905 91.6717 87.2638ZM78.044 93.8666C72.9736 94.1807 73.7458 111.052 73.7458 116.339C76.6113 116.339 79.4767 116.339 82.3421 116.339C82.3415 111.47 82.8531 94.1643 78.044 93.8666ZM105.301 93.8666C110.37 94.1807 109.598 111.052 109.598 116.339C106.733 116.339 103.867 116.339 101.003 116.339C101.003 111.47 100.49 94.1643 105.301 93.8666ZM-44.6695 87.2638C-46.1654 87.3288 -48.5599 89.9925 -49.4179 91.1998C-50.9836 93.4066 -49.0952 94.2542 -49.8371 94.5367C-50.6902 94.9997 -51.5432 95.4627 -52.3957 95.9257C-52.3957 103.536 -52.3957 108.728 -52.3957 116.338C-47.2445 116.338 -42.0939 116.338 -36.9427 116.338C-36.9427 108.728 -36.9427 103.536 -36.9427 95.9257C-40.7997 93.3252 -39.6125 95.563 -39.2965 93.0342C-39.1057 91.5091 -41.4979 89.2525 -42.6608 88.2822C-43.4258 87.643 -44.0607 87.2905 -44.6695 87.2638ZM-58.2972 93.8666C-63.367 94.1807 -62.5948 111.052 -62.5948 116.339C-59.7294 116.339 -56.8645 116.339 -53.9991 116.339C-53.9997 111.47 -53.4875 94.1643 -58.2972 93.8666ZM-31.0406 93.8666C-25.9708 94.1807 -26.743 111.052 -26.743 116.339C-29.6085 116.339 -32.4733 116.339 -35.3387 116.339C-35.3387 111.47 -35.8503 94.1643 -31.0406 93.8666ZM-94.8319 39.0299C-94.3902 39.0299 -93.9485 39.0299 -93.5074 39.0299C-93.5074 43.1713 -93.5074 47.3126 -93.5074 51.454C-93.9491 51.454 -94.3908 51.454 -94.8319 51.454C-94.8319 47.3126 -94.8319 43.1713 -94.8319 39.0299ZM-74.2776 39.0299C-73.8359 39.0299 -73.3942 39.0299 -72.9524 39.0299C-72.9524 43.1713 -72.9524 47.3126 -72.9524 51.454C-73.3942 51.454 -73.8359 51.454 -74.2776 51.454C-74.2776 47.3126 -74.2776 43.1713 -74.2776 39.0299ZM-76.5609 39.0299C-76.1192 39.0299 -75.6781 39.0299 -75.2364 39.0299C-75.2364 43.1713 -75.2364 47.3126 -75.2364 51.454C-75.6781 51.454 -76.1192 51.454 -76.5609 51.454C-76.5609 47.3126 -76.5609 43.1713 -76.5609 39.0299ZM-78.8449 39.0299C-78.4032 39.0299 -77.9614 39.0299 -77.5197 39.0299C-77.5197 43.1713 -77.5197 47.3126 -77.5197 51.454C-77.9614 51.454 -78.4032 51.454 -78.8449 51.454C-78.8449 47.3126 -78.8449 43.1713 -78.8449 39.0299ZM-81.1282 39.0299C-80.6865 39.0299 -80.2448 39.0299 -79.8037 39.0299C-79.8037 43.1713 -79.8037 47.3126 -79.8037 51.454C-80.2454 51.454 -80.6871 51.454 -81.1282 51.454C-81.1282 47.3126 -81.1282 43.1713 -81.1282 39.0299ZM-83.4128 39.0299C-82.9711 39.0299 -82.5294 39.0299 -82.0882 39.0299C-82.0882 43.1713 -82.0882 47.3126 -82.0882 51.454C-82.53 51.454 -82.9717 51.454 -83.4128 51.454C-83.4128 47.3126 -83.4128 43.1713 -83.4128 39.0299ZM-85.6961 39.0299C-85.2544 39.0299 -84.8127 39.0299 -84.3716 39.0299C-84.3716 43.1713 -84.3716 47.3126 -84.3716 51.454C-84.8133 51.454 -85.255 51.454 -85.6961 51.454C-85.6961 47.3126 -85.6961 43.1713 -85.6961 39.0299ZM-87.9801 39.0299C-87.5384 39.0299 -87.0972 39.0299 -86.6555 39.0299C-86.6555 43.1713 -86.6555 47.3126 -86.6555 51.454C-87.0972 51.454 -87.5384 51.454 -87.9801 51.454C-87.9801 47.3126 -87.9801 43.1713 -87.9801 39.0299ZM-90.264 39.0299C-89.8223 39.0299 -89.3806 39.0299 -88.9395 39.0299C-88.9395 43.1713 -88.9395 47.3126 -88.9395 51.454C-89.3812 51.454 -89.8229 51.454 -90.264 51.454C-90.264 47.3126 -90.264 43.1713 -90.264 39.0299ZM-92.5474 39.0299C-92.1056 39.0299 -91.6639 39.0299 -91.2234 39.0299C-91.2234 43.1713 -91.2234 47.3126 -91.2234 51.454C-91.6645 51.454 -92.1056 51.454 -92.5474 51.454C-92.5474 47.3126 -92.5474 43.1713 -92.5474 39.0299ZM-83.8922 56.062C-85.2222 56.1124 -87.3518 58.1904 -88.1137 59.1322C-89.5057 60.8529 -87.827 61.5152 -88.4868 61.7351C-89.2451 62.096 -90.0034 62.4575 -90.7616 62.8184C-90.7616 68.754 -90.7616 74.6903 -90.7616 80.6265C-86.1828 80.6265 -81.6028 80.6265 -77.0233 80.6265C-77.0233 74.6903 -77.0233 68.754 -77.0233 62.8184C-80.452 60.7897 -79.3972 62.5347 -79.1153 60.5625C-78.9202 59.1997 -82.4218 56.1185 -83.8922 56.062ZM-83.8922 89.8048C-85.2222 89.8558 -87.3518 91.9332 -88.1137 92.8743C-89.5057 94.5957 -87.827 95.2574 -88.4868 95.4779C-89.2451 95.8388 -90.0034 96.2003 -90.7616 96.5612C-90.7616 102.497 -90.7616 108.434 -90.7616 114.369C-86.1828 114.369 -81.6028 114.369 -77.0233 114.369C-77.0233 108.434 -77.0233 102.497 -77.0233 96.5612C-80.452 94.5325 -79.3972 96.2781 -79.1153 94.3052C-78.9202 92.943 -82.4218 89.8613 -83.8922 89.8048Z" fill="white"/>
</svg>
